<svg width="1440" height="1228" viewBox="0 0 1440 1228" fill="none" xmlns="http://www.w3.org/2000/svg">
<g filter="url(#filter0_dd)">
<path d="M-172 287.448C96.0459 -8.55212 320.5 9.15516 470 32.6555C619.5 56.1559 858 223.312 1168 187.812C1478 152.312 2097.05 546.448 2097.05 546.448L-172 546.448L-172 287.448Z" fill="url(#paint0_linear)"/>
<path d="M1311.5 311.811C1098.7 229.919 926.5 243.656 749 264.754C571.5 285.852 450.887 224.039 285.499 205.493C120.111 186.947 66.6223 244.973 -12.5002 264.754C-12.5002 352.686 -5 766.622 -5 766.622L1517.1 766.622L1517.1 283.214C1517.1 283.214 1524.69 393.854 1311.5 311.811Z" fill="url(#paint1_linear)"/>
<path d="M1228.1 353.359C1015.3 271.466 894.983 364.478 673 383.458C451.017 402.437 492.527 371.906 327.139 353.359C161.751 334.813 74.123 358.437 -4.99951 378.218C-4.99951 466.15 -4.99975 836.768 -4.99975 836.768L1517.1 836.768L1517.1 353.359C1517.1 353.359 1441.29 435.402 1228.1 353.359Z" fill="url(#paint2_linear)"/>
<path d="M1097.96 418.169C885.153 336.277 882.07 302.946 711.57 324.551C541.07 346.155 438.458 234.097 273.07 215.551C107.682 197.005 -20.8774 217.375 -100 237.155C-100 324.327 -100 669.897 -100 669.897L1531.12 669.897L1531.12 419.946C1531.12 419.946 1311.15 500.212 1097.96 418.169Z" fill="url(#paint3_linear)"/>
<path d="M993.101 624.292C780.299 542.399 773.601 630.813 610.101 644.792C446.601 658.771 312.489 506.147 147.101 487.601C-18.2875 469.055 -63.8777 551.77 -143 571.55C-143 659.483 -11.5002 943.754 -11.5002 943.754L1510.6 943.754L1510.6 638.382C1510.6 638.382 1206.29 706.335 993.101 624.292Z" fill="url(#paint4_linear)"/>
<path d="M1221 854.058C1008.2 772.165 998.021 787.079 776.038 806.058C554.055 825.038 485.426 872.604 320.038 854.058C154.65 835.512 67.0215 859.136 -12.1011 878.916C-12.1011 966.849 -12.1013 1167.47 -12.1013 1167.47L1510 1167.47L1510 854.058C1510 854.058 1434.19 936.101 1221 854.058Z" fill="url(#paint5_linear)"/>
</g>
<defs>
<filter id="filter0_dd" x="-212" y="0.911041" width="2349.05" height="1226.56" filterUnits="userSpaceOnUse" color-interpolation-filters="sRGB">
<feFlood flood-opacity="0" result="BackgroundImageFix"/>
<feColorMatrix in="SourceAlpha" type="matrix" values="0 0 0 0 0 0 0 0 0 0 0 0 0 0 0 0 0 0 127 0"/>
<feOffset dy="20"/>
<feGaussianBlur stdDeviation="20"/>
<feColorMatrix type="matrix" values="0 0 0 0 0.36 0 0 0 0 0.404445 0 0 0 0 0.6 0 0 0 0.2 0"/>
<feBlend mode="normal" in2="BackgroundImageFix" result="effect1_dropShadow"/>
<feColorMatrix in="SourceAlpha" type="matrix" values="0 0 0 0 0 0 0 0 0 0 0 0 0 0 0 0 0 0 127 0"/>
<feOffset dy="1"/>
<feGaussianBlur stdDeviation="1.5"/>
<feColorMatrix type="matrix" values="0 0 0 0 0 0 0 0 0 0 0 0 0 0 0 0 0 0 0.05 0"/>
<feBlend mode="normal" in2="effect1_dropShadow" result="effect2_dropShadow"/>
<feBlend mode="normal" in="SourceGraphic" in2="effect2_dropShadow" result="shape"/>
</filter>
<linearGradient id="paint0_linear" x1="962.523" y1="110.311" x2="962.523" y2="546.448" gradientUnits="userSpaceOnUse">
<stop stop-color="#176AB1"/>
<stop offset="1" stop-color="#CBD8F1"/>
</linearGradient>
<linearGradient id="paint1_linear" x1="756.05" y1="220.311" x2="756.05" y2="387.911" gradientUnits="userSpaceOnUse">
<stop stop-color="#B8CAEF" stop-opacity="0"/>
<stop offset="1" stop-color="#E5EEF4"/>
</linearGradient>
<linearGradient id="paint2_linear" x1="1052" y1="254.911" x2="1040.96" y2="395.712" gradientUnits="userSpaceOnUse">
<stop stop-color="#FF8A25"/>
<stop offset="1" stop-color="#FFBE54"/>
</linearGradient>
<linearGradient id="paint3_linear" x1="1027" y1="271.911" x2="898.5" y2="686.656" gradientUnits="userSpaceOnUse">
<stop stop-color="#FF5449"/>
<stop offset="0.584158" stop-color="#FF8957"/>
<stop offset="1" stop-color="#FF5151"/>
</linearGradient>
<linearGradient id="paint4_linear" x1="904.101" y1="461.945" x2="837.524" y2="943.382" gradientUnits="userSpaceOnUse">
<stop stop-color="#FF2020"/>
<stop offset="0.491467" stop-color="#EF325F"/>
<stop offset="1" stop-color="#59248A"/>
</linearGradient>
<linearGradient id="paint5_linear" x1="748.949" y1="791.156" x2="748.949" y2="1167.47" gradientUnits="userSpaceOnUse">
<stop stop-color="#BCC6F6"/>
<stop offset="1" stop-color="#F2F6FF"/>
</linearGradient>
</defs>
</svg>
