<svg width="2221" height="358" viewBox="0 0 2221 358" fill="none" xmlns="http://www.w3.org/2000/svg">
<path opacity="0.111111" d="M135.748 41.1176C245.885 43.732 368.016 45.5327 592.866 89.1947C817.716 132.857 896.4 145.511 1036.47 141.197C1176.55 136.884 1217.83 144.643 1501.94 237.831C1786.57 331.189 2216.63 320.066 2216.63 320.066" stroke="url(#paint0_linear)" stroke-width="1.11111"/>
<path opacity="0.222222" d="M115.982 67.5493C226.904 66.3617 349.906 63.7804 576.341 105.466C802.776 147.152 882.016 158.718 1023.09 148.416C1164.17 138.114 1205.74 145.471 1491.83 241.901C1778.45 338.508 2211.59 309.319 2211.59 309.319" stroke="url(#paint1_linear)" stroke-width="1.22222"/>
<path opacity="0.333333" d="M97.0296 94.4184C208.637 89.4027 332.394 82.4103 560.413 122.077C788.433 161.744 868.215 172.207 1010.13 155.88C1152.04 139.554 1193.9 146.502 1482.18 246.132C1770.99 345.943 2206.7 298.58 2206.7 298.58" stroke="url(#paint2_linear)" stroke-width="1.33333"/>
<path opacity="0.444444" d="M78.9028 121.709C191.096 112.841 315.49 101.411 545.093 139.016C774.696 176.621 855.005 185.964 997.583 163.583C1140.16 141.202 1182.31 147.733 1472.98 250.511C1764.17 353.478 2201.95 287.845 2201.95 287.845" stroke="url(#paint3_linear)" stroke-width="1.44444"/>
<path opacity="0.555556" d="M61.6116 149.404C174.289 136.664 299.204 120.773 530.387 156.271C761.57 191.77 842.392 199.979 985.468 171.516C1128.54 143.053 1170.98 149.158 1464.23 255.03C1758.01 361.097 2197.36 277.111 2197.36 277.111" stroke="url(#paint4_linear)" stroke-width="1.55556"/>
<path opacity="0.666667" d="M45.1661 177.489C158.227 160.856 283.545 140.483 516.304 173.831C749.063 207.18 830.382 214.24 973.788 179.671C1117.19 145.102 1159.91 150.774 1455.94 259.679C1752.51 368.784 2192.91 266.374 2192.91 266.374" stroke="url(#paint5_linear)" stroke-width="1.66667"/>
<path opacity="0.777778" d="M29.576 205.945C142.919 185.404 268.52 160.53 502.851 191.684C737.181 222.837 818.982 228.733 962.547 188.04C1106.11 147.347 1149.11 152.576 1448.12 264.447C1747.66 376.523 2188.61 255.63 2188.61 255.63" stroke="url(#paint6_linear)" stroke-width="1.77778"/>
<path opacity="0.888889" d="M11.8782 233.757C125.401 209.293 251.167 179.903 487.062 208.817C722.958 237.73 805.225 242.446 948.78 195.614C1092.33 148.782 1135.62 153.561 1437.78 268.325C1740.51 383.298 2181.48 243.875 2181.48 243.875" stroke="url(#paint7_linear)" stroke-width="1.88889"/>
<path d="M0.999938 263.908C114.599 235.508 240.411 201.591 477.865 228.218C715.319 254.845 798.034 258.368 941.408 205.385C1084.78 152.403 1128.34 156.724 1433.87 274.301C1739.95 392.093 2180.45 234.105 2180.45 234.105" stroke="url(#paint8_linear)" stroke-width="2"/>
<defs>
<linearGradient id="paint0_linear" x1="2241.61" y1="360.674" x2="131.926" y2="68.3541" gradientUnits="userSpaceOnUse">
<stop stop-color="#FF7373" stop-opacity="0"/>
<stop offset="0.196285" stop-color="#2976E9"/>
<stop offset="0.512878" stop-color="#E9687B"/>
<stop offset="0.865668" stop-color="#6229AF"/>
<stop offset="1" stop-color="#491EB8" stop-opacity="0"/>
</linearGradient>
<linearGradient id="paint1_linear" x1="2236.73" y1="355.105" x2="112.259" y2="97.8991" gradientUnits="userSpaceOnUse">
<stop stop-color="#FF7373" stop-opacity="0"/>
<stop offset="0.196285" stop-color="#2976E9"/>
<stop offset="0.512878" stop-color="#E9687B"/>
<stop offset="0.865668" stop-color="#6229AF"/>
<stop offset="1" stop-color="#491EB8" stop-opacity="0"/>
</linearGradient>
<linearGradient id="paint2_linear" x1="2232.19" y1="349.549" x2="93.5024" y2="128.006" gradientUnits="userSpaceOnUse">
<stop stop-color="#FF7373" stop-opacity="0"/>
<stop offset="0.196285" stop-color="#2976E9"/>
<stop offset="0.512878" stop-color="#E9687B"/>
<stop offset="0.865668" stop-color="#6229AF"/>
<stop offset="1" stop-color="#491EB8" stop-opacity="0"/>
</linearGradient>
<linearGradient id="paint3_linear" x1="2227.98" y1="343.998" x2="75.6756" y2="158.619" gradientUnits="userSpaceOnUse">
<stop stop-color="#FF7373" stop-opacity="0"/>
<stop offset="0.196285" stop-color="#2976E9"/>
<stop offset="0.512878" stop-color="#E9687B"/>
<stop offset="0.865668" stop-color="#6229AF"/>
<stop offset="1" stop-color="#491EB8" stop-opacity="0"/>
</linearGradient>
<linearGradient id="paint4_linear" x1="2224.11" y1="338.443" x2="58.7955" y2="189.696" gradientUnits="userSpaceOnUse">
<stop stop-color="#FF7373" stop-opacity="0"/>
<stop offset="0.196285" stop-color="#2976E9"/>
<stop offset="0.512878" stop-color="#E9687B"/>
<stop offset="0.865668" stop-color="#6229AF"/>
<stop offset="1" stop-color="#491EB8" stop-opacity="0"/>
</linearGradient>
<linearGradient id="paint5_linear" x1="2220.58" y1="332.874" x2="42.8762" y2="221.201" gradientUnits="userSpaceOnUse">
<stop stop-color="#FF7373" stop-opacity="0"/>
<stop offset="0.196285" stop-color="#2976E9"/>
<stop offset="0.512878" stop-color="#E9687B"/>
<stop offset="0.865668" stop-color="#6229AF"/>
<stop offset="1" stop-color="#491EB8" stop-opacity="0"/>
</linearGradient>
<linearGradient id="paint6_linear" x1="2217.38" y1="327.283" x2="27.9297" y2="253.104" gradientUnits="userSpaceOnUse">
<stop stop-color="#FF7373" stop-opacity="0"/>
<stop offset="0.196285" stop-color="#2976E9"/>
<stop offset="0.512878" stop-color="#E9687B"/>
<stop offset="0.865668" stop-color="#6229AF"/>
<stop offset="1" stop-color="#491EB8" stop-opacity="0"/>
</linearGradient>
<linearGradient id="paint7_linear" x1="2211.55" y1="320.662" x2="10.9949" y2="284.379" gradientUnits="userSpaceOnUse">
<stop stop-color="#FF7373" stop-opacity="0"/>
<stop offset="0.196285" stop-color="#2976E9"/>
<stop offset="0.512878" stop-color="#E9687B"/>
<stop offset="0.865668" stop-color="#6229AF"/>
<stop offset="1" stop-color="#491EB8" stop-opacity="0"/>
</linearGradient>
<linearGradient id="paint8_linear" x1="2212" y1="316" x2="0.99994" y2="318" gradientUnits="userSpaceOnUse">
<stop stop-color="#FF7373" stop-opacity="0"/>
<stop offset="0.196285" stop-color="#2976E9"/>
<stop offset="0.512878" stop-color="#E9687B"/>
<stop offset="0.865668" stop-color="#6229AF"/>
<stop offset="1" stop-color="#491EB8" stop-opacity="0"/>
</linearGradient>
</defs>
</svg>
