<svg width="415" height="340" viewBox="0 0 415 340" fill="none" xmlns="http://www.w3.org/2000/svg">
<g filter="url(#filter0_bd)">
<rect x="60" y="30" width="295" height="220" rx="30" fill="url(#paint0_radial)" fill-opacity="0.1"/>
<rect x="60.25" y="30.25" width="294.5" height="219.5" rx="29.75" stroke="white" stroke-opacity="0.3" stroke-width="0.5"/>
</g>
<path d="M226.453 62H228.959V57.2852H233.832V55.3013H228.959V52.0889H234.297V50.022H226.453V62ZM241.626 62.3071C244.714 62.3071 246.64 60.5225 246.64 57.8662V50.022H244.133V57.6421C244.133 59.1943 243.237 60.1821 241.626 60.1821C240.016 60.1821 239.111 59.1943 239.111 57.6421V50.022H236.604V57.8662C236.604 60.5308 238.555 62.3071 241.626 62.3071ZM249.545 62H251.944V54.3384H252.077L257.622 62H259.697V50.022H257.298V57.6504H257.165L251.637 50.022H249.545V62ZM262.611 62H265.01V54.3384H265.143L270.687 62H272.763V50.022H270.364V57.6504H270.231L264.703 50.022H262.611V62ZM275.676 62H283.612V59.9331H278.183V56.9033H283.305V54.9775H278.183V52.0889H283.612V50.022H275.676V62ZM286.251 62H294.087V59.9331H288.758V50.022H286.251V62ZM300.022 62H302.728L305.343 57.7998H305.426L308.049 62H310.905L307.037 56.0151V55.9819L310.963 50.022H308.157L305.634 54.3384H305.534L302.994 50.022H300.039L303.824 55.9404V55.9653L300.022 62ZM314.648 62.2075C315.503 62.2075 316.109 61.585 316.109 60.7632C316.109 59.9414 315.503 59.3271 314.648 59.3271C313.802 59.3271 313.187 59.9414 313.187 60.7632C313.187 61.585 313.802 62.2075 314.648 62.2075ZM322.625 62.3071C325.589 62.3071 327.382 59.8833 327.382 56.0151V55.9985C327.382 52.1221 325.589 49.7148 322.625 49.7148C319.67 49.7148 317.869 52.1221 317.869 55.9985V56.0151C317.869 59.8833 319.67 62.3071 322.625 62.3071ZM322.625 60.3232C321.214 60.3232 320.409 58.7212 320.409 56.0151V55.9985C320.409 53.2842 321.214 51.6987 322.625 51.6987C324.045 51.6987 324.85 53.2842 324.85 55.9985V56.0151C324.85 58.7212 324.045 60.3232 322.625 60.3232Z" fill="white"/>
<path d="M229.907 85.2222C231.951 85.2222 233.442 84.0542 233.709 82.2959V82.2578H232.3L232.287 82.2832C232.027 83.3179 231.119 83.9653 229.907 83.9653C228.256 83.9653 227.228 82.6006 227.228 80.4297V80.417C227.228 78.2397 228.256 76.875 229.9 76.875C231.106 76.875 232.027 77.605 232.293 78.7285V78.7476H233.703L233.709 78.7158C233.468 76.894 231.919 75.6182 229.9 75.6182C227.355 75.6182 225.774 77.459 225.774 80.417V80.4297C225.774 83.3813 227.361 85.2222 229.907 85.2222ZM238.317 85.1333C240.082 85.1333 241.034 84.1177 241.263 83.21L241.275 83.1528L239.949 83.1592L239.923 83.21C239.758 83.5654 239.231 84.0034 238.349 84.0034C237.213 84.0034 236.489 83.2354 236.464 81.915H241.352V81.4326C241.352 79.3633 240.171 77.9731 238.247 77.9731C236.324 77.9731 235.08 79.4141 235.08 81.5659V81.5723C235.08 83.7559 236.299 85.1333 238.317 85.1333ZM238.254 79.103C239.187 79.103 239.879 79.6997 239.987 80.9312H236.483C236.603 79.7441 237.314 79.103 238.254 79.103ZM242.989 85H244.367V80.8804C244.367 79.8838 245.084 79.2363 246.138 79.2363C246.398 79.2363 246.633 79.2681 246.88 79.3188V78.0493C246.741 78.0176 246.499 77.9858 246.277 77.9858C245.357 77.9858 244.716 78.4175 244.468 79.1475H244.367V78.1064H242.989V85ZM251.152 85.0444C251.419 85.0444 251.673 85.0127 251.895 84.9746V83.8765C251.705 83.8955 251.584 83.9019 251.374 83.9019C250.695 83.9019 250.416 83.5972 250.416 82.8545V79.1919H251.895V78.1064H250.416V76.3672H249.013V78.1064H247.934V79.1919H249.013V83.1846C249.013 84.5112 249.635 85.0444 251.152 85.0444ZM254.218 76.875C254.688 76.875 255.081 76.4878 255.081 76.0181C255.081 75.542 254.688 75.1548 254.218 75.1548C253.742 75.1548 253.355 75.542 253.355 76.0181C253.355 76.4878 253.742 76.875 254.218 76.875ZM253.526 85H254.897V78.1064H253.526V85ZM257.392 85H258.763V79.1919H260.28V78.1064H258.75V77.4463C258.75 76.748 259.049 76.3799 259.81 76.3799C260.026 76.3799 260.21 76.3926 260.337 76.4116V75.4023C260.102 75.3643 259.836 75.3389 259.525 75.3389C258.09 75.3389 257.392 76.0117 257.392 77.3828V78.1064H256.256V79.1919H257.392V85ZM262.546 76.875C263.016 76.875 263.41 76.4878 263.41 76.0181C263.41 75.542 263.016 75.1548 262.546 75.1548C262.07 75.1548 261.683 75.542 261.683 76.0181C261.683 76.4878 262.07 76.875 262.546 76.875ZM261.854 85H263.226V78.1064H261.854V85ZM268.132 85.1333C269.84 85.1333 270.824 84.2129 271.071 82.8735L271.084 82.8164H269.764L269.751 82.8481C269.529 83.5908 268.996 83.9844 268.132 83.9844C266.996 83.9844 266.291 83.0576 266.291 81.5342V81.5215C266.291 80.0361 266.983 79.1221 268.132 79.1221C269.046 79.1221 269.605 79.6299 269.757 80.3091L269.764 80.3281L271.084 80.3218V80.29C270.893 78.9507 269.859 77.9731 268.126 77.9731C266.114 77.9731 264.889 79.3379 264.889 81.5215V81.5342C264.889 83.7622 266.12 85.1333 268.132 85.1333ZM274.537 85.1143C275.451 85.1143 276.175 84.7207 276.581 84.0225H276.689V85H278.054V80.2837C278.054 78.8364 277.076 77.9731 275.343 77.9731C273.775 77.9731 272.69 78.7285 272.525 79.8584L272.518 79.9028H273.845L273.852 79.8774C274.017 79.3887 274.518 79.1094 275.28 79.1094C276.213 79.1094 276.689 79.5283 276.689 80.2837V80.8931L274.823 81.001C273.179 81.1025 272.252 81.8198 272.252 83.0513V83.064C272.252 84.3145 273.223 85.1143 274.537 85.1143ZM273.623 83.0068V82.9941C273.623 82.3721 274.055 82.0293 275.007 81.9722L276.689 81.8643V82.4546C276.689 83.3433 275.934 84.0161 274.905 84.0161C274.163 84.0161 273.623 83.6416 273.623 83.0068ZM282.599 85.0444C282.865 85.0444 283.119 85.0127 283.341 84.9746V83.8765C283.151 83.8955 283.03 83.9019 282.821 83.9019C282.142 83.9019 281.862 83.5972 281.862 82.8545V79.1919H283.341V78.1064H281.862V76.3672H280.459V78.1064H279.38V79.1919H280.459V83.1846C280.459 84.5112 281.081 85.0444 282.599 85.0444ZM287.766 85.1333C289.53 85.1333 290.482 84.1177 290.711 83.21L290.724 83.1528L289.397 83.1592L289.372 83.21C289.206 83.5654 288.68 84.0034 287.797 84.0034C286.661 84.0034 285.937 83.2354 285.912 81.915H290.8V81.4326C290.8 79.3633 289.619 77.9731 287.696 77.9731C285.772 77.9731 284.528 79.4141 284.528 81.5659V81.5723C284.528 83.7559 285.747 85.1333 287.766 85.1333ZM287.702 79.103C288.635 79.103 289.327 79.6997 289.435 80.9312H285.931C286.052 79.7441 286.763 79.103 287.702 79.103Z" fill="white" fill-opacity="0.6"/>
<rect x="78" y="140" width="108" height="4" rx="2" fill="white" fill-opacity="0.2"/>
<rect x="78" y="152" width="58" height="4" rx="2" fill="white" fill-opacity="0.2"/>
<rect x="78" y="164" width="78" height="4" rx="2" fill="white" fill-opacity="0.2"/>
<rect x="78" y="176" width="58" height="4" rx="2" fill="white" fill-opacity="0.2"/>
<rect x="78" y="204" width="83" height="8" rx="4" fill="white" fill-opacity="0.4"/>
<defs>
<filter id="filter0_bd" x="0" y="-10" width="415" height="350" filterUnits="userSpaceOnUse" color-interpolation-filters="sRGB">
<feFlood flood-opacity="0" result="BackgroundImageFix"/>
<feGaussianBlur in="BackgroundImage" stdDeviation="20"/>
<feComposite in2="SourceAlpha" operator="in" result="effect1_backgroundBlur"/>
<feColorMatrix in="SourceAlpha" type="matrix" values="0 0 0 0 0 0 0 0 0 0 0 0 0 0 0 0 0 0 127 0"/>
<feOffset dy="30"/>
<feGaussianBlur stdDeviation="30"/>
<feColorMatrix type="matrix" values="0 0 0 0 0.1525 0 0 0 0 0.301667 0 0 0 0 0.6 0 0 0 0.2 0"/>
<feBlend mode="normal" in2="effect1_backgroundBlur" result="effect2_dropShadow"/>
<feBlend mode="normal" in="SourceGraphic" in2="effect2_dropShadow" result="shape"/>
</filter>
<radialGradient id="paint0_radial" cx="0" cy="0" r="1" gradientUnits="userSpaceOnUse" gradientTransform="translate(355 250) rotate(-162.738) scale(370.697 355.657)">
<stop stop-color="#33FDF1"/>
<stop offset="1" stop-color="#C86000"/>
</radialGradient>
</defs>
</svg>
