<svg width="804" height="390" viewBox="0 0 804 390" fill="none" xmlns="http://www.w3.org/2000/svg">
<g filter="url(#filter0_bd)">
<rect x="475" y="100" width="268.182" height="200" rx="27.2727" fill="url(#paint0_linear)" fill-opacity="0.6"/>
<rect x="475.25" y="100.25" width="267.682" height="199.5" rx="27.0227" stroke="black" stroke-opacity="0.2" stroke-width="0.5"/>
</g>
<g filter="url(#filter1_bd)">
<rect x="390" y="70" width="295" height="220" rx="30" fill="url(#paint1_radial)" fill-opacity="0.1"/>
<rect x="390.25" y="70.25" width="294.5" height="219.5" rx="29.75" stroke="white" stroke-opacity="0.3" stroke-width="0.5"/>
</g>
<path d="M556.453 102H558.959V97.2852H563.832V95.3013H558.959V92.0889H564.297V90.022H556.453V102ZM571.626 102.307C574.714 102.307 576.64 100.522 576.64 97.8662V90.022H574.133V97.6421C574.133 99.1943 573.237 100.182 571.626 100.182C570.016 100.182 569.111 99.1943 569.111 97.6421V90.022H566.604V97.8662C566.604 100.531 568.555 102.307 571.626 102.307ZM579.545 102H581.944V94.3384H582.077L587.622 102H589.697V90.022H587.298V97.6504H587.165L581.637 90.022H579.545V102ZM592.611 102H595.01V94.3384H595.143L600.687 102H602.763V90.022H600.364V97.6504H600.231L594.703 90.022H592.611V102ZM605.676 102H613.612V99.9331H608.183V96.9033H613.305V94.9775H608.183V92.0889H613.612V90.022H605.676V102ZM616.251 102H624.087V99.9331H618.758V90.022H616.251V102ZM630.022 102H632.728L635.343 97.7998H635.426L638.049 102H640.905L637.037 96.0151V95.9819L640.963 90.022H638.157L635.634 94.3384H635.534L632.994 90.022H630.039L633.824 95.9404V95.9653L630.022 102ZM644.648 102.208C645.503 102.208 646.109 101.585 646.109 100.763C646.109 99.9414 645.503 99.3271 644.648 99.3271C643.802 99.3271 643.187 99.9414 643.187 100.763C643.187 101.585 643.802 102.208 644.648 102.208ZM652.625 102.307C655.589 102.307 657.382 99.8833 657.382 96.0151V95.9985C657.382 92.1221 655.589 89.7148 652.625 89.7148C649.67 89.7148 647.869 92.1221 647.869 95.9985V96.0151C647.869 99.8833 649.67 102.307 652.625 102.307ZM652.625 100.323C651.214 100.323 650.409 98.7212 650.409 96.0151V95.9985C650.409 93.2842 651.214 91.6987 652.625 91.6987C654.045 91.6987 654.85 93.2842 654.85 95.9985V96.0151C654.85 98.7212 654.045 100.323 652.625 100.323Z" fill="white"/>
<path d="M559.907 125.222C561.951 125.222 563.442 124.054 563.709 122.296V122.258H562.3L562.287 122.283C562.027 123.318 561.119 123.965 559.907 123.965C558.256 123.965 557.228 122.601 557.228 120.43V120.417C557.228 118.24 558.256 116.875 559.9 116.875C561.106 116.875 562.027 117.605 562.293 118.729V118.748H563.703L563.709 118.716C563.468 116.894 561.919 115.618 559.9 115.618C557.355 115.618 555.774 117.459 555.774 120.417V120.43C555.774 123.381 557.361 125.222 559.907 125.222ZM568.317 125.133C570.082 125.133 571.034 124.118 571.263 123.21L571.275 123.153L569.949 123.159L569.923 123.21C569.758 123.565 569.231 124.003 568.349 124.003C567.213 124.003 566.489 123.235 566.464 121.915H571.352V121.433C571.352 119.363 570.171 117.973 568.247 117.973C566.324 117.973 565.08 119.414 565.08 121.566V121.572C565.08 123.756 566.299 125.133 568.317 125.133ZM568.254 119.103C569.187 119.103 569.879 119.7 569.987 120.931H566.483C566.603 119.744 567.314 119.103 568.254 119.103ZM572.989 125H574.367V120.88C574.367 119.884 575.084 119.236 576.138 119.236C576.398 119.236 576.633 119.268 576.88 119.319V118.049C576.741 118.018 576.499 117.986 576.277 117.986C575.357 117.986 574.716 118.417 574.468 119.147H574.367V118.106H572.989V125ZM581.152 125.044C581.419 125.044 581.673 125.013 581.895 124.975V123.876C581.705 123.896 581.584 123.902 581.374 123.902C580.695 123.902 580.416 123.597 580.416 122.854V119.192H581.895V118.106H580.416V116.367H579.013V118.106H577.934V119.192H579.013V123.185C579.013 124.511 579.635 125.044 581.152 125.044ZM584.218 116.875C584.688 116.875 585.081 116.488 585.081 116.018C585.081 115.542 584.688 115.155 584.218 115.155C583.742 115.155 583.355 115.542 583.355 116.018C583.355 116.488 583.742 116.875 584.218 116.875ZM583.526 125H584.897V118.106H583.526V125ZM587.392 125H588.763V119.192H590.28V118.106H588.75V117.446C588.75 116.748 589.049 116.38 589.81 116.38C590.026 116.38 590.21 116.393 590.337 116.412V115.402C590.102 115.364 589.836 115.339 589.525 115.339C588.09 115.339 587.392 116.012 587.392 117.383V118.106H586.256V119.192H587.392V125ZM592.546 116.875C593.016 116.875 593.41 116.488 593.41 116.018C593.41 115.542 593.016 115.155 592.546 115.155C592.07 115.155 591.683 115.542 591.683 116.018C591.683 116.488 592.07 116.875 592.546 116.875ZM591.854 125H593.226V118.106H591.854V125ZM598.132 125.133C599.84 125.133 600.824 124.213 601.071 122.874L601.084 122.816H599.764L599.751 122.848C599.529 123.591 598.996 123.984 598.132 123.984C596.996 123.984 596.291 123.058 596.291 121.534V121.521C596.291 120.036 596.983 119.122 598.132 119.122C599.046 119.122 599.605 119.63 599.757 120.309L599.764 120.328L601.084 120.322V120.29C600.893 118.951 599.859 117.973 598.126 117.973C596.114 117.973 594.889 119.338 594.889 121.521V121.534C594.889 123.762 596.12 125.133 598.132 125.133ZM604.537 125.114C605.451 125.114 606.175 124.721 606.581 124.022H606.689V125H608.054V120.284C608.054 118.836 607.076 117.973 605.343 117.973C603.775 117.973 602.69 118.729 602.525 119.858L602.518 119.903H603.845L603.852 119.877C604.017 119.389 604.518 119.109 605.28 119.109C606.213 119.109 606.689 119.528 606.689 120.284V120.893L604.823 121.001C603.179 121.103 602.252 121.82 602.252 123.051V123.064C602.252 124.314 603.223 125.114 604.537 125.114ZM603.623 123.007V122.994C603.623 122.372 604.055 122.029 605.007 121.972L606.689 121.864V122.455C606.689 123.343 605.934 124.016 604.905 124.016C604.163 124.016 603.623 123.642 603.623 123.007ZM612.599 125.044C612.865 125.044 613.119 125.013 613.341 124.975V123.876C613.151 123.896 613.03 123.902 612.821 123.902C612.142 123.902 611.862 123.597 611.862 122.854V119.192H613.341V118.106H611.862V116.367H610.459V118.106H609.38V119.192H610.459V123.185C610.459 124.511 611.081 125.044 612.599 125.044ZM617.766 125.133C619.53 125.133 620.482 124.118 620.711 123.21L620.724 123.153L619.397 123.159L619.372 123.21C619.206 123.565 618.68 124.003 617.797 124.003C616.661 124.003 615.937 123.235 615.912 121.915H620.8V121.433C620.8 119.363 619.619 117.973 617.696 117.973C615.772 117.973 614.528 119.414 614.528 121.566V121.572C614.528 123.756 615.747 125.133 617.766 125.133ZM617.702 119.103C618.635 119.103 619.327 119.7 619.435 120.931H615.931C616.052 119.744 616.763 119.103 617.702 119.103Z" fill="white" fill-opacity="0.6"/>
<g clip-path="url(#clip0)">
<path d="M413.619 108V96.022H411.477V108H413.619ZM421.737 95.7231C418.259 95.7231 416.068 98.1387 416.068 102.007C416.068 105.867 418.226 108.299 421.737 108.299C425.232 108.299 427.398 105.867 427.398 102.007C427.398 98.1387 425.223 95.7231 421.737 95.7231ZM421.737 97.5742C423.862 97.5742 425.215 99.2925 425.215 102.007C425.215 104.705 423.87 106.448 421.737 106.448C419.579 106.448 418.259 104.705 418.259 102.007C418.259 99.2925 419.612 97.5742 421.737 97.5742ZM429.307 104.754C429.415 106.921 431.233 108.299 433.981 108.299C436.886 108.299 438.687 106.854 438.687 104.53C438.687 102.712 437.666 101.7 435.234 101.144L433.856 100.828C432.37 100.479 431.764 100.006 431.764 99.1846C431.764 98.147 432.678 97.4663 434.056 97.4663C435.367 97.4663 436.297 98.1387 436.446 99.2095H438.496C438.397 97.1592 436.579 95.7231 434.064 95.7231C431.383 95.7231 429.606 97.1675 429.606 99.3257C429.606 101.102 430.627 102.173 432.802 102.671L434.354 103.028C435.89 103.385 436.546 103.916 436.546 104.788C436.546 105.809 435.525 106.547 434.114 106.547C432.595 106.547 431.532 105.85 431.399 104.754H429.307ZM445.627 96.022V108H450.118C453.703 108 455.754 105.8 455.754 101.957C455.754 98.1968 453.679 96.022 450.118 96.022H445.627ZM447.768 97.8232H449.835C452.184 97.8232 453.571 99.3506 453.571 101.99C453.571 104.688 452.218 106.199 449.835 106.199H447.768V97.8232ZM465.964 106.199H460.352V102.771H465.657V101.069H460.352V97.8232H465.964V96.022H458.211V108H465.964V106.199ZM468.072 104.754C468.18 106.921 469.998 108.299 472.745 108.299C475.651 108.299 477.452 106.854 477.452 104.53C477.452 102.712 476.431 101.7 473.999 101.144L472.621 100.828C471.135 100.479 470.529 100.006 470.529 99.1846C470.529 98.147 471.442 97.4663 472.82 97.4663C474.132 97.4663 475.061 98.1387 475.211 99.2095H477.261C477.161 97.1592 475.344 95.7231 472.828 95.7231C470.147 95.7231 468.371 97.1675 468.371 99.3257C468.371 101.102 469.392 102.173 471.567 102.671L473.119 103.028C474.655 103.385 475.31 103.916 475.31 104.788C475.31 105.809 474.289 106.547 472.878 106.547C471.359 106.547 470.297 105.85 470.164 104.754H468.072ZM482.001 108V96.022H479.859V108H482.001ZM495.315 103.219V101.725H490.343V103.36H493.223L493.215 103.609C493.182 105.302 491.937 106.439 490.111 106.439C487.977 106.439 486.641 104.746 486.641 101.99C486.641 99.2759 487.952 97.5825 490.044 97.5825C491.58 97.5825 492.651 98.3462 493.082 99.7324H495.216C494.834 97.292 492.808 95.7231 490.044 95.7231C486.633 95.7231 484.45 98.1719 484.45 102.007C484.45 105.883 486.608 108.299 490.077 108.299C493.273 108.299 495.315 106.315 495.315 103.219ZM499.872 108V99.749H500.014L505.89 108H507.742V96.022H505.683V104.273H505.542L499.665 96.022H497.806V108H499.872Z" fill="black"/>
<path d="M414.856 131.216C416.805 131.216 418.252 130.13 418.556 128.448H417.395C417.103 129.508 416.132 130.162 414.856 130.162C413.091 130.162 411.987 128.721 411.987 126.423C411.987 124.125 413.091 122.678 414.849 122.678C416.113 122.678 417.09 123.421 417.395 124.602H418.556C418.284 122.837 416.779 121.625 414.849 121.625C412.361 121.625 410.812 123.465 410.812 126.423C410.812 129.375 412.368 131.216 414.856 131.216ZM424.866 129.229C424.58 129.832 423.984 130.156 423.101 130.156C421.94 130.156 421.184 129.299 421.127 127.947V127.896H426.047V127.477C426.047 125.351 424.923 124.037 423.076 124.037C421.197 124.037 419.991 125.433 419.991 127.585C419.991 129.75 421.178 131.121 423.076 131.121C424.574 131.121 425.64 130.397 425.958 129.229H424.866ZM423.063 125.001C424.149 125.001 424.872 125.801 424.898 127.014H421.127C421.21 125.801 421.972 125.001 423.063 125.001ZM427.761 131H428.852V126.76C428.852 125.795 429.608 125.097 430.649 125.097C430.865 125.097 431.258 125.135 431.347 125.16V124.068C431.207 124.049 430.979 124.037 430.801 124.037C429.893 124.037 429.106 124.506 428.903 125.173H428.802V124.157H427.761V131ZM433.55 122.386V124.157H432.445V125.071H433.55V129.223C433.55 130.53 434.115 131.051 435.524 131.051C435.74 131.051 435.949 131.025 436.165 130.987V130.067C435.962 130.086 435.854 130.092 435.657 130.092C434.946 130.092 434.641 129.75 434.641 128.943V125.071H436.165V124.157H434.641V122.386H433.55ZM438.387 122.837C438.806 122.837 439.148 122.494 439.148 122.075C439.148 121.656 438.806 121.313 438.387 121.313C437.968 121.313 437.625 121.656 437.625 122.075C437.625 122.494 437.968 122.837 438.387 122.837ZM437.841 131H438.932V124.157H437.841V131ZM441.472 131H442.563V125.071H444.131V124.157H442.563V123.427C442.563 122.678 442.893 122.297 443.681 122.297C443.877 122.297 444.061 122.304 444.195 122.329V121.44C443.966 121.396 443.725 121.377 443.458 121.377C442.157 121.377 441.472 122.031 441.472 123.396V124.157H440.335V125.071H441.472V131ZM446.296 122.837C446.715 122.837 447.057 122.494 447.057 122.075C447.057 121.656 446.715 121.313 446.296 121.313C445.877 121.313 445.534 121.656 445.534 122.075C445.534 122.494 445.877 122.837 446.296 122.837ZM445.75 131H446.842V124.157H445.75V131ZM454.586 126.252C454.395 125.033 453.38 124.037 451.717 124.037C449.8 124.037 448.581 125.42 448.581 127.553C448.581 129.73 449.806 131.121 451.723 131.121C453.367 131.121 454.389 130.194 454.586 128.937H453.481C453.278 129.711 452.637 130.137 451.717 130.137C450.498 130.137 449.711 129.134 449.711 127.553C449.711 126.004 450.485 125.021 451.717 125.021C452.701 125.021 453.304 125.573 453.481 126.252H454.586ZM458.102 131.121C459.016 131.121 459.765 130.721 460.21 129.991H460.311V131H461.352V126.315C461.352 124.894 460.419 124.037 458.75 124.037C457.29 124.037 456.211 124.76 456.065 125.858H457.169C457.322 125.319 457.893 125.008 458.712 125.008C459.734 125.008 460.261 125.471 460.261 126.315V126.938L458.286 127.058C456.693 127.153 455.792 127.858 455.792 129.083C455.792 130.333 456.776 131.121 458.102 131.121ZM458.306 130.162C457.512 130.162 456.922 129.756 456.922 129.058C456.922 128.372 457.379 128.01 458.42 127.94L460.261 127.82V128.448C460.261 129.426 459.429 130.162 458.306 130.162ZM463.828 122.386V124.157H462.723V125.071H463.828V129.223C463.828 130.53 464.393 131.051 465.802 131.051C466.018 131.051 466.227 131.025 466.443 130.987V130.067C466.24 130.086 466.132 130.092 465.935 130.092C465.224 130.092 464.92 129.75 464.92 128.943V125.071H466.443V124.157H464.92V122.386H463.828ZM472.524 129.229C472.239 129.832 471.642 130.156 470.76 130.156C469.598 130.156 468.843 129.299 468.785 127.947V127.896H473.705V127.477C473.705 125.351 472.581 124.037 470.734 124.037C468.855 124.037 467.649 125.433 467.649 127.585C467.649 129.75 468.836 131.121 470.734 131.121C472.232 131.121 473.299 130.397 473.616 129.229H472.524ZM470.722 125.001C471.807 125.001 472.531 125.801 472.556 127.014H468.785C468.868 125.801 469.63 125.001 470.722 125.001Z" fill="black" fill-opacity="0.6"/>
<g clip-path="url(#clip1)">
<rect x="410" y="188" width="108" height="4" rx="2" fill="white" fill-opacity="0.2"/>
<rect x="410" y="200" width="58" height="4" rx="2" fill="white" fill-opacity="0.2"/>
<rect x="410" y="212" width="78" height="4" rx="2" fill="white" fill-opacity="0.2"/>
<g clip-path="url(#clip2)">
<rect x="410" y="224" width="58" height="4" rx="2" fill="white" fill-opacity="0.2"/>
<rect x="410" y="252" width="83" height="8" rx="4" fill="white" fill-opacity="0.4"/>
</g>
</g>
</g>
<g filter="url(#filter2_bd)">
<rect x="232" y="50" width="315" height="220" rx="30" fill="url(#paint2_radial)" fill-opacity="0.2"/>
<rect x="232.25" y="50.25" width="314.5" height="219.5" rx="29.75" stroke="white" stroke-opacity="0.3" stroke-width="0.5"/>
</g>
<path d="M415.736 94.3071C418.724 94.3071 420.567 92.8047 420.567 90.4307V90.4224C420.567 88.5547 419.463 87.542 416.931 87.019L415.661 86.7617C414.25 86.4712 413.669 86.0063 413.669 85.2261V85.2178C413.669 84.3213 414.491 83.7568 415.728 83.7485C416.989 83.7485 417.819 84.3462 417.96 85.2012L417.977 85.3008H420.334L420.326 85.1929C420.168 83.1924 418.525 81.7148 415.728 81.7148C413.071 81.7148 411.162 83.1841 411.162 85.4087V85.417C411.162 87.2349 412.233 88.397 414.723 88.9033L415.985 89.1606C417.471 89.4678 418.06 89.9077 418.06 90.6963V90.7046C418.06 91.626 417.139 92.2651 415.802 92.2651C414.399 92.2651 413.428 91.6592 413.337 90.7627L413.329 90.6797H410.913L410.921 90.8125C411.062 92.9375 412.872 94.3071 415.736 94.3071ZM425.846 94H428.353V84.0889H431.947V82.022H422.252V84.0889H425.846V94ZM432.014 94H434.645L435.533 91.0947H439.758L440.646 94H443.286L439.119 82.022H436.172L432.014 94ZM437.575 84.4126H437.725L439.186 89.2188H436.106L437.575 84.4126ZM445.32 94H447.827V89.6172H449.877L452.11 94H454.949L452.425 89.2437C453.795 88.7041 454.592 87.3843 454.592 85.8486V85.832C454.592 83.4746 453.031 82.022 450.309 82.022H445.32V94ZM447.827 87.791V83.981H450.001C451.255 83.981 452.027 84.728 452.027 85.8818V85.8984C452.027 87.0771 451.288 87.791 450.035 87.791H447.827ZM460.029 94H462.536V84.0889H466.13V82.022H456.435V84.0889H460.029V94ZM473.36 94.3071C476.448 94.3071 478.374 92.5225 478.374 89.8662V82.022H475.867V89.6421C475.867 91.1943 474.97 92.1821 473.36 92.1821C471.75 92.1821 470.845 91.1943 470.845 89.6421V82.022H468.338V89.8662C468.338 92.5308 470.289 94.3071 473.36 94.3071ZM481.279 94H483.786V90.2231H486.218C488.741 90.2231 490.426 88.5962 490.426 86.1309V86.1143C490.426 83.6489 488.741 82.022 486.218 82.022H481.279V94ZM485.604 84.0059C487.04 84.0059 487.886 84.7612 487.886 86.1226V86.1392C487.886 87.5005 487.04 88.2642 485.604 88.2642H483.786V84.0059H485.604ZM496.395 94H499.101L501.715 89.7998H501.798L504.421 94H507.277L503.409 88.0151V87.9819L507.335 82.022H504.529L502.006 86.3384H501.906L499.366 82.022H496.411L500.196 87.9404V87.9653L496.395 94ZM511.021 94.2075C511.875 94.2075 512.481 93.585 512.481 92.7632C512.481 91.9414 511.875 91.3271 511.021 91.3271C510.174 91.3271 509.56 91.9414 509.56 92.7632C509.56 93.585 510.174 94.2075 511.021 94.2075ZM518.998 94.3071C521.961 94.3071 523.754 91.8833 523.754 88.0151V87.9985C523.754 84.1221 521.961 81.7148 518.998 81.7148C516.042 81.7148 514.241 84.1221 514.241 87.9985V88.0151C514.241 91.8833 516.042 94.3071 518.998 94.3071ZM518.998 92.3232C517.586 92.3232 516.781 90.7212 516.781 88.0151V87.9985C516.781 85.2842 517.586 83.6987 518.998 83.6987C520.417 83.6987 521.222 85.2842 521.222 87.9985V88.0151C521.222 90.7212 520.417 92.3232 518.998 92.3232Z" fill="white"/>
<path d="M414.907 117.222C416.951 117.222 418.442 116.054 418.709 114.296V114.258H417.3L417.287 114.283C417.027 115.318 416.119 115.965 414.907 115.965C413.256 115.965 412.228 114.601 412.228 112.43V112.417C412.228 110.24 413.256 108.875 414.9 108.875C416.106 108.875 417.027 109.605 417.293 110.729V110.748H418.703L418.709 110.716C418.468 108.894 416.919 107.618 414.9 107.618C412.355 107.618 410.774 109.459 410.774 112.417V112.43C410.774 115.381 412.361 117.222 414.907 117.222ZM423.317 117.133C425.082 117.133 426.034 116.118 426.263 115.21L426.275 115.153L424.949 115.159L424.923 115.21C424.758 115.565 424.231 116.003 423.349 116.003C422.213 116.003 421.489 115.235 421.464 113.915H426.352V113.433C426.352 111.363 425.171 109.973 423.248 109.973C421.324 109.973 420.08 111.414 420.08 113.566V113.572C420.08 115.756 421.299 117.133 423.317 117.133ZM423.254 111.103C424.187 111.103 424.879 111.7 424.987 112.931H421.483C421.604 111.744 422.314 111.103 423.254 111.103ZM427.989 117H429.367V112.88C429.367 111.884 430.084 111.236 431.138 111.236C431.398 111.236 431.633 111.268 431.88 111.319V110.049C431.741 110.018 431.5 109.986 431.277 109.986C430.357 109.986 429.716 110.417 429.468 111.147H429.367V110.106H427.989V117ZM436.152 117.044C436.419 117.044 436.673 117.013 436.895 116.975V115.876C436.705 115.896 436.584 115.902 436.375 115.902C435.695 115.902 435.416 115.597 435.416 114.854V111.192H436.895V110.106H435.416V108.367H434.013V110.106H432.934V111.192H434.013V115.185C434.013 116.511 434.635 117.044 436.152 117.044ZM439.218 108.875C439.688 108.875 440.082 108.488 440.082 108.018C440.082 107.542 439.688 107.155 439.218 107.155C438.742 107.155 438.355 107.542 438.355 108.018C438.355 108.488 438.742 108.875 439.218 108.875ZM438.526 117H439.897V110.106H438.526V117ZM442.392 117H443.763V111.192H445.28V110.106H443.75V109.446C443.75 108.748 444.049 108.38 444.811 108.38C445.026 108.38 445.21 108.393 445.337 108.412V107.402C445.103 107.364 444.836 107.339 444.525 107.339C443.09 107.339 442.392 108.012 442.392 109.383V110.106H441.256V111.192H442.392V117ZM447.546 108.875C448.016 108.875 448.41 108.488 448.41 108.018C448.41 107.542 448.016 107.155 447.546 107.155C447.07 107.155 446.683 107.542 446.683 108.018C446.683 108.488 447.07 108.875 447.546 108.875ZM446.854 117H448.226V110.106H446.854V117ZM453.132 117.133C454.84 117.133 455.824 116.213 456.071 114.874L456.084 114.816H454.764L454.751 114.848C454.529 115.591 453.996 115.984 453.132 115.984C451.996 115.984 451.292 115.058 451.292 113.534V113.521C451.292 112.036 451.983 111.122 453.132 111.122C454.046 111.122 454.605 111.63 454.757 112.309L454.764 112.328L456.084 112.322V112.29C455.894 110.951 454.859 109.973 453.126 109.973C451.114 109.973 449.889 111.338 449.889 113.521V113.534C449.889 115.762 451.12 117.133 453.132 117.133ZM459.537 117.114C460.451 117.114 461.175 116.721 461.581 116.022H461.689V117H463.054V112.284C463.054 110.836 462.076 109.973 460.343 109.973C458.775 109.973 457.69 110.729 457.525 111.858L457.519 111.903H458.845L458.852 111.877C459.017 111.389 459.518 111.109 460.28 111.109C461.213 111.109 461.689 111.528 461.689 112.284V112.893L459.823 113.001C458.179 113.103 457.252 113.82 457.252 115.051V115.064C457.252 116.314 458.223 117.114 459.537 117.114ZM458.623 115.007V114.994C458.623 114.372 459.055 114.029 460.007 113.972L461.689 113.864V114.455C461.689 115.343 460.934 116.016 459.905 116.016C459.163 116.016 458.623 115.642 458.623 115.007ZM467.599 117.044C467.865 117.044 468.119 117.013 468.341 116.975V115.876C468.151 115.896 468.03 115.902 467.821 115.902C467.142 115.902 466.862 115.597 466.862 114.854V111.192H468.341V110.106H466.862V108.367H465.459V110.106H464.38V111.192H465.459V115.185C465.459 116.511 466.082 117.044 467.599 117.044ZM472.766 117.133C474.53 117.133 475.482 116.118 475.711 115.21L475.724 115.153L474.397 115.159L474.372 115.21C474.207 115.565 473.68 116.003 472.797 116.003C471.661 116.003 470.938 115.235 470.912 113.915H475.8V113.433C475.8 111.363 474.619 109.973 472.696 109.973C470.772 109.973 469.528 111.414 469.528 113.566V113.572C469.528 115.756 470.747 117.133 472.766 117.133ZM472.702 111.103C473.635 111.103 474.327 111.7 474.435 112.931H470.931C471.052 111.744 471.763 111.103 472.702 111.103Z" fill="white" fill-opacity="0.6"/>
<g clip-path="url(#clip3)">
<path d="M252.93 84.7544C253.037 86.9209 254.855 88.2988 257.603 88.2988C260.508 88.2988 262.309 86.8545 262.309 84.5303C262.309 82.7124 261.288 81.6997 258.856 81.1436L257.478 80.8281C255.993 80.4795 255.387 80.0063 255.387 79.1846C255.387 78.147 256.3 77.4663 257.678 77.4663C258.989 77.4663 259.919 78.1387 260.068 79.2095H262.118C262.019 77.1592 260.201 75.7231 257.686 75.7231C255.005 75.7231 253.228 77.1675 253.228 79.3257C253.228 81.1021 254.249 82.1729 256.424 82.6709L257.976 83.0278C259.512 83.3848 260.168 83.916 260.168 84.7876C260.168 85.8086 259.147 86.5474 257.736 86.5474C256.217 86.5474 255.154 85.8501 255.021 84.7544H252.93ZM271.374 79.4253H271.498L273.939 88H275.948L279.16 76.022H276.944L274.893 85.0117H274.777L272.387 76.022H270.486L268.128 85.0117H268.004L265.953 76.022H263.721L266.933 88H268.95L271.374 79.4253ZM283.51 88V76.022H281.368V88H283.51ZM288.606 88V83.1108H293.628V81.3677H288.606V77.8232H294.101V76.022H286.465V88H288.606ZM301.597 88V77.8232H305.291V76.022H295.77V77.8232H299.455V88H301.597ZM309.665 76.022H307.524V83.8745C307.524 86.4893 309.416 88.2988 312.446 88.2988C315.476 88.2988 317.368 86.4893 317.368 83.8745V76.022H315.227V83.6836C315.227 85.3188 314.222 86.4312 312.446 86.4312C310.67 86.4312 309.665 85.3188 309.665 83.6836V76.022ZM322.457 88V76.022H320.315V88H322.457Z" fill="black"/>
<path d="M256.856 111.216C258.805 111.216 260.252 110.13 260.556 108.448H259.395C259.103 109.508 258.132 110.162 256.856 110.162C255.091 110.162 253.987 108.721 253.987 106.423C253.987 104.125 255.091 102.678 256.849 102.678C258.113 102.678 259.09 103.421 259.395 104.602H260.556C260.284 102.837 258.779 101.625 256.849 101.625C254.361 101.625 252.812 103.465 252.812 106.423C252.812 109.375 254.368 111.216 256.856 111.216ZM266.866 109.229C266.58 109.832 265.984 110.156 265.101 110.156C263.94 110.156 263.184 109.299 263.127 107.947V107.896H268.047V107.477C268.047 105.351 266.923 104.037 265.076 104.037C263.197 104.037 261.991 105.433 261.991 107.585C261.991 109.75 263.178 111.121 265.076 111.121C266.574 111.121 267.64 110.397 267.958 109.229H266.866ZM265.063 105.001C266.149 105.001 266.872 105.801 266.898 107.014H263.127C263.21 105.801 263.972 105.001 265.063 105.001ZM269.761 111H270.852V106.76C270.852 105.795 271.608 105.097 272.649 105.097C272.865 105.097 273.258 105.135 273.347 105.16V104.068C273.207 104.049 272.979 104.037 272.801 104.037C271.893 104.037 271.106 104.506 270.903 105.173H270.802V104.157H269.761V111ZM275.55 102.386V104.157H274.445V105.071H275.55V109.223C275.55 110.53 276.115 111.051 277.524 111.051C277.74 111.051 277.949 111.025 278.165 110.987V110.067C277.962 110.086 277.854 110.092 277.657 110.092C276.946 110.092 276.641 109.75 276.641 108.943V105.071H278.165V104.157H276.641V102.386H275.55ZM280.387 102.837C280.806 102.837 281.148 102.494 281.148 102.075C281.148 101.656 280.806 101.313 280.387 101.313C279.968 101.313 279.625 101.656 279.625 102.075C279.625 102.494 279.968 102.837 280.387 102.837ZM279.841 111H280.932V104.157H279.841V111ZM283.472 111H284.563V105.071H286.131V104.157H284.563V103.427C284.563 102.678 284.893 102.297 285.681 102.297C285.877 102.297 286.061 102.304 286.195 102.329V101.44C285.966 101.396 285.725 101.377 285.458 101.377C284.157 101.377 283.472 102.031 283.472 103.396V104.157H282.335V105.071H283.472V111ZM288.296 102.837C288.715 102.837 289.057 102.494 289.057 102.075C289.057 101.656 288.715 101.313 288.296 101.313C287.877 101.313 287.534 101.656 287.534 102.075C287.534 102.494 287.877 102.837 288.296 102.837ZM287.75 111H288.842V104.157H287.75V111ZM296.586 106.252C296.395 105.033 295.38 104.037 293.717 104.037C291.8 104.037 290.581 105.42 290.581 107.553C290.581 109.73 291.806 111.121 293.723 111.121C295.367 111.121 296.389 110.194 296.586 108.937H295.481C295.278 109.711 294.637 110.137 293.717 110.137C292.498 110.137 291.711 109.134 291.711 107.553C291.711 106.004 292.485 105.021 293.717 105.021C294.701 105.021 295.304 105.573 295.481 106.252H296.586ZM300.102 111.121C301.016 111.121 301.765 110.721 302.21 109.991H302.311V111H303.352V106.315C303.352 104.894 302.419 104.037 300.75 104.037C299.29 104.037 298.211 104.76 298.065 105.858H299.169C299.322 105.319 299.893 105.008 300.712 105.008C301.734 105.008 302.261 105.471 302.261 106.315V106.938L300.286 107.058C298.693 107.153 297.792 107.858 297.792 109.083C297.792 110.333 298.776 111.121 300.102 111.121ZM300.306 110.162C299.512 110.162 298.922 109.756 298.922 109.058C298.922 108.372 299.379 108.01 300.42 107.94L302.261 107.82V108.448C302.261 109.426 301.429 110.162 300.306 110.162ZM305.828 102.386V104.157H304.723V105.071H305.828V109.223C305.828 110.53 306.393 111.051 307.802 111.051C308.018 111.051 308.227 111.025 308.443 110.987V110.067C308.24 110.086 308.132 110.092 307.935 110.092C307.224 110.092 306.92 109.75 306.92 108.943V105.071H308.443V104.157H306.92V102.386H305.828ZM314.524 109.229C314.239 109.832 313.642 110.156 312.76 110.156C311.598 110.156 310.843 109.299 310.785 107.947V107.896H315.705V107.477C315.705 105.351 314.581 104.037 312.734 104.037C310.855 104.037 309.649 105.433 309.649 107.585C309.649 109.75 310.836 111.121 312.734 111.121C314.232 111.121 315.299 110.397 315.616 109.229H314.524ZM312.722 105.001C313.807 105.001 314.531 105.801 314.556 107.014H310.785C310.868 105.801 311.63 105.001 312.722 105.001Z" fill="white" fill-opacity="0.6"/>
<g clip-path="url(#clip4)">
<rect x="252" y="168" width="108" height="4" rx="2" fill="white" fill-opacity="0.2"/>
<rect x="252" y="180" width="58" height="4" rx="2" fill="white" fill-opacity="0.2"/>
<rect x="252" y="192" width="78" height="4" rx="2" fill="white" fill-opacity="0.2"/>
<g clip-path="url(#clip5)">
<rect x="252" y="204" width="58" height="4" rx="2" fill="white" fill-opacity="0.2"/>
<rect x="252" y="232" width="83" height="8" rx="4" fill="white" fill-opacity="0.4"/>
</g>
</g>
</g>
<g filter="url(#filter3_bd)">
<rect x="60" y="30" width="335" height="220" rx="30" fill="url(#paint3_radial)" fill-opacity="0.6"/>
<rect x="60.25" y="30.25" width="334.5" height="219.5" rx="29.75" stroke="white" stroke-opacity="0.3" stroke-width="0.5"/>
</g>
<path d="M250.901 66H253.267L255.508 57.9316H255.641L257.907 66H260.256L263.436 54.022H260.846L258.995 62.5801H258.862L256.637 54.022H254.521L252.337 62.5801H252.205L250.337 54.022H247.73L250.901 66ZM263.768 66H266.399L267.287 63.0947H271.512L272.4 66H275.04L270.873 54.022H267.926L263.768 66ZM269.329 56.4126H269.479L270.939 61.2188H267.86L269.329 56.4126ZM277.074 66H279.581V61.6172H281.631L283.864 66H286.703L284.179 61.2437C285.549 60.7041 286.346 59.3843 286.346 57.8486V57.832C286.346 55.4746 284.785 54.022 282.062 54.022H277.074V66ZM279.581 59.791V55.981H281.755C283.009 55.981 283.781 56.728 283.781 57.8818V57.8984C283.781 59.0771 283.042 59.791 281.789 59.791H279.581ZM288.877 66H291.384V61.6172H293.435L295.667 66H298.506L295.983 61.2437C297.353 60.7041 298.149 59.3843 298.149 57.8486V57.832C298.149 55.4746 296.589 54.022 293.866 54.022H288.877V66ZM291.384 59.791V55.981H293.559C294.812 55.981 295.584 56.728 295.584 57.8818V57.8984C295.584 59.0771 294.846 59.791 293.592 59.791H291.384ZM300.681 66H303.188V54.022H300.681V66ZM311.331 66.3071C314.867 66.3071 317.092 63.8833 317.092 60.0151V59.9985C317.092 56.1304 314.859 53.7148 311.331 53.7148C307.803 53.7148 305.562 56.1221 305.562 59.9985V60.0151C305.562 63.8833 307.77 66.3071 311.331 66.3071ZM311.331 64.1821C309.355 64.1821 308.119 62.5469 308.119 60.0151V59.9985C308.119 57.4585 309.38 55.8398 311.331 55.8398C313.273 55.8398 314.535 57.4585 314.535 59.9985V60.0151C314.535 62.5469 313.282 64.1821 311.331 64.1821ZM319.474 66H321.981V61.6172H324.031L326.264 66H329.103L326.58 61.2437C327.949 60.7041 328.746 59.3843 328.746 57.8486V57.832C328.746 55.4746 327.186 54.022 324.463 54.022H319.474V66ZM321.981 59.791V55.981H324.156C325.409 55.981 326.181 56.728 326.181 57.8818V57.8984C326.181 59.0771 325.442 59.791 324.189 59.791H321.981ZM334.938 66H337.645L340.259 61.7998H340.342L342.965 66H345.821L341.953 60.0151V59.9819L345.879 54.022H343.073L340.55 58.3384H340.45L337.91 54.022H334.955L338.74 59.9404V59.9653L334.938 66ZM349.564 66.2075C350.419 66.2075 351.025 65.585 351.025 64.7632C351.025 63.9414 350.419 63.3271 349.564 63.3271C348.718 63.3271 348.104 63.9414 348.104 64.7632C348.104 65.585 348.718 66.2075 349.564 66.2075ZM357.542 66.3071C360.505 66.3071 362.298 63.8833 362.298 60.0151V59.9985C362.298 56.1221 360.505 53.7148 357.542 53.7148C354.586 53.7148 352.785 56.1221 352.785 59.9985V60.0151C352.785 63.8833 354.586 66.3071 357.542 66.3071ZM357.542 64.3232C356.13 64.3232 355.325 62.7212 355.325 60.0151V59.9985C355.325 57.2842 356.13 55.6987 357.542 55.6987C358.961 55.6987 359.766 57.2842 359.766 59.9985V60.0151C359.766 62.7212 358.961 64.3232 357.542 64.3232Z" fill="white"/>
<path d="M251.907 89.2222C253.951 89.2222 255.442 88.0542 255.709 86.2959V86.2578H254.3L254.287 86.2832C254.027 87.3179 253.119 87.9653 251.907 87.9653C250.256 87.9653 249.228 86.6006 249.228 84.4297V84.417C249.228 82.2397 250.256 80.875 251.9 80.875C253.106 80.875 254.027 81.605 254.293 82.7285V82.7476H255.703L255.709 82.7158C255.468 80.894 253.919 79.6182 251.9 79.6182C249.355 79.6182 247.774 81.459 247.774 84.417V84.4297C247.774 87.3813 249.361 89.2222 251.907 89.2222ZM260.317 89.1333C262.082 89.1333 263.034 88.1177 263.263 87.21L263.275 87.1528L261.949 87.1592L261.923 87.21C261.758 87.5654 261.231 88.0034 260.349 88.0034C259.213 88.0034 258.489 87.2354 258.464 85.915H263.352V85.4326C263.352 83.3633 262.171 81.9731 260.248 81.9731C258.324 81.9731 257.08 83.4141 257.08 85.5659V85.5723C257.08 87.7559 258.299 89.1333 260.317 89.1333ZM260.254 83.103C261.187 83.103 261.879 83.6997 261.987 84.9312H258.483C258.604 83.7441 259.314 83.103 260.254 83.103ZM264.989 89H266.367V84.8804C266.367 83.8838 267.084 83.2363 268.138 83.2363C268.398 83.2363 268.633 83.2681 268.88 83.3188V82.0493C268.741 82.0176 268.5 81.9858 268.277 81.9858C267.357 81.9858 266.716 82.4175 266.468 83.1475H266.367V82.1064H264.989V89ZM273.152 89.0444C273.419 89.0444 273.673 89.0127 273.895 88.9746V87.8765C273.705 87.8955 273.584 87.9019 273.375 87.9019C272.695 87.9019 272.416 87.5972 272.416 86.8545V83.1919H273.895V82.1064H272.416V80.3672H271.013V82.1064H269.934V83.1919H271.013V87.1846C271.013 88.5112 271.635 89.0444 273.152 89.0444ZM276.218 80.875C276.688 80.875 277.082 80.4878 277.082 80.0181C277.082 79.542 276.688 79.1548 276.218 79.1548C275.742 79.1548 275.355 79.542 275.355 80.0181C275.355 80.4878 275.742 80.875 276.218 80.875ZM275.526 89H276.897V82.1064H275.526V89ZM279.392 89H280.763V83.1919H282.28V82.1064H280.75V81.4463C280.75 80.748 281.049 80.3799 281.811 80.3799C282.026 80.3799 282.21 80.3926 282.337 80.4116V79.4023C282.103 79.3643 281.836 79.3389 281.525 79.3389C280.09 79.3389 279.392 80.0117 279.392 81.3828V82.1064H278.256V83.1919H279.392V89ZM284.546 80.875C285.016 80.875 285.41 80.4878 285.41 80.0181C285.41 79.542 285.016 79.1548 284.546 79.1548C284.07 79.1548 283.683 79.542 283.683 80.0181C283.683 80.4878 284.07 80.875 284.546 80.875ZM283.854 89H285.226V82.1064H283.854V89ZM290.132 89.1333C291.84 89.1333 292.824 88.2129 293.071 86.8735L293.084 86.8164H291.764L291.751 86.8481C291.529 87.5908 290.996 87.9844 290.132 87.9844C288.996 87.9844 288.292 87.0576 288.292 85.5342V85.5215C288.292 84.0361 288.983 83.1221 290.132 83.1221C291.046 83.1221 291.605 83.6299 291.757 84.3091L291.764 84.3281L293.084 84.3218V84.29C292.894 82.9507 291.859 81.9731 290.126 81.9731C288.114 81.9731 286.889 83.3379 286.889 85.5215V85.5342C286.889 87.7622 288.12 89.1333 290.132 89.1333ZM296.537 89.1143C297.451 89.1143 298.175 88.7207 298.581 88.0225H298.689V89H300.054V84.2837C300.054 82.8364 299.076 81.9731 297.343 81.9731C295.775 81.9731 294.69 82.7285 294.525 83.8584L294.519 83.9028H295.845L295.852 83.8774C296.017 83.3887 296.518 83.1094 297.28 83.1094C298.213 83.1094 298.689 83.5283 298.689 84.2837V84.8931L296.823 85.001C295.179 85.1025 294.252 85.8198 294.252 87.0513V87.064C294.252 88.3145 295.223 89.1143 296.537 89.1143ZM295.623 87.0068V86.9941C295.623 86.3721 296.055 86.0293 297.007 85.9722L298.689 85.8643V86.4546C298.689 87.3433 297.934 88.0161 296.905 88.0161C296.163 88.0161 295.623 87.6416 295.623 87.0068ZM304.599 89.0444C304.865 89.0444 305.119 89.0127 305.341 88.9746V87.8765C305.151 87.8955 305.03 87.9019 304.821 87.9019C304.142 87.9019 303.862 87.5972 303.862 86.8545V83.1919H305.341V82.1064H303.862V80.3672H302.459V82.1064H301.38V83.1919H302.459V87.1846C302.459 88.5112 303.082 89.0444 304.599 89.0444ZM309.766 89.1333C311.53 89.1333 312.482 88.1177 312.711 87.21L312.724 87.1528L311.397 87.1592L311.372 87.21C311.207 87.5654 310.68 88.0034 309.797 88.0034C308.661 88.0034 307.938 87.2354 307.912 85.915H312.8V85.4326C312.8 83.3633 311.619 81.9731 309.696 81.9731C307.772 81.9731 306.528 83.4141 306.528 85.5659V85.5723C306.528 87.7559 307.747 89.1333 309.766 89.1333ZM309.702 83.103C310.635 83.103 311.327 83.6997 311.435 84.9312H307.931C308.052 83.7441 308.763 83.103 309.702 83.103Z" fill="white" fill-opacity="0.6"/>
<g clip-path="url(#clip6)">
<rect x="79.9998" y="148" width="108" height="4" rx="2" fill="white" fill-opacity="0.3"/>
<rect x="79.9998" y="160" width="58" height="4" rx="2" fill="white" fill-opacity="0.3"/>
<rect x="79.9998" y="172" width="78" height="4" rx="2" fill="white" fill-opacity="0.3"/>
<g clip-path="url(#clip7)">
<rect x="79.9998" y="184" width="58" height="4" rx="2" fill="white" fill-opacity="0.3"/>
<rect x="79.9998" y="212" width="83" height="8" rx="4" fill="white" fill-opacity="0.6"/>
</g>
</g>
<rect x="287" y="188" width="68" height="4" rx="2" fill="white" fill-opacity="0.3"/>
<rect x="287" y="200" width="38" height="4" rx="2" fill="white" fill-opacity="0.3"/>
<rect x="287" y="212" width="53" height="8" rx="4" fill="white" fill-opacity="0.6"/>
<defs>
<filter id="filter0_bd" x="415" y="60" width="388.182" height="330" filterUnits="userSpaceOnUse" color-interpolation-filters="sRGB">
<feFlood flood-opacity="0" result="BackgroundImageFix"/>
<feGaussianBlur in="BackgroundImage" stdDeviation="20"/>
<feComposite in2="SourceAlpha" operator="in" result="effect1_backgroundBlur"/>
<feColorMatrix in="SourceAlpha" type="matrix" values="0 0 0 0 0 0 0 0 0 0 0 0 0 0 0 0 0 0 127 0"/>
<feOffset dy="30"/>
<feGaussianBlur stdDeviation="30"/>
<feColorMatrix type="matrix" values="0 0 0 0 0.1525 0 0 0 0 0.301667 0 0 0 0 0.6 0 0 0 0.1 0"/>
<feBlend mode="normal" in2="effect1_backgroundBlur" result="effect2_dropShadow"/>
<feBlend mode="normal" in="SourceGraphic" in2="effect2_dropShadow" result="shape"/>
</filter>
<filter id="filter1_bd" x="330" y="30" width="415" height="350" filterUnits="userSpaceOnUse" color-interpolation-filters="sRGB">
<feFlood flood-opacity="0" result="BackgroundImageFix"/>
<feGaussianBlur in="BackgroundImage" stdDeviation="20"/>
<feComposite in2="SourceAlpha" operator="in" result="effect1_backgroundBlur"/>
<feColorMatrix in="SourceAlpha" type="matrix" values="0 0 0 0 0 0 0 0 0 0 0 0 0 0 0 0 0 0 127 0"/>
<feOffset dy="30"/>
<feGaussianBlur stdDeviation="30"/>
<feColorMatrix type="matrix" values="0 0 0 0 0.1525 0 0 0 0 0.301667 0 0 0 0 0.6 0 0 0 0.2 0"/>
<feBlend mode="normal" in2="effect1_backgroundBlur" result="effect2_dropShadow"/>
<feBlend mode="normal" in="SourceGraphic" in2="effect2_dropShadow" result="shape"/>
</filter>
<filter id="filter2_bd" x="172" y="10" width="435" height="350" filterUnits="userSpaceOnUse" color-interpolation-filters="sRGB">
<feFlood flood-opacity="0" result="BackgroundImageFix"/>
<feGaussianBlur in="BackgroundImage" stdDeviation="20"/>
<feComposite in2="SourceAlpha" operator="in" result="effect1_backgroundBlur"/>
<feColorMatrix in="SourceAlpha" type="matrix" values="0 0 0 0 0 0 0 0 0 0 0 0 0 0 0 0 0 0 127 0"/>
<feOffset dy="30"/>
<feGaussianBlur stdDeviation="30"/>
<feColorMatrix type="matrix" values="0 0 0 0 0.1525 0 0 0 0 0.301667 0 0 0 0 0.6 0 0 0 0.2 0"/>
<feBlend mode="normal" in2="effect1_backgroundBlur" result="effect2_dropShadow"/>
<feBlend mode="normal" in="SourceGraphic" in2="effect2_dropShadow" result="shape"/>
</filter>
<filter id="filter3_bd" x="0" y="-10" width="455" height="350" filterUnits="userSpaceOnUse" color-interpolation-filters="sRGB">
<feFlood flood-opacity="0" result="BackgroundImageFix"/>
<feGaussianBlur in="BackgroundImage" stdDeviation="20"/>
<feComposite in2="SourceAlpha" operator="in" result="effect1_backgroundBlur"/>
<feColorMatrix in="SourceAlpha" type="matrix" values="0 0 0 0 0 0 0 0 0 0 0 0 0 0 0 0 0 0 127 0"/>
<feOffset dy="30"/>
<feGaussianBlur stdDeviation="30"/>
<feColorMatrix type="matrix" values="0 0 0 0 0.1525 0 0 0 0 0.301667 0 0 0 0 0.6 0 0 0 0.2 0"/>
<feBlend mode="normal" in2="effect1_backgroundBlur" result="effect2_dropShadow"/>
<feBlend mode="normal" in="SourceGraphic" in2="effect2_dropShadow" result="shape"/>
</filter>
<linearGradient id="paint0_linear" x1="743" y1="100" x2="475" y2="300" gradientUnits="userSpaceOnUse">
<stop stop-color="white"/>
<stop offset="1" stop-color="white" stop-opacity="0"/>
</linearGradient>
<radialGradient id="paint1_radial" cx="0" cy="0" r="1" gradientUnits="userSpaceOnUse" gradientTransform="translate(685 290) rotate(-162.738) scale(370.697 355.657)">
<stop stop-color="#33FDF1"/>
<stop offset="1" stop-color="#C86000"/>
</radialGradient>
<radialGradient id="paint2_radial" cx="0" cy="0" r="1" gradientUnits="userSpaceOnUse" gradientTransform="translate(547 270) rotate(-163.719) scale(328.16 296.848)">
<stop stop-color="#33A8FD"/>
<stop offset="1" stop-color="#4C00C8"/>
</radialGradient>
<radialGradient id="paint3_radial" cx="0" cy="0" r="1" gradientUnits="userSpaceOnUse" gradientTransform="translate(395 250) rotate(-168.053) scale(748.206 639.981)">
<stop stop-color="#FD3F33"/>
<stop offset="0.458333" stop-color="#4C00C8"/>
<stop offset="1" stop-color="#4C00C8"/>
</radialGradient>
<clipPath id="clip0">
<rect width="108" height="170" fill="white" transform="translate(410 90)"/>
</clipPath>
<clipPath id="clip1">
<rect width="108" height="72" fill="white" transform="translate(410 188)"/>
</clipPath>
<clipPath id="clip2">
<rect width="83" height="36" fill="white" transform="translate(410 224)"/>
</clipPath>
<clipPath id="clip3">
<rect width="108" height="170" fill="white" transform="translate(252 70)"/>
</clipPath>
<clipPath id="clip4">
<rect width="108" height="72" fill="white" transform="translate(252 168)"/>
</clipPath>
<clipPath id="clip5">
<rect width="83" height="36" fill="white" transform="translate(252 204)"/>
</clipPath>
<clipPath id="clip6">
<rect width="108" height="72" fill="white" transform="translate(79.9998 148)"/>
</clipPath>
<clipPath id="clip7">
<rect width="83" height="36" fill="white" transform="translate(79.9998 184)"/>
</clipPath>
</defs>
</svg>
