<svg width="455" height="340" viewBox="0 0 455 340" fill="none" xmlns="http://www.w3.org/2000/svg">
<g filter="url(#filter0_bd)">
<rect x="60" y="30" width="335" height="220" rx="30" fill="url(#paint0_radial)" fill-opacity="0.6"/>
<rect x="60.25" y="30.25" width="334.5" height="219.5" rx="29.75" stroke="white" stroke-opacity="0.3" stroke-width="0.5"/>
</g>
<path d="M250.901 66H253.267L255.508 57.9316H255.641L257.907 66H260.256L263.436 54.022H260.846L258.995 62.5801H258.862L256.637 54.022H254.521L252.337 62.5801H252.205L250.337 54.022H247.73L250.901 66ZM263.768 66H266.399L267.287 63.0947H271.512L272.4 66H275.04L270.873 54.022H267.926L263.768 66ZM269.329 56.4126H269.479L270.939 61.2188H267.86L269.329 56.4126ZM277.074 66H279.581V61.6172H281.631L283.864 66H286.703L284.179 61.2437C285.549 60.7041 286.346 59.3843 286.346 57.8486V57.832C286.346 55.4746 284.785 54.022 282.062 54.022H277.074V66ZM279.581 59.791V55.981H281.755C283.009 55.981 283.781 56.728 283.781 57.8818V57.8984C283.781 59.0771 283.042 59.791 281.789 59.791H279.581ZM288.877 66H291.384V61.6172H293.435L295.667 66H298.506L295.983 61.2437C297.353 60.7041 298.149 59.3843 298.149 57.8486V57.832C298.149 55.4746 296.589 54.022 293.866 54.022H288.877V66ZM291.384 59.791V55.981H293.559C294.812 55.981 295.584 56.728 295.584 57.8818V57.8984C295.584 59.0771 294.846 59.791 293.592 59.791H291.384ZM300.681 66H303.188V54.022H300.681V66ZM311.331 66.3071C314.867 66.3071 317.092 63.8833 317.092 60.0151V59.9985C317.092 56.1304 314.859 53.7148 311.331 53.7148C307.803 53.7148 305.562 56.1221 305.562 59.9985V60.0151C305.562 63.8833 307.77 66.3071 311.331 66.3071ZM311.331 64.1821C309.355 64.1821 308.119 62.5469 308.119 60.0151V59.9985C308.119 57.4585 309.38 55.8398 311.331 55.8398C313.273 55.8398 314.535 57.4585 314.535 59.9985V60.0151C314.535 62.5469 313.282 64.1821 311.331 64.1821ZM319.474 66H321.981V61.6172H324.031L326.264 66H329.103L326.58 61.2437C327.949 60.7041 328.746 59.3843 328.746 57.8486V57.832C328.746 55.4746 327.186 54.022 324.463 54.022H319.474V66ZM321.981 59.791V55.981H324.156C325.409 55.981 326.181 56.728 326.181 57.8818V57.8984C326.181 59.0771 325.442 59.791 324.189 59.791H321.981ZM334.938 66H337.645L340.259 61.7998H340.342L342.965 66H345.821L341.953 60.0151V59.9819L345.879 54.022H343.073L340.55 58.3384H340.45L337.91 54.022H334.955L338.74 59.9404V59.9653L334.938 66ZM349.564 66.2075C350.419 66.2075 351.025 65.585 351.025 64.7632C351.025 63.9414 350.419 63.3271 349.564 63.3271C348.718 63.3271 348.104 63.9414 348.104 64.7632C348.104 65.585 348.718 66.2075 349.564 66.2075ZM357.542 66.3071C360.505 66.3071 362.298 63.8833 362.298 60.0151V59.9985C362.298 56.1221 360.505 53.7148 357.542 53.7148C354.586 53.7148 352.785 56.1221 352.785 59.9985V60.0151C352.785 63.8833 354.586 66.3071 357.542 66.3071ZM357.542 64.3232C356.13 64.3232 355.325 62.7212 355.325 60.0151V59.9985C355.325 57.2842 356.13 55.6987 357.542 55.6987C358.961 55.6987 359.766 57.2842 359.766 59.9985V60.0151C359.766 62.7212 358.961 64.3232 357.542 64.3232Z" fill="white"/>
<path d="M251.907 89.2222C253.951 89.2222 255.442 88.0542 255.709 86.2959V86.2578H254.3L254.287 86.2832C254.027 87.3179 253.119 87.9653 251.907 87.9653C250.256 87.9653 249.228 86.6006 249.228 84.4297V84.417C249.228 82.2397 250.256 80.875 251.9 80.875C253.106 80.875 254.027 81.605 254.293 82.7285V82.7476H255.703L255.709 82.7158C255.468 80.894 253.919 79.6182 251.9 79.6182C249.355 79.6182 247.774 81.459 247.774 84.417V84.4297C247.774 87.3813 249.361 89.2222 251.907 89.2222ZM260.317 89.1333C262.082 89.1333 263.034 88.1177 263.263 87.21L263.275 87.1528L261.949 87.1592L261.923 87.21C261.758 87.5654 261.231 88.0034 260.349 88.0034C259.213 88.0034 258.489 87.2354 258.464 85.915H263.352V85.4326C263.352 83.3633 262.171 81.9731 260.248 81.9731C258.324 81.9731 257.08 83.4141 257.08 85.5659V85.5723C257.08 87.7559 258.299 89.1333 260.317 89.1333ZM260.254 83.103C261.187 83.103 261.879 83.6997 261.987 84.9312H258.483C258.604 83.7441 259.314 83.103 260.254 83.103ZM264.989 89H266.367V84.8804C266.367 83.8838 267.084 83.2363 268.138 83.2363C268.398 83.2363 268.633 83.2681 268.88 83.3188V82.0493C268.741 82.0176 268.5 81.9858 268.277 81.9858C267.357 81.9858 266.716 82.4175 266.468 83.1475H266.367V82.1064H264.989V89ZM273.152 89.0444C273.419 89.0444 273.673 89.0127 273.895 88.9746V87.8765C273.705 87.8955 273.584 87.9019 273.375 87.9019C272.695 87.9019 272.416 87.5972 272.416 86.8545V83.1919H273.895V82.1064H272.416V80.3672H271.013V82.1064H269.934V83.1919H271.013V87.1846C271.013 88.5112 271.635 89.0444 273.152 89.0444ZM276.218 80.875C276.688 80.875 277.082 80.4878 277.082 80.0181C277.082 79.542 276.688 79.1548 276.218 79.1548C275.742 79.1548 275.355 79.542 275.355 80.0181C275.355 80.4878 275.742 80.875 276.218 80.875ZM275.526 89H276.897V82.1064H275.526V89ZM279.392 89H280.763V83.1919H282.28V82.1064H280.75V81.4463C280.75 80.748 281.049 80.3799 281.811 80.3799C282.026 80.3799 282.21 80.3926 282.337 80.4116V79.4023C282.103 79.3643 281.836 79.3389 281.525 79.3389C280.09 79.3389 279.392 80.0117 279.392 81.3828V82.1064H278.256V83.1919H279.392V89ZM284.546 80.875C285.016 80.875 285.41 80.4878 285.41 80.0181C285.41 79.542 285.016 79.1548 284.546 79.1548C284.07 79.1548 283.683 79.542 283.683 80.0181C283.683 80.4878 284.07 80.875 284.546 80.875ZM283.854 89H285.226V82.1064H283.854V89ZM290.132 89.1333C291.84 89.1333 292.824 88.2129 293.071 86.8735L293.084 86.8164H291.764L291.751 86.8481C291.529 87.5908 290.996 87.9844 290.132 87.9844C288.996 87.9844 288.292 87.0576 288.292 85.5342V85.5215C288.292 84.0361 288.983 83.1221 290.132 83.1221C291.046 83.1221 291.605 83.6299 291.757 84.3091L291.764 84.3281L293.084 84.3218V84.29C292.894 82.9507 291.859 81.9731 290.126 81.9731C288.114 81.9731 286.889 83.3379 286.889 85.5215V85.5342C286.889 87.7622 288.12 89.1333 290.132 89.1333ZM296.537 89.1143C297.451 89.1143 298.175 88.7207 298.581 88.0225H298.689V89H300.054V84.2837C300.054 82.8364 299.076 81.9731 297.343 81.9731C295.775 81.9731 294.69 82.7285 294.525 83.8584L294.519 83.9028H295.845L295.852 83.8774C296.017 83.3887 296.518 83.1094 297.28 83.1094C298.213 83.1094 298.689 83.5283 298.689 84.2837V84.8931L296.823 85.001C295.179 85.1025 294.252 85.8198 294.252 87.0513V87.064C294.252 88.3145 295.223 89.1143 296.537 89.1143ZM295.623 87.0068V86.9941C295.623 86.3721 296.055 86.0293 297.007 85.9722L298.689 85.8643V86.4546C298.689 87.3433 297.934 88.0161 296.905 88.0161C296.163 88.0161 295.623 87.6416 295.623 87.0068ZM304.599 89.0444C304.865 89.0444 305.119 89.0127 305.341 88.9746V87.8765C305.151 87.8955 305.03 87.9019 304.821 87.9019C304.142 87.9019 303.862 87.5972 303.862 86.8545V83.1919H305.341V82.1064H303.862V80.3672H302.459V82.1064H301.38V83.1919H302.459V87.1846C302.459 88.5112 303.082 89.0444 304.599 89.0444ZM309.766 89.1333C311.53 89.1333 312.482 88.1177 312.711 87.21L312.724 87.1528L311.397 87.1592L311.372 87.21C311.207 87.5654 310.68 88.0034 309.797 88.0034C308.661 88.0034 307.938 87.2354 307.912 85.915H312.8V85.4326C312.8 83.3633 311.619 81.9731 309.696 81.9731C307.772 81.9731 306.528 83.4141 306.528 85.5659V85.5723C306.528 87.7559 307.747 89.1333 309.766 89.1333ZM309.702 83.103C310.635 83.103 311.327 83.6997 311.435 84.9312H307.931C308.052 83.7441 308.763 83.103 309.702 83.103Z" fill="white" fill-opacity="0.6"/>
<g clip-path="url(#clip0)">
<rect x="79.9998" y="148" width="108" height="4" rx="2" fill="white" fill-opacity="0.3"/>
<rect x="79.9998" y="160" width="58" height="4" rx="2" fill="white" fill-opacity="0.3"/>
<rect x="79.9998" y="172" width="78" height="4" rx="2" fill="white" fill-opacity="0.3"/>
<g clip-path="url(#clip1)">
<rect x="79.9998" y="184" width="58" height="4" rx="2" fill="white" fill-opacity="0.3"/>
<rect x="79.9998" y="212" width="83" height="8" rx="4" fill="white" fill-opacity="0.6"/>
</g>
</g>
<rect x="287" y="188" width="68" height="4" rx="2" fill="white" fill-opacity="0.3"/>
<rect x="287" y="200" width="38" height="4" rx="2" fill="white" fill-opacity="0.3"/>
<rect x="287" y="212" width="53" height="8" rx="4" fill="white" fill-opacity="0.6"/>
<defs>
<filter id="filter0_bd" x="0" y="-10" width="455" height="350" filterUnits="userSpaceOnUse" color-interpolation-filters="sRGB">
<feFlood flood-opacity="0" result="BackgroundImageFix"/>
<feGaussianBlur in="BackgroundImage" stdDeviation="20"/>
<feComposite in2="SourceAlpha" operator="in" result="effect1_backgroundBlur"/>
<feColorMatrix in="SourceAlpha" type="matrix" values="0 0 0 0 0 0 0 0 0 0 0 0 0 0 0 0 0 0 127 0"/>
<feOffset dy="30"/>
<feGaussianBlur stdDeviation="30"/>
<feColorMatrix type="matrix" values="0 0 0 0 0.1525 0 0 0 0 0.301667 0 0 0 0 0.6 0 0 0 0.2 0"/>
<feBlend mode="normal" in2="effect1_backgroundBlur" result="effect2_dropShadow"/>
<feBlend mode="normal" in="SourceGraphic" in2="effect2_dropShadow" result="shape"/>
</filter>
<radialGradient id="paint0_radial" cx="0" cy="0" r="1" gradientUnits="userSpaceOnUse" gradientTransform="translate(395 250) rotate(-168.053) scale(748.206 639.981)">
<stop stop-color="#FD3F33"/>
<stop offset="0.458333" stop-color="#4C00C8"/>
<stop offset="1" stop-color="#4C00C8"/>
</radialGradient>
<clipPath id="clip0">
<rect width="108" height="72" fill="white" transform="translate(79.9998 148)"/>
</clipPath>
<clipPath id="clip1">
<rect width="83" height="36" fill="white" transform="translate(79.9998 184)"/>
</clipPath>
</defs>
</svg>
