<svg width="435" height="340" viewBox="0 0 435 340" fill="none" xmlns="http://www.w3.org/2000/svg">
<g filter="url(#filter0_bd)">
<rect x="60" y="30" width="315" height="220" rx="30" fill="url(#paint0_radial)" fill-opacity="0.2"/>
<rect x="60.25" y="30.25" width="314.5" height="219.5" rx="29.75" stroke="white" stroke-opacity="0.3" stroke-width="0.5"/>
</g>
<path d="M243.736 74.3071C246.724 74.3071 248.567 72.8047 248.567 70.4307V70.4224C248.567 68.5547 247.463 67.542 244.931 67.019L243.661 66.7617C242.25 66.4712 241.669 66.0063 241.669 65.2261V65.2178C241.669 64.3213 242.491 63.7568 243.728 63.7485C244.989 63.7485 245.819 64.3462 245.96 65.2012L245.977 65.3008H248.334L248.326 65.1929C248.168 63.1924 246.525 61.7148 243.728 61.7148C241.071 61.7148 239.162 63.1841 239.162 65.4087V65.417C239.162 67.2349 240.233 68.397 242.723 68.9033L243.985 69.1606C245.471 69.4678 246.06 69.9077 246.06 70.6963V70.7046C246.06 71.626 245.139 72.2651 243.802 72.2651C242.399 72.2651 241.428 71.6592 241.337 70.7627L241.329 70.6797H238.913L238.921 70.8125C239.062 72.9375 240.872 74.3071 243.736 74.3071ZM253.846 74H256.353V64.0889H259.947V62.022H250.252V64.0889H253.846V74ZM260.014 74H262.645L263.533 71.0947H267.758L268.646 74H271.286L267.119 62.022H264.172L260.014 74ZM265.575 64.4126H265.725L267.186 69.2188H264.106L265.575 64.4126ZM273.32 74H275.827V69.6172H277.877L280.11 74H282.949L280.425 69.2437C281.795 68.7041 282.592 67.3843 282.592 65.8486V65.832C282.592 63.4746 281.031 62.022 278.309 62.022H273.32V74ZM275.827 67.791V63.981H278.001C279.255 63.981 280.027 64.728 280.027 65.8818V65.8984C280.027 67.0771 279.288 67.791 278.035 67.791H275.827ZM288.029 74H290.536V64.0889H294.13V62.022H284.435V64.0889H288.029V74ZM301.36 74.3071C304.448 74.3071 306.374 72.5225 306.374 69.8662V62.022H303.867V69.6421C303.867 71.1943 302.97 72.1821 301.36 72.1821C299.75 72.1821 298.845 71.1943 298.845 69.6421V62.022H296.338V69.8662C296.338 72.5308 298.289 74.3071 301.36 74.3071ZM309.279 74H311.786V70.2231H314.218C316.741 70.2231 318.426 68.5962 318.426 66.1309V66.1143C318.426 63.6489 316.741 62.022 314.218 62.022H309.279V74ZM313.604 64.0059C315.04 64.0059 315.886 64.7612 315.886 66.1226V66.1392C315.886 67.5005 315.04 68.2642 313.604 68.2642H311.786V64.0059H313.604ZM324.395 74H327.101L329.715 69.7998H329.798L332.421 74H335.277L331.409 68.0151V67.9819L335.335 62.022H332.529L330.006 66.3384H329.906L327.366 62.022H324.411L328.196 67.9404V67.9653L324.395 74ZM339.021 74.2075C339.875 74.2075 340.481 73.585 340.481 72.7632C340.481 71.9414 339.875 71.3271 339.021 71.3271C338.174 71.3271 337.56 71.9414 337.56 72.7632C337.56 73.585 338.174 74.2075 339.021 74.2075ZM346.998 74.3071C349.961 74.3071 351.754 71.8833 351.754 68.0151V67.9985C351.754 64.1221 349.961 61.7148 346.998 61.7148C344.042 61.7148 342.241 64.1221 342.241 67.9985V68.0151C342.241 71.8833 344.042 74.3071 346.998 74.3071ZM346.998 72.3232C345.586 72.3232 344.781 70.7212 344.781 68.0151V67.9985C344.781 65.2842 345.586 63.6987 346.998 63.6987C348.417 63.6987 349.222 65.2842 349.222 67.9985V68.0151C349.222 70.7212 348.417 72.3232 346.998 72.3232Z" fill="white"/>
<path d="M242.907 97.2222C244.951 97.2222 246.442 96.0542 246.709 94.2959V94.2578H245.3L245.287 94.2832C245.027 95.3179 244.119 95.9653 242.907 95.9653C241.256 95.9653 240.228 94.6006 240.228 92.4297V92.417C240.228 90.2397 241.256 88.875 242.9 88.875C244.106 88.875 245.027 89.605 245.293 90.7285V90.7476H246.703L246.709 90.7158C246.468 88.894 244.919 87.6182 242.9 87.6182C240.355 87.6182 238.774 89.459 238.774 92.417V92.4297C238.774 95.3813 240.361 97.2222 242.907 97.2222ZM251.317 97.1333C253.082 97.1333 254.034 96.1177 254.263 95.21L254.275 95.1528L252.949 95.1592L252.923 95.21C252.758 95.5654 252.231 96.0034 251.349 96.0034C250.213 96.0034 249.489 95.2354 249.464 93.915H254.352V93.4326C254.352 91.3633 253.171 89.9731 251.248 89.9731C249.324 89.9731 248.08 91.4141 248.08 93.5659V93.5723C248.08 95.7559 249.299 97.1333 251.317 97.1333ZM251.254 91.103C252.187 91.103 252.879 91.6997 252.987 92.9312H249.483C249.604 91.7441 250.314 91.103 251.254 91.103ZM255.989 97H257.367V92.8804C257.367 91.8838 258.084 91.2363 259.138 91.2363C259.398 91.2363 259.633 91.2681 259.88 91.3188V90.0493C259.741 90.0176 259.5 89.9858 259.277 89.9858C258.357 89.9858 257.716 90.4175 257.468 91.1475H257.367V90.1064H255.989V97ZM264.152 97.0444C264.419 97.0444 264.673 97.0127 264.895 96.9746V95.8765C264.705 95.8955 264.584 95.9019 264.375 95.9019C263.695 95.9019 263.416 95.5972 263.416 94.8545V91.1919H264.895V90.1064H263.416V88.3672H262.013V90.1064H260.934V91.1919H262.013V95.1846C262.013 96.5112 262.635 97.0444 264.152 97.0444ZM267.218 88.875C267.688 88.875 268.082 88.4878 268.082 88.0181C268.082 87.542 267.688 87.1548 267.218 87.1548C266.742 87.1548 266.355 87.542 266.355 88.0181C266.355 88.4878 266.742 88.875 267.218 88.875ZM266.526 97H267.897V90.1064H266.526V97ZM270.392 97H271.763V91.1919H273.28V90.1064H271.75V89.4463C271.75 88.748 272.049 88.3799 272.811 88.3799C273.026 88.3799 273.21 88.3926 273.337 88.4116V87.4023C273.103 87.3643 272.836 87.3389 272.525 87.3389C271.09 87.3389 270.392 88.0117 270.392 89.3828V90.1064H269.256V91.1919H270.392V97ZM275.546 88.875C276.016 88.875 276.41 88.4878 276.41 88.0181C276.41 87.542 276.016 87.1548 275.546 87.1548C275.07 87.1548 274.683 87.542 274.683 88.0181C274.683 88.4878 275.07 88.875 275.546 88.875ZM274.854 97H276.226V90.1064H274.854V97ZM281.132 97.1333C282.84 97.1333 283.824 96.2129 284.071 94.8735L284.084 94.8164H282.764L282.751 94.8481C282.529 95.5908 281.996 95.9844 281.132 95.9844C279.996 95.9844 279.292 95.0576 279.292 93.5342V93.5215C279.292 92.0361 279.983 91.1221 281.132 91.1221C282.046 91.1221 282.605 91.6299 282.757 92.3091L282.764 92.3281L284.084 92.3218V92.29C283.894 90.9507 282.859 89.9731 281.126 89.9731C279.114 89.9731 277.889 91.3379 277.889 93.5215V93.5342C277.889 95.7622 279.12 97.1333 281.132 97.1333ZM287.537 97.1143C288.451 97.1143 289.175 96.7207 289.581 96.0225H289.689V97H291.054V92.2837C291.054 90.8364 290.076 89.9731 288.343 89.9731C286.775 89.9731 285.69 90.7285 285.525 91.8584L285.519 91.9028H286.845L286.852 91.8774C287.017 91.3887 287.518 91.1094 288.28 91.1094C289.213 91.1094 289.689 91.5283 289.689 92.2837V92.8931L287.823 93.001C286.179 93.1025 285.252 93.8198 285.252 95.0513V95.064C285.252 96.3145 286.223 97.1143 287.537 97.1143ZM286.623 95.0068V94.9941C286.623 94.3721 287.055 94.0293 288.007 93.9722L289.689 93.8643V94.4546C289.689 95.3433 288.934 96.0161 287.905 96.0161C287.163 96.0161 286.623 95.6416 286.623 95.0068ZM295.599 97.0444C295.865 97.0444 296.119 97.0127 296.341 96.9746V95.8765C296.151 95.8955 296.03 95.9019 295.821 95.9019C295.142 95.9019 294.862 95.5972 294.862 94.8545V91.1919H296.341V90.1064H294.862V88.3672H293.459V90.1064H292.38V91.1919H293.459V95.1846C293.459 96.5112 294.082 97.0444 295.599 97.0444ZM300.766 97.1333C302.53 97.1333 303.482 96.1177 303.711 95.21L303.724 95.1528L302.397 95.1592L302.372 95.21C302.207 95.5654 301.68 96.0034 300.797 96.0034C299.661 96.0034 298.938 95.2354 298.912 93.915H303.8V93.4326C303.8 91.3633 302.619 89.9731 300.696 89.9731C298.772 89.9731 297.528 91.4141 297.528 93.5659V93.5723C297.528 95.7559 298.747 97.1333 300.766 97.1333ZM300.702 91.103C301.635 91.103 302.327 91.6997 302.435 92.9312H298.931C299.052 91.7441 299.763 91.103 300.702 91.103Z" fill="white" fill-opacity="0.6"/>
<rect x="76" y="144" width="108" height="4" rx="2" fill="white" fill-opacity="0.2"/>
<rect x="76" y="156" width="58" height="4" rx="2" fill="white" fill-opacity="0.2"/>
<rect x="76" y="168" width="78" height="4" rx="2" fill="white" fill-opacity="0.2"/>
<rect x="76" y="180" width="58" height="4" rx="2" fill="white" fill-opacity="0.2"/>
<rect x="76" y="208" width="83" height="8" rx="4" fill="white" fill-opacity="0.4"/>
<defs>
<filter id="filter0_bd" x="0" y="-10" width="435" height="350" filterUnits="userSpaceOnUse" color-interpolation-filters="sRGB">
<feFlood flood-opacity="0" result="BackgroundImageFix"/>
<feGaussianBlur in="BackgroundImage" stdDeviation="20"/>
<feComposite in2="SourceAlpha" operator="in" result="effect1_backgroundBlur"/>
<feColorMatrix in="SourceAlpha" type="matrix" values="0 0 0 0 0 0 0 0 0 0 0 0 0 0 0 0 0 0 127 0"/>
<feOffset dy="30"/>
<feGaussianBlur stdDeviation="30"/>
<feColorMatrix type="matrix" values="0 0 0 0 0.1525 0 0 0 0 0.301667 0 0 0 0 0.6 0 0 0 0.2 0"/>
<feBlend mode="normal" in2="effect1_backgroundBlur" result="effect2_dropShadow"/>
<feBlend mode="normal" in="SourceGraphic" in2="effect2_dropShadow" result="shape"/>
</filter>
<radialGradient id="paint0_radial" cx="0" cy="0" r="1" gradientUnits="userSpaceOnUse" gradientTransform="translate(375 250) rotate(-163.719) scale(328.16 296.848)">
<stop stop-color="#33A8FD"/>
<stop offset="1" stop-color="#4C00C8"/>
</radialGradient>
</defs>
</svg>
