<svg width="292" height="160" viewBox="0 0 292 160" fill="none" xmlns="http://www.w3.org/2000/svg">
<path d="M226.711 62.5861C224.278 62.5861 222.023 63.307 220.16 64.592C218.896 63.158 217.16 62.1371 215.188 61.8091C215.27 61.2561 215.312 60.686 215.312 60.11C215.312 53.733 210.142 48.5591 203.765 48.5591C197.388 48.5591 192.216 53.7271 192.216 60.1041C192.216 61.0471 192.332 61.9581 192.544 62.8331C191.69 62.6321 190.799 62.5891 189.883 62.5891C183.505 62.5891 178.336 67.8921 178.336 74.2001H238.259C238.26 67.8911 233.09 62.5861 226.711 62.5861Z" fill="white"/>
<path d="M216.816 73.2001H194.501V75.2001H216.816V73.2001Z" fill="#101417"/>
<path d="M238.26 73.2001H227.041V75.2001H238.26V73.2001Z" fill="#101417"/>
<path d="M145.68 9.16101H141.742C139.76 9.16101 138.938 7.028 138.212 5.146C137.767 3.992 137.157 2.41101 136.547 2.41101C135.926 2.41101 135.345 3.847 134.878 5C134.149 6.8 133.324 8.83899 131.355 8.83899C129.388 8.83899 128.558 6.81601 127.825 5.03101C127.356 3.88701 126.772 2.46399 126.146 2.46399C125.53 2.46399 124.912 4.03302 124.46 5.17902C123.725 7.04602 122.891 9.16101 120.914 9.16101H115.68V7.16101H120.914C121.53 7.16101 122.148 5.59198 122.6 4.44598C123.335 2.57898 124.169 0.463989 126.146 0.463989C128.113 0.463989 128.943 2.48697 129.676 4.27197C130.145 5.41597 130.729 6.83899 131.355 6.83899C131.976 6.83899 132.557 5.403 133.024 4.25C133.753 2.45 134.578 0.411011 136.547 0.411011C138.529 0.411011 139.352 2.545 140.078 4.427C140.523 5.581 141.132 7.16101 141.742 7.16101H145.68V9.16101Z" fill="#101417"/>
<path d="M281.68 90.161H277.742C275.76 90.161 274.938 88.028 274.212 86.146C273.767 84.992 273.157 83.411 272.547 83.411C271.926 83.411 271.345 84.847 270.878 86C270.149 87.8 269.324 89.839 267.355 89.839C265.388 89.839 264.558 87.816 263.825 86.031C263.356 84.887 262.772 83.464 262.146 83.464C261.53 83.464 260.912 85.033 260.46 86.179C259.725 88.046 258.891 90.161 256.914 90.161H251.68V88.161H256.914C257.53 88.161 258.148 86.592 258.6 85.446C259.335 83.579 260.169 81.464 262.146 81.464C264.113 81.464 264.943 83.487 265.676 85.272C266.145 86.416 266.729 87.839 267.355 87.839C267.976 87.839 268.557 86.403 269.024 85.25C269.753 83.45 270.578 81.411 272.547 81.411C274.529 81.411 275.352 83.545 276.078 85.427C276.523 86.581 277.132 88.161 277.742 88.161H281.68V90.161Z" fill="#101417"/>
<path d="M44.6802 36.161H40.7422C38.7602 36.161 37.9382 34.028 37.2122 32.146C36.7672 30.992 36.1572 29.411 35.5472 29.411C34.9262 29.411 34.3452 30.847 33.8782 32C33.1492 33.8 32.3242 35.839 30.3552 35.839C28.3882 35.839 27.5582 33.816 26.8252 32.031C26.3562 30.887 25.7722 29.464 25.1462 29.464C24.5302 29.464 23.9122 31.033 23.4602 32.179C22.7252 34.046 21.8912 36.161 19.9142 36.161H14.6802V34.161H19.9142C20.5302 34.161 21.1482 32.592 21.6002 31.446C22.3352 29.579 23.1692 27.464 25.1462 27.464C27.1132 27.464 27.9432 29.487 28.6762 31.272C29.1452 32.416 29.7292 33.839 30.3552 33.839C30.9762 33.839 31.5572 32.403 32.0242 31.25C32.7532 29.45 33.5782 27.411 35.5472 27.411C37.5292 27.411 38.3522 29.545 39.0782 31.427C39.5232 32.581 40.1322 34.161 40.7422 34.161H44.6802V36.161Z" fill="#101417"/>
<path d="M177.43 59.2441L173.447 55.2616L172.033 56.676L176.016 60.6585L177.43 59.2441Z" fill="#101417"/>
<path d="M177.419 56.6703L176.005 55.2561L172.022 59.2392L173.436 60.6534L177.419 56.6703Z" fill="#101417"/>
<path d="M16.6106 105.39L12.627 101.407L11.213 102.822L15.1966 106.804L16.6106 105.39Z" fill="#101417"/>
<path d="M16.6002 102.814L15.186 101.4L11.2029 105.383L12.6171 106.797L16.6002 102.814Z" fill="#101417"/>
<path d="M204.945 9.44041L200.963 5.45801L199.548 6.87221L203.531 10.8546L204.945 9.44041Z" fill="#101417"/>
<path d="M204.945 6.87221L203.531 5.45801L199.548 9.44041L200.963 10.8546L204.945 6.87221Z" fill="#101417"/>
<path d="M67.6662 50.4414L63.6838 46.459L62.2696 47.8732L66.252 51.8556L67.6662 50.4414Z" fill="#101417"/>
<path d="M67.6662 47.8732L66.252 46.459L62.2696 50.4414L63.6838 51.8556L67.6662 47.8732Z" fill="#101417"/>
<path d="M147.891 27.676C145.577 27.676 143.695 25.794 143.695 23.481C143.695 21.167 145.577 19.2839 147.891 19.2839C150.205 19.2839 152.087 21.167 152.087 23.481C152.087 25.794 150.205 27.676 147.891 27.676ZM147.891 21.2839C146.68 21.2839 145.695 22.269 145.695 23.481C145.695 24.692 146.68 25.676 147.891 25.676C149.102 25.676 150.087 24.692 150.087 23.481C150.087 22.269 149.102 21.2839 147.891 21.2839Z" fill="#101417"/>
<path d="M266.68 112.413C264.366 112.413 262.484 110.53 262.484 108.216C262.484 105.903 264.366 104.021 266.68 104.021C268.994 104.021 270.876 105.903 270.876 108.216C270.876 110.53 268.994 112.413 266.68 112.413ZM266.68 106.02C265.469 106.02 264.484 107.004 264.484 108.215C264.484 109.427 265.469 110.412 266.68 110.412C267.891 110.412 268.876 109.427 268.876 108.215C268.876 107.004 267.891 106.02 266.68 106.02Z" fill="#101417"/>
<path d="M27.4931 72.155C25.1791 72.155 23.2971 70.2719 23.2971 67.9579C23.2971 65.6449 25.1791 63.7629 27.4931 63.7629C29.8071 63.7629 31.6891 65.6449 31.6891 67.9579C31.6891 70.2719 29.8071 72.155 27.4931 72.155ZM27.4931 65.762C26.2821 65.762 25.2971 66.7459 25.2971 67.9569C25.2971 69.1689 26.2821 70.1539 27.4931 70.1539C28.7041 70.1539 29.6891 69.1689 29.6891 67.9569C29.6891 66.7469 28.7041 65.762 27.4931 65.762Z" fill="#101417"/>
<path d="M123.693 19.2839H122.693V21.2839H123.693V19.2839Z" fill="#101417"/>
<path d="M118.614 21.2839H116.574V19.2839H118.614V21.2839ZM112.495 21.2839H110.455V19.2839H112.495V21.2839ZM106.375 21.2839H104.335V19.2839H106.375V21.2839Z" fill="#101417"/>
<path d="M100.257 19.2839H99.2571V21.2839H100.257V19.2839Z" fill="#101417"/>
<path d="M231.705 22.829H230.705V24.829H231.705V22.829Z" fill="#101417"/>
<path d="M226.626 24.829H224.586V22.829H226.626V24.829ZM220.507 24.829H218.467V22.829H220.507V24.829ZM214.387 24.829H212.347V22.829H214.387V24.829Z" fill="#101417"/>
<path d="M208.268 22.829H207.268V24.829H208.268V22.829Z" fill="#101417"/>
<path d="M36.688 90.2271H35.688V92.2271H36.688V90.2271Z" fill="#101417"/>
<path d="M31.6071 92.2271H29.5671V90.2271H31.6071V92.2271ZM25.4881 92.2271H23.4481V90.2271H25.4881V92.2271ZM19.3691 92.2271H17.3291V90.2271H19.3691V92.2271Z" fill="#101417"/>
<path d="M13.25 90.2271H12.25V92.2271H13.25V90.2271Z" fill="#101417"/>
<path d="M186.938 0.411011H185.938V2.41101H186.938V0.411011Z" fill="#101417"/>
<path d="M181.857 2.41101H179.817V0.411011H181.857V2.41101ZM175.738 2.41101H173.698V0.411011H175.738V2.41101ZM169.619 2.41101H167.579V0.411011H169.619V2.41101Z" fill="#101417"/>
<path d="M163.5 0.411011H162.5V2.41101H163.5V0.411011Z" fill="#101417"/>
<path d="M215.68 36.161H213.68V62.161H215.68V36.161Z" fill="#101417"/>
<path d="M214.68 49.559V36.161L235.131 41.098L214.68 49.559Z" fill="#5BEDA6"/>
<path d="M63.6802 60.161H61.6802V81.161H63.6802V60.161Z" fill="#101417"/>
<path d="M62.6801 71.27V60.27L46.1821 66.87L62.6801 71.27Z" fill="#5BEDA6"/>
<path d="M213.68 51.055V34.89L238.353 40.847L213.68 51.055ZM215.68 37.431V48.063L231.909 41.349L215.68 37.431Z" fill="#101417"/>
<path d="M63.6802 72.572L43.0142 67.06L63.6802 58.792V72.572ZM49.3492 66.679L61.6802 69.968V61.747L49.3492 66.679Z" fill="#101417"/>
<path d="M289.31 158.161H140.097L214.228 60.27L289.31 158.161Z" fill="white"/>
<path d="M122.788 158.161H2.05103L62.035 78.952L122.788 158.161Z" fill="white"/>
<path d="M291.337 159.161H138.085L214.223 58.621L291.337 159.161ZM142.108 157.161H287.282L214.232 61.92L142.108 157.161Z" fill="#101417"/>
<path d="M124.815 159.161H0.0390625L62.0301 77.303L124.815 159.161ZM4.06306 157.161H120.761L62.0401 80.601L4.06306 157.161Z" fill="#101417"/>
<path d="M229.124 158.161H47.999L137.984 28.495L229.124 158.161Z" fill="white"/>
<path d="M231.049 159.161H46.0881L137.979 26.749L138.803 27.92L231.049 159.161ZM49.9101 157.161H227.199L137.99 30.241L49.9101 157.161Z" fill="#101417"/>
<path d="M145.007 152.223H82.678V158.161H145.007V152.223Z" fill="#FFE32D"/>
<path d="M137.146 136.721H91.1011V152.223H137.146V136.721Z" fill="#FFE32D"/>
<path d="M131.763 100.661L121.896 136.721H107.054L97.188 100.661H131.763Z" fill="#C7B431"/>
<path d="M149.586 80.702V55.745H79.364V80.702C79.364 91.725 88.3 100.661 99.323 100.661H129.627C140.65 100.661 149.586 91.725 149.586 80.702Z" fill="#FFE32D"/>
<path d="M129.627 101.661H113.75V99.6611H129.627C137.508 99.6611 144.646 94.6841 147.39 87.2781L149.265 87.9731C146.232 96.1601 138.34 101.661 129.627 101.661Z" fill="#101417"/>
<path d="M105.375 101.661H99.3231C90.6101 101.661 82.7181 96.1601 79.6851 87.9731L81.5601 87.2781C84.3041 94.6841 91.4421 99.6611 99.3231 99.6611H105.375V101.661Z" fill="#101417"/>
<path d="M138.146 152.223H136.146V137.721H92.1011V152.223H90.1011V135.721H138.146V152.223Z" fill="#101417"/>
<path d="M146.007 159.161H81.678V151.223H146.007V159.161ZM83.678 157.161H144.007V153.223H83.678V157.161Z" fill="#101417"/>
<path d="M149.586 81.702H148.586V55.938H149.586C155.662 55.938 160.606 60.881 160.606 66.958V70.683C160.605 76.758 155.662 81.702 149.586 81.702ZM150.586 57.993V79.647C155.091 79.148 158.606 75.318 158.606 70.682V66.957C158.605 62.322 155.091 58.492 150.586 57.993Z" fill="#101417"/>
<path d="M80.364 81.702H79.364C73.288 81.702 68.344 76.759 68.344 70.682V66.957C68.344 60.881 73.287 55.937 79.364 55.937H80.364V81.702ZM78.364 57.993C73.859 58.492 70.344 62.322 70.344 66.958V70.683C70.344 75.319 73.859 79.149 78.364 79.648V57.993Z" fill="#101417"/>
<path d="M124.716 69.958H104.235C101.998 69.958 100.183 68.144 100.183 65.907V65.825C100.183 63.587 101.997 61.772 104.235 61.772H124.716C126.953 61.772 128.768 63.586 128.768 65.825V65.907C128.768 68.143 126.953 69.958 124.716 69.958Z" fill="white"/>
<path d="M124.68 74.161H103.68V76.161H124.68V74.161Z" fill="#101417"/>
<path d="M118.68 79.161H110.68V81.161H118.68V79.161Z" fill="#101417"/>
<path d="M176.179 157.375C196.107 157.375 212.262 141.22 212.262 121.292C212.262 101.364 196.107 85.209 176.179 85.209C156.251 85.209 140.096 101.364 140.096 121.292C140.096 141.22 156.251 157.375 176.179 157.375Z" fill="#5BEDA6"/>
<path d="M198.664 112.237H222.623C225.093 112.237 227.095 114.239 227.095 116.71C227.095 119.179 225.093 121.183 222.623 121.183H198.664C196.194 121.183 194.192 119.179 194.192 116.71C194.192 114.239 196.194 112.237 198.664 112.237Z" fill="#5BEDA6"/>
<path d="M197.313 97.4609H211.622C214.335 97.4609 216.534 99.6599 216.534 102.373C216.534 105.086 214.335 107.285 211.622 107.285H197.313C194.6 107.285 192.401 105.086 192.401 102.373C192.401 99.6609 194.601 97.4609 197.313 97.4609Z" fill="#5BEDA6"/>
<path d="M189.808 139.358H209.377C213.088 139.358 216.096 142.366 216.096 146.077C216.096 149.788 213.088 152.794 209.377 152.794H189.808C186.098 152.794 183.09 149.788 183.09 146.077C183.09 142.366 186.098 139.358 189.808 139.358Z" fill="#5BEDA6"/>
<path d="M192.895 129.147H228.394C229.995 129.147 231.292 130.61 231.292 132.417C231.292 134.222 229.994 135.687 228.394 135.687H192.895C191.293 135.687 189.997 134.222 189.997 132.417C189.996 130.61 191.293 129.147 192.895 129.147Z" fill="#5BEDA6"/>
<path d="M218.784 89.151H231.629C233.23 89.151 234.527 90.45 234.527 92.051C234.527 93.651 233.229 94.947 231.629 94.947H218.784C217.183 94.947 215.886 93.65 215.886 92.051C215.886 90.45 217.184 89.151 218.784 89.151Z" fill="#5BEDA6"/>
<path d="M202.245 120.764H219.486C218.213 120.764 217.054 121.289 216.22 122.086C215.382 122.887 214.865 123.832 214.865 125.051C214.865 127.487 216.935 129.303 219.486 129.303H202.245C203.518 129.303 204.673 128.981 205.511 128.188C206.346 127.391 206.864 126.34 206.864 125.122C206.863 122.682 204.796 120.764 202.245 120.764Z" fill="#5BEDA6"/>
<path d="M159.894 154.718L159.682 154.613L160.572 152.822L160.784 152.927L159.894 154.718ZM156.116 152.564C155.541 152.19 154.977 151.8 154.426 151.396L155.608 149.783C156.13 150.166 156.664 150.534 157.208 150.888L156.116 152.564ZM151.25 148.791C150.746 148.328 150.253 147.852 149.774 147.362L151.204 145.964C151.658 146.428 152.123 146.879 152.601 147.317L151.25 148.791ZM147.067 144.275C146.644 143.737 146.236 143.185 145.843 142.624L147.482 141.478C147.854 142.01 148.24 142.531 148.64 143.04L147.067 144.275ZM143.676 139.134C143.347 138.533 143.035 137.924 142.738 137.305L144.543 136.442C144.823 137.028 145.119 137.606 145.43 138.173L143.676 139.134ZM141.172 133.505C140.947 132.859 140.739 132.205 140.549 131.545L142.471 130.992C142.651 131.617 142.847 132.235 143.061 132.846L141.172 133.505ZM139.632 127.54C139.517 126.867 139.421 126.189 139.341 125.506L141.328 125.277C141.402 125.923 141.494 126.566 141.603 127.203L139.632 127.54ZM139.097 121.409V121.218C139.097 120.593 139.113 119.971 139.143 119.353L141.141 119.453C141.112 120.038 141.097 120.627 141.097 121.219V121.395L139.097 121.409ZM141.546 115.585L139.571 115.267C139.68 114.588 139.808 113.915 139.954 113.249L141.908 113.675C141.771 114.306 141.649 114.944 141.546 115.585ZM142.948 109.932L141.054 109.289C141.274 108.64 141.512 107.999 141.766 107.365L143.621 108.111C143.381 108.71 143.156 109.318 142.948 109.932ZM145.269 104.594L143.506 103.649C143.83 103.045 144.171 102.45 144.527 101.867L146.234 102.91C145.897 103.461 145.575 104.023 145.269 104.594ZM148.439 99.708L146.857 98.485C147.276 97.943 147.71 97.413 148.158 96.895L149.671 98.204C149.246 98.695 148.835 99.196 148.439 99.708ZM152.373 95.409L151.011 93.944C151.513 93.477 152.029 93.025 152.556 92.588L153.833 94.127C153.334 94.541 152.847 94.967 152.373 95.409ZM156.957 91.812L155.857 90.142C156.429 89.765 157.011 89.404 157.605 89.059L158.611 90.788C158.049 91.115 157.498 91.457 156.957 91.812ZM162.074 89.023L161.267 87.193C161.892 86.917 162.528 86.657 163.171 86.416L163.875 88.287C163.267 88.516 162.666 88.762 162.074 89.023ZM167.584 87.125L167.096 85.186C167.758 85.019 168.426 84.87 169.1 84.739L169.483 86.702C168.843 86.826 168.21 86.967 167.584 87.125Z" fill="#101417"/>
<path d="M176.179 158.52C170.473 158.52 164.995 157.241 159.896 154.719L160.783 152.926C165.604 155.311 170.784 156.52 176.179 156.52C182.655 156.52 188.406 155.098 193.27 152.294C193.422 152.206 193.594 152.16 193.77 152.16H209.378C212.477 152.16 215.096 149.412 215.096 146.16C215.096 142.908 212.477 140.16 209.378 140.16H207.408C207.037 140.16 206.696 139.954 206.523 139.626C206.35 139.298 206.373 138.9 206.584 138.594C207.263 137.605 207.872 136.623 208.393 135.678C208.569 135.359 208.905 135.16 209.269 135.16H228.394C229.388 135.16 230.292 133.969 230.292 132.66C230.292 131.351 229.387 130.16 228.394 130.16H218.289C215.643 130.16 213.866 127.522 213.866 125.058C213.866 123.658 214.426 122.412 215.531 121.357L215.688 121.203C216.131 120.763 216.738 120.16 217.588 120.16H222.624C224.538 120.16 226.096 118.59 226.096 116.66C226.096 114.73 224.538 113.16 222.624 113.16H211.116C210.647 113.16 210.241 112.834 210.139 112.375C209.869 111.151 209.548 110.313 209.175 109.344C208.962 108.789 208.735 108.198 208.494 107.479C208.391 107.174 208.442 106.838 208.63 106.577C208.818 106.316 209.12 106.161 209.442 106.161H211.623C213.744 106.161 215.535 104.329 215.535 102.161C215.535 99.9931 213.743 98.1611 211.623 98.1611H203.262C202.987 98.1611 202.724 98.0481 202.535 97.8481C195.458 90.3571 185.852 86.0601 176.18 86.0601C173.926 86.0601 171.673 86.2761 169.483 86.7021L169.101 84.7391C171.416 84.2891 173.798 84.0601 176.18 84.0601C186.264 84.0601 196.266 88.465 203.69 96.162H211.624C214.884 96.162 217.536 98.853 217.536 102.162C217.536 105.471 214.884 108.162 211.624 108.162H210.866C210.927 108.322 210.986 108.476 211.044 108.628C211.351 109.427 211.644 110.191 211.903 111.162H222.625C225.642 111.162 228.097 113.63 228.097 116.662C228.097 119.694 225.642 122.162 222.625 122.162H217.589C217.528 122.197 217.249 122.475 217.098 122.624L216.914 122.805C216.2 123.488 215.867 124.204 215.867 125.061C215.867 126.525 216.903 128.163 218.29 128.163H228.395C230.508 128.163 232.293 130.224 232.293 132.663C232.293 135.102 230.508 137.163 228.395 137.163H209.854C209.664 137.493 209.465 137.827 209.257 138.163H209.379C213.563 138.163 217.097 141.826 217.097 146.163C217.097 150.5 213.563 154.163 209.379 154.163H194.036C188.913 157.053 182.907 158.52 176.179 158.52Z" fill="#101417"/>
<path d="M231.629 96.1611H218.784C216.671 96.1611 214.886 94.3291 214.886 92.1611C214.886 89.9931 216.671 88.1611 218.784 88.1611H231.629C233.742 88.1611 235.527 89.9931 235.527 92.1611C235.527 94.3291 233.742 96.1611 231.629 96.1611ZM218.784 90.1611C217.755 90.1611 216.886 91.0771 216.886 92.1611C216.886 93.2451 217.755 94.1611 218.784 94.1611H231.629C232.658 94.1611 233.527 93.2451 233.527 92.1611C233.527 91.0771 232.658 90.1611 231.629 90.1611H218.784Z" fill="#101417"/>
<path d="M176.179 149.581C191.803 149.581 204.468 136.916 204.468 121.292C204.468 105.668 191.803 93.0029 176.179 93.0029C160.556 93.0029 147.89 105.668 147.89 121.292C147.89 136.916 160.556 149.581 176.179 149.581Z" fill="#EAF5FE"/>
<path d="M176.179 140.428C186.748 140.428 195.315 131.861 195.315 121.292C195.315 110.723 186.748 102.156 176.179 102.156C165.611 102.156 157.043 110.723 157.043 121.292C157.043 131.861 165.611 140.428 176.179 140.428Z" fill="#5BEDA6"/>
<path d="M176.179 131.668C181.91 131.668 186.555 127.022 186.555 121.292C186.555 115.561 181.91 110.916 176.179 110.916C170.449 110.916 165.803 115.561 165.803 121.292C165.803 127.022 170.449 131.668 176.179 131.668Z" fill="#EAF5FE"/>
<path d="M176.242 129.776C174.658 129.776 173.369 128.479 173.369 126.885V122.394C171.864 121.432 170.953 119.812 170.953 118.032C170.953 115.152 173.278 112.809 176.137 112.809C179.042 112.809 181.405 115.152 181.405 118.032C181.405 119.716 180.523 121.355 179.116 122.358V126.885C179.115 128.479 177.826 129.776 176.242 129.776ZM176.137 114.809C174.382 114.809 172.953 116.254 172.953 118.032C172.953 119.252 173.663 120.355 174.806 120.91C175.15 121.077 175.369 121.427 175.369 121.809V126.885C175.369 127.376 175.761 127.776 176.242 127.776C176.723 127.776 177.115 127.377 177.115 126.885V121.809C177.115 121.446 177.312 121.111 177.63 120.935C178.513 120.445 179.404 119.357 179.404 118.032C179.404 116.254 177.938 114.809 176.137 114.809Z" fill="#101417"/>
<path d="M229.623 107.286C224.28 107.286 219.835 111.161 218.928 116.161H180.01C178.954 116.161 178.098 117.106 178.098 118.161C178.098 119.218 178.954 120.161 180.01 120.161H182.68V126.864C182.68 127.921 183.624 128.776 184.68 128.776C185.736 128.776 186.68 127.921 186.68 126.864V120.161H190.68V126.864C190.68 127.921 191.624 128.776 192.68 128.776C193.736 128.776 194.68 127.921 194.68 126.864V120.161H218.928C219.835 125.161 224.281 129.124 229.623 129.124C235.619 129.124 240.498 124.202 240.498 118.206C240.498 112.21 235.619 107.286 229.623 107.286ZM229.623 125.124C225.832 125.124 222.748 122.04 222.748 118.249C222.748 114.458 225.832 111.374 229.623 111.374C233.414 111.374 236.498 114.458 236.498 118.249C236.498 122.04 233.414 125.124 229.623 125.124Z" fill="#FFE32D"/>
<path d="M232.68 140.161H222.68V142.161H232.68V140.161Z" fill="#101417"/>
<path d="M227.68 102.161H221.68V104.161H227.68V102.161Z" fill="#101417"/>
<path d="M241.68 134.161H236.68V136.161H241.68V134.161Z" fill="#101417"/>
<path d="M211.68 92.1611H203.68V94.1611H211.68V92.1611Z" fill="#101417"/>
<path d="M181.427 42.861C188.956 42.861 195.059 36.7577 195.059 29.2289C195.059 21.7002 188.956 15.5969 181.427 15.5969C173.898 15.5969 167.795 21.7002 167.795 29.2289C167.795 36.7577 173.898 42.861 181.427 42.861Z" fill="#FFE32D"/>
<path d="M94.159 27.625C92.246 27.625 90.471 28.191 89.007 29.203C88.013 28.074 86.648 27.271 85.097 27.014C85.161 26.58 85.195 26.131 85.195 25.678C85.195 20.662 81.13 16.594 76.114 16.594C71.098 16.594 67.031 20.658 67.031 25.674C67.031 26.414 67.123 27.131 67.29 27.819C66.618 27.661 65.917 27.626 65.196 27.626C60.18 27.626 56.115 31.798 56.115 36.759H103.243C103.242 31.797 99.176 27.625 94.159 27.625Z" fill="white"/>
<path d="M86.3769 35.76H68.8259V37.76H86.3769V35.76Z" fill="#101417"/>
<path d="M103.242 35.76H94.418V37.76H103.242V35.76Z" fill="#101417"/>
<path d="M181.405 47.766L181.047 47.763L181.081 45.763L181.405 45.766C181.927 45.766 182.455 45.742 182.972 45.693L183.187 47.681L183.149 47.684C182.581 47.739 181.99 47.766 181.405 47.766ZM176.78 47.178C176.083 46.998 175.392 46.776 174.726 46.516L175.453 44.653C176.045 44.883 176.66 45.082 177.281 45.243L176.78 47.178ZM187.401 46.78L186.758 44.885C187.36 44.681 187.959 44.438 188.538 44.162L189.397 45.969C188.749 46.278 188.077 46.55 187.401 46.78ZM170.925 44.504C170.335 44.098 169.763 43.652 169.224 43.182L170.541 41.676C171.021 42.097 171.532 42.494 172.059 42.856L170.925 44.504ZM193.039 43.681L191.785 42.122C192.282 41.723 192.761 41.288 193.209 40.832L194.636 42.234C194.134 42.746 193.596 43.233 193.039 43.681ZM166.335 39.997C165.918 39.415 165.532 38.802 165.187 38.175L166.938 37.209C167.247 37.769 167.591 38.315 167.962 38.835L166.335 39.997ZM197.278 38.841L195.569 37.802C195.9 37.257 196.203 36.686 196.47 36.104L198.288 36.938C197.989 37.59 197.649 38.23 197.278 38.841ZM163.563 34.19C163.373 33.5 163.22 32.792 163.111 32.083L165.088 31.778C165.186 32.41 165.321 33.042 165.491 33.657L163.563 34.19ZM199.613 32.842L197.651 32.451C197.776 31.826 197.864 31.185 197.914 30.55L199.908 30.706C199.852 31.421 199.752 32.139 199.613 32.842ZM164.938 27.94L162.944 27.786C162.999 27.071 163.097 26.353 163.235 25.651L165.198 26.036C165.075 26.662 164.988 27.302 164.938 27.94ZM197.772 26.712C197.675 26.077 197.54 25.445 197.372 24.832L199.301 24.303C199.49 24.99 199.641 25.699 199.749 26.409L197.772 26.712ZM166.371 22.383L164.552 21.553C164.847 20.905 165.186 20.264 165.558 19.648L167.27 20.683C166.937 21.233 166.635 21.805 166.371 22.383ZM195.931 21.278C195.624 20.718 195.281 20.172 194.91 19.651L196.54 18.491C196.955 19.075 197.34 19.688 197.684 20.315L195.931 21.278ZM169.622 17.65L168.194 16.25C168.697 15.736 169.234 15.249 169.788 14.802L171.045 16.359C170.55 16.756 170.071 17.192 169.622 17.65ZM192.337 16.803C191.856 16.38 191.346 15.983 190.821 15.619L191.958 13.974C192.546 14.38 193.117 14.826 193.656 15.298L192.337 16.803ZM174.288 14.308L173.424 12.505C174.07 12.194 174.742 11.92 175.42 11.69L176.066 13.583C175.461 13.789 174.863 14.033 174.288 14.308ZM187.433 13.818C186.836 13.585 186.221 13.385 185.604 13.224L186.11 11.288C186.801 11.469 187.491 11.693 188.16 11.954L187.433 13.818ZM179.881 12.765L179.72 11.777L179.658 10.779C180.272 10.719 180.863 10.692 181.448 10.692L181.847 10.696L181.8 12.696L181.447 12.692C180.926 12.692 180.398 12.716 179.881 12.765Z" fill="#101417"/>
</svg>
