<svg width="299" height="186" viewBox="0 0 299 186" fill="none" xmlns="http://www.w3.org/2000/svg">
<path d="M178.226 86.145C178.226 70.837 165.817 58.429 150.509 58.429C135.201 58.429 122.792 70.838 122.792 86.146V89.841C122.792 105.149 135.201 117.557 150.508 117.557C165.816 117.557 178.226 105.148 178.226 89.84V86.145Z" fill="white"/>
<path d="M166.662 63.813C170.045 68.408 172.006 74.083 172.006 80.226V83.921C172.006 99.23 159.748 111.639 144.44 111.639C138.297 111.639 132.699 109.636 128.103 106.253C133.149 113.107 141.198 117.556 150.362 117.556C165.67 117.556 178.007 105.147 178.007 89.839V86.144C178.006 76.981 173.516 68.859 166.662 63.813Z" fill="#E9E9E9"/>
<path d="M194.662 185.29V148.787C194.662 130.886 182.035 119.232 164.127 119.232H135.477C117.569 119.232 108.205 130.885 108.205 148.787V185.29H194.662Z" fill="#5BEDA6"/>
<path d="M151.844 145.404C151.494 145.404 151.17 145.221 150.989 144.923L135.814 119.895L137.524 118.858L151.831 142.454L165.906 118.514L167.63 119.528L152.706 144.912C152.528 145.215 152.203 145.403 151.851 145.405C151.848 145.404 151.846 145.404 151.844 145.404Z" fill="#101417"/>
<path d="M150.379 152.509L149.342 150.799L151.052 149.763L152.089 151.473L150.379 152.509ZM154.138 151.213L152.414 150.199L153.428 148.475L155.152 149.489L154.138 151.213ZM147.269 147.379L146.232 145.669L147.942 144.632L148.979 146.342L147.269 147.379ZM157.179 146.041L155.455 145.027L156.469 143.303L158.193 144.317L157.179 146.041ZM144.158 142.249L143.121 140.539L144.831 139.502L145.868 141.212L144.158 142.249ZM160.22 140.868L158.496 139.854L159.51 138.13L161.234 139.144L160.22 140.868ZM141.047 137.118L140.01 135.408L141.72 134.371L142.757 136.081L141.047 137.118ZM163.261 135.696L161.537 134.682L162.551 132.958L164.275 133.972L163.261 135.696ZM137.937 131.987L136.9 130.277L138.61 129.241L139.647 130.951L137.937 131.987ZM166.301 130.523L164.577 129.509L165.591 127.785L167.315 128.799L166.301 130.523ZM134.826 126.856L133.789 125.146L135.499 124.109L136.536 125.819L134.826 126.856ZM169.342 125.351L167.618 124.337L168.632 122.613L170.356 123.627L169.342 125.351ZM131.715 121.726L130.678 120.016L132.388 118.979L133.425 120.689L131.715 121.726ZM172.384 120.179L170.659 119.165L171.042 118.514L172.767 119.528L172.384 120.179Z" fill="#101417"/>
<path d="M152.719 153.068H150.719V166.003H152.719V153.068Z" fill="#101417"/>
<path d="M152.719 175.241H150.719V185.29H152.719V175.241Z" fill="#101417"/>
<path d="M150.508 118.557C134.674 118.557 121.792 105.675 121.792 89.841V86.146C121.792 70.312 134.674 57.429 150.509 57.429C166.344 57.429 179.226 70.311 179.226 86.145V89.84C179.226 105.674 166.343 118.557 150.508 118.557ZM150.509 59.429C135.777 59.429 123.792 71.4139 123.792 86.146V89.841C123.792 104.572 135.777 116.557 150.508 116.557C165.24 116.557 177.226 104.572 177.226 89.84V86.145C177.226 71.414 165.241 59.429 150.509 59.429Z" fill="#101417"/>
<path d="M176.514 165.427H174.514V185.29H176.514V165.427Z" fill="#101417"/>
<path d="M208.301 116.407C202.787 116.407 198.301 111.921 198.301 106.407V101.573C198.301 97.07 194.637 93.407 190.134 93.407H161.468C155.862 93.407 151.301 88.846 151.301 83.24V79.407H153.301V83.24C153.301 87.743 156.965 91.407 161.468 91.407H190.134C195.74 91.407 200.301 95.968 200.301 101.573V106.407C200.301 110.818 203.89 114.407 208.301 114.407C212.712 114.407 216.301 110.818 216.301 106.407V87.992H218.301V106.407C218.301 111.921 213.815 116.407 208.301 116.407Z" fill="#101417"/>
<path d="M189.301 49.407V31.407H181.554C181.471 28.407 179.684 25.844 179.553 25.594L186.817 17.838L174.223 4.99699L166.543 12.136C166.295 12.005 163.301 10.097 161.301 10.012V1.40698H143.301V10.012C143.301 10.097 139.234 11.882 138.988 12.013L131.981 4.74998L119.514 17.345L126.838 25.594C126.709 25.844 124.987 28.407 124.902 31.407H113.3V49.407H124.902C124.987 49.407 126.771 52.907 126.902 53.151L119.64 59.873L134.227 59.77C128.953 54.877 125.644 47.834 125.3 40.157C124.659 25.845 137.939 13.657 151.8 13.657C166.656 13.657 177.657 25.799 178.3 40.157C178.638 47.689 175.114 54.633 169.684 59.521L186.645 59.402L179.466 53.186C179.598 52.942 181.47 49.407 181.553 49.407H189.301Z" fill="white"/>
<path d="M175.103 39.887C175.103 27.045 164.811 16.636 151.97 16.636C139.128 16.636 128.947 27.045 128.947 39.887C128.947 49.866 135.301 58.352 144.301 61.65V69.408H160.301V61.446C169.301 58.002 175.103 49.655 175.103 39.887Z" fill="#FFE32D"/>
<path d="M151.301 62.407V56.76L146.71 55.078C140.171 52.682 135.946 46.719 135.946 39.887C135.946 30.775 142.984 23.635 151.969 23.635C160.865 23.635 168.102 30.926 168.102 39.887C168.102 46.721 164.155 52.477 157.799 54.908L153.3 56.628V62.408H151.301V62.407Z" fill="#C7B431"/>
<path d="M160.301 70.407H144.301C143.749 70.407 143.301 69.959 143.301 69.407V62.337C134.088 58.659 127.947 49.724 127.947 39.886C127.947 26.514 138.724 15.635 151.97 15.635C165.277 15.635 176.103 26.514 176.103 39.886C176.103 49.728 170.317 58.382 161.301 62.122V69.406C161.301 69.959 160.853 70.407 160.301 70.407ZM145.301 68.407H159.301V61.445C159.301 61.03 159.556 60.659 159.944 60.511C168.546 57.22 174.103 49.125 174.103 39.886C174.103 27.617 164.174 17.635 151.97 17.635C139.826 17.635 129.947 27.617 129.947 39.886C129.947 49.12 135.854 57.488 144.646 60.71C145.04 60.855 145.302 61.23 145.302 61.649V68.407H145.301Z" fill="#101417"/>
<path d="M153.301 38.407H151.301V69.407H153.301V38.407Z" fill="#101417"/>
<path d="M152.6 38.888C154.792 38.888 156.569 37.111 156.569 34.919C156.569 32.7269 154.792 30.95 152.6 30.95C150.408 30.95 148.631 32.7269 148.631 34.919C148.631 37.111 150.408 38.888 152.6 38.888Z" fill="white"/>
<path d="M162.926 68.407H140.676V70.407H162.926V68.407Z" fill="#101417"/>
<path d="M162.926 71.74H140.676V73.74H162.926V71.74Z" fill="#101417"/>
<path d="M162.926 75.073H140.676V77.073H162.926V75.073Z" fill="#101417"/>
<path d="M162.926 78.407H140.676V80.407H162.926V78.407Z" fill="#101417"/>
<path d="M187.308 58.6377L186.552 57.9827L185.242 59.4939L185.998 60.1489L187.308 58.6377Z" fill="#101417"/>
<path d="M184.276 56.0126L183.143 55.0314L181.834 56.5432L182.967 57.5244L184.276 56.0126Z" fill="#101417"/>
<path d="M179.57 54.597L178.202 53.4149L179.058 51.83L180.821 52.7749L180.726 52.953L180.877 53.084L179.57 54.597Z" fill="#101417"/>
<path d="M184.277 48.407H182.264V50.407H184.277V48.407Z" fill="#101417"/>
<path d="M190.301 48.407H188.301V50.407H190.301V48.407Z" fill="#101417"/>
<path d="M190.301 44.407H188.301V42.407H190.301V44.407ZM190.301 38.407H188.301V36.407H190.301V38.407Z" fill="#101417"/>
<path d="M190.301 30.407H188.301V32.407H190.301V30.407Z" fill="#101417"/>
<path d="M186.002 30.407H184.853V32.407H186.002V30.407Z" fill="#101417"/>
<path d="M182.554 32.407H180.579L180.554 31.433C180.546 31.135 180.518 30.842 180.476 30.556L182.455 30.265C182.462 30.312 182.469 30.36 182.475 30.408H182.554V32.407Z" fill="#101417"/>
<path d="M179.186 26.938C179.019 26.637 178.878 26.409 178.792 26.269C178.729 26.167 178.687 26.096 178.668 26.06L178.337 25.43L179.509 24.182L180.967 25.55L180.8 25.729C180.843 25.804 180.889 25.884 180.936 25.97L179.186 26.938Z" fill="#101417"/>
<path d="M184.505 21.7599L183.045 20.3929L181.866 21.652L183.326 23.019L184.505 21.7599Z" fill="#101417"/>
<path d="M186.862 19.252L185.403 17.885L185.431 17.854L185.402 17.825L186.83 16.425L188.202 17.823L186.862 19.252Z" fill="#101417"/>
<path d="M182.604 14.972L181.205 13.545L182.633 12.145L184.032 13.572L182.604 14.972ZM178.407 10.692L177.008 9.26499L178.436 7.86499L179.835 9.29199L178.407 10.692Z" fill="#101417"/>
<path d="M174.209 6.41203L174.19 6.39303L174.171 6.41103L172.81 4.94603L174.255 3.60303L175.637 5.01203L174.209 6.41203Z" fill="#101417"/>
<path d="M171.698 8.72318L170.336 7.25818L169.093 8.4135L170.454 9.8785L171.698 8.72318Z" fill="#101417"/>
<path d="M166.708 13.349L166.083 13.024C166.047 13.006 165.968 12.96 165.852 12.891C165.703 12.803 165.475 12.668 165.192 12.509L166.169 10.764C166.253 10.811 166.333 10.856 166.408 10.899L166.597 10.724L167.958 12.189L166.708 13.349Z" fill="#101417"/>
<path d="M162.043 11.1399C161.749 11.0649 161.484 11.0219 161.257 11.0119L160.301 10.9699V9.01294H162.301V9.14594C162.379 9.16394 162.458 9.18194 162.537 9.20194L162.043 11.1399Z" fill="#101417"/>
<path d="M162.301 5.04895H160.301V6.36995H162.301V5.04895Z" fill="#101417"/>
<path d="M162.301 0.406982H160.301V2.40698H162.301V0.406982Z" fill="#101417"/>
<path d="M156.301 2.40698H154.301V0.406982H156.301V2.40698ZM150.301 2.40698H148.301V0.406982H150.301V2.40698Z" fill="#101417"/>
<path d="M144.301 0.406982H142.301V2.40698H144.301V0.406982Z" fill="#101417"/>
<path d="M144.301 6.95203H142.301V9.22402H144.301V6.95203Z" fill="#101417"/>
<path d="M138.792 13.231L137.573 11.988L139.012 10.599L139.214 10.808C139.3 10.769 139.391 10.728 139.487 10.685L140.305 12.51C139.868 12.706 139.537 12.854 139.449 12.899L138.792 13.231Z" fill="#101417"/>
<path d="M136.772 8.27193L135.648 7.10657L134.208 8.49497L135.332 9.66033L136.772 8.27193Z" fill="#101417"/>
<path d="M131.987 6.16595L131.97 6.14895L131.954 6.16495L130.566 4.75795L131.99 3.31995L133.394 4.77695L131.987 6.16595Z" fill="#101417"/>
<path d="M123.693 14.545L122.271 13.138L123.653 11.741L125.075 13.148L123.693 14.545ZM127.84 10.355L126.418 8.948L127.8 7.552L129.222 8.959L127.84 10.355Z" fill="#101417"/>
<path d="M119.429 18.756L118.144 17.309L119.506 15.932L120.928 17.338L120.884 17.383L120.925 17.429L119.429 18.756Z" fill="#101417"/>
<path d="M124.526 21.4919L123.327 20.1414L121.832 21.4694L123.031 22.8199L124.526 21.4919Z" fill="#101417"/>
<path d="M127.227 26.93L125.461 25.99C125.513 25.892 125.563 25.802 125.61 25.718L125.426 25.511L126.922 24.183L128.042 25.445L127.726 26.055C127.708 26.089 127.671 26.154 127.616 26.245C127.532 26.385 127.392 26.619 127.227 26.93Z" fill="#101417"/>
<path d="M125.874 32.407H123.902V30.407H123.98C123.986 30.36 123.992 30.314 123.999 30.267L125.978 30.552C125.936 30.84 125.91 31.135 125.901 31.435L125.874 32.407Z" fill="#101417"/>
<path d="M120.061 30.407H118.141V32.407H120.061V30.407Z" fill="#101417"/>
<path d="M114.301 30.407H112.301V32.407H114.301V30.407Z" fill="#101417"/>
<path d="M114.301 44.407H112.301V42.407H114.301V44.407ZM114.301 38.407H112.301V36.407H114.301V38.407Z" fill="#101417"/>
<path d="M114.301 48.407H112.301V50.407H114.301V48.407Z" fill="#101417"/>
<path d="M124.687 50.407H122.956V48.407H124.687V50.407ZM119.494 50.407H117.763V48.407H119.494V50.407Z" fill="#101417"/>
<path d="M126.847 54.565L125.489 53.097L125.665 52.934C125.658 52.921 125.651 52.908 125.645 52.895L125.554 52.718L127.332 51.803L127.423 51.98C127.611 52.347 127.749 52.615 127.782 52.676L128.151 53.359L126.847 54.565Z" fill="#101417"/>
<path d="M124.527 56.7012L123.169 55.2334L122.01 56.3059L123.369 57.7737L124.527 56.7012Z" fill="#101417"/>
<path d="M121.047 59.9264L119.69 58.4576L118.956 59.1363L120.313 60.6051L121.047 59.9264Z" fill="#101417"/>
<path d="M211.347 82.5349C211.347 82.5349 211.26 82.3589 211.131 82.0959C210.992 81.8189 210.842 81.4609 210.688 81.1029C210.388 80.3829 210.123 79.6539 210.123 79.6539L211.986 78.9829C211.986 78.9829 212.239 79.6619 212.519 80.3249C212.664 80.6539 212.807 80.9869 212.921 81.2119C213.026 81.4399 213.12 81.6119 213.12 81.6119L211.347 82.5349Z" fill="#101417"/>
<path d="M208.823 74.618C208.823 74.618 208.725 73.874 208.629 73.129C208.574 72.335 208.52 71.541 208.52 71.541L210.445 71.47C210.445 71.47 210.497 72.172 210.549 72.874C210.651 73.616 210.752 74.358 210.752 74.358L208.823 74.618Z" fill="#101417"/>
<path d="M208.986 66.3129C208.986 66.3129 209.031 66.1309 209.098 65.8579C209.156 65.5959 209.282 65.1889 209.393 64.8059C209.633 64.0509 209.936 63.3199 209.936 63.3199L211.666 64.0349C211.666 64.0349 211.4 64.6909 211.189 65.3679C211.095 65.7069 210.997 66.0149 210.934 66.3039C210.869 66.5769 210.825 66.7599 210.825 66.7599L208.986 66.3129Z" fill="#101417"/>
<path d="M212.673 58.7939C212.673 58.7939 213.174 58.2339 213.674 57.6739C214.251 57.1169 214.828 56.5609 214.828 56.5609L216.043 57.9159C216.043 57.9159 215.542 58.4019 215.042 58.8889C214.547 59.4509 214.052 60.0119 214.052 60.0119L212.673 58.7939Z" fill="#101417"/>
<path d="M219.067 53.5489C219.067 53.5489 219.728 53.1939 220.39 52.8389C221.094 52.5019 221.798 52.1649 221.798 52.1649L222.527 53.7729C222.527 53.7729 221.881 54.0859 221.234 54.3999C220.577 54.7589 219.919 55.1179 219.919 55.1179L219.067 53.5489Z" fill="#101417"/>
<path d="M226.603 50.3759C226.603 50.3759 227.324 50.1709 228.045 49.9659C228.799 49.7819 229.553 49.5989 229.553 49.5989L229.928 51.2739C229.928 51.2739 229.225 51.4499 228.522 51.6239C227.801 51.8339 227.081 52.0429 227.081 52.0429L226.603 50.3759Z" fill="#101417"/>
<path d="M234.65 48.8689C234.65 48.8689 235.399 48.8419 236.149 48.8149C236.932 48.8279 237.716 48.8399 237.716 48.8399L237.645 50.5109C237.645 50.5109 236.929 50.5019 236.213 50.4929C235.464 50.5239 234.715 50.5559 234.715 50.5559L234.65 48.8689Z" fill="#101417"/>
<path d="M242.846 49.584C242.846 49.584 243.568 49.789 244.288 49.994C245.032 50.256 245.776 50.517 245.776 50.517L245.189 52.036C245.189 52.036 244.517 51.803 243.845 51.568C243.122 51.368 242.4 51.167 242.4 51.167L242.846 49.584Z" fill="#101417"/>
<path d="M250.38 52.8989C250.38 52.8989 250.994 53.3299 251.609 53.7589C252.224 54.2449 252.84 54.7319 252.84 54.7319L251.825 55.9479C251.825 55.9479 251.262 55.5069 250.699 55.0659C250.083 54.6389 249.466 54.2119 249.466 54.2119L250.38 52.8989Z" fill="#101417"/>
<path d="M256.47 58.386C256.47 58.386 256.937 58.973 257.405 59.56C257.86 60.189 258.316 60.818 258.316 60.818L257.052 61.695C257.052 61.695 256.624 61.111 256.198 60.527C255.727 59.943 255.257 59.359 255.257 59.359L256.47 58.386Z" fill="#101417"/>
<path d="M260.918 65.2179C260.918 65.2179 261.244 65.8929 261.57 66.5689C261.881 67.2739 262.191 67.9779 262.191 67.9779L260.814 68.5589C260.814 68.5589 260.517 67.8929 260.219 67.2259C259.89 66.5519 259.56 65.8789 259.56 65.8789L260.918 65.2179Z" fill="#101417"/>
<path d="M263.9 72.781L264.673 75.679L263.274 76.057L262.485 73.163L263.9 72.781Z" fill="#101417"/>
<path d="M265.618 80.6919L265.967 83.6719L264.572 83.8399L264.207 80.8609L265.618 80.6919Z" fill="#101417"/>
<path d="M266.223 88.756L266.181 91.755L264.821 91.739L264.846 88.74L266.223 88.756Z" fill="#101417"/>
<path d="M265.789 96.823L265.37 99.794L264.067 99.614L264.47 96.641L265.789 96.823Z" fill="#101417"/>
<path d="M264.338 104.771L263.538 107.663L262.313 107.327L263.097 104.432L264.338 104.771Z" fill="#101417"/>
<path d="M261.849 112.46L260.651 115.211L259.526 114.726L260.707 111.968L261.849 112.46Z" fill="#101417"/>
<path d="M258.271 119.714L256.663 122.245L255.664 121.613L257.26 119.073L258.271 119.714Z" fill="#101417"/>
<path d="M253.575 126.292C253.575 126.292 253.078 126.855 252.582 127.416C252.055 127.971 251.529 128.525 251.529 128.525L250.716 127.731C250.716 127.731 251.219 127.195 251.722 126.659C252.216 126.095 252.71 125.53 252.71 125.53L253.575 126.292Z" fill="#101417"/>
<path d="M247.762 131.927C247.762 131.927 247.167 132.384 246.573 132.841C245.95 133.284 245.326 133.728 245.326 133.728L244.708 132.829C244.708 132.829 245.304 132.399 245.9 131.971C246.492 131.511 247.084 131.051 247.084 131.051L247.762 131.927Z" fill="#101417"/>
<path d="M240.962 136.324C240.962 136.324 240.286 136.649 239.61 136.975C239.436 137.058 239.262 137.142 239.099 137.219C238.938 137.29 238.788 137.358 238.66 137.414C238.403 137.528 238.232 137.605 238.232 137.605L237.803 136.65C237.803 136.65 237.974 136.573 238.23 136.457C238.358 136.399 238.507 136.331 238.668 136.259C238.822 136.185 238.985 136.105 239.149 136.026C239.823 135.696 240.497 135.366 240.497 135.366L240.962 136.324Z" fill="#101417"/>
<path d="M233.538 139.471C233.538 139.471 232.826 139.707 232.114 139.943C231.381 140.158 230.648 140.373 230.648 140.373L230.387 139.417C230.387 139.417 231.091 139.206 231.796 138.994C232.506 138.753 233.216 138.513 233.216 138.513L233.538 139.471Z" fill="#101417"/>
<path d="M225.572 141.138C225.572 141.138 225.384 141.129 225.102 141.117C224.793 141.091 224.394 141.054 223.998 140.959C223.602 140.873 223.206 140.734 222.923 140.59C222.636 140.454 222.458 140.326 222.458 140.326L222.98 139.55C222.98 139.55 223.109 139.643 223.333 139.745C223.55 139.855 223.868 139.966 224.204 140.036C224.54 140.115 224.89 140.143 225.141 140.165C225.421 140.175 225.609 140.182 225.609 140.182L225.572 141.138Z" fill="#101417"/>
<path d="M221.346 135.245C221.346 135.245 221.407 135.068 221.496 134.802C221.576 134.542 221.745 134.161 221.893 133.805C222.21 133.1 222.588 132.432 222.588 132.432L223.357 132.861C223.357 132.861 223.001 133.503 222.708 134.168C222.571 134.505 222.432 134.81 222.348 135.088C222.259 135.356 222.201 135.533 222.201 135.533L221.346 135.245Z" fill="#101417"/>
<path d="M225.541 128.289C225.541 128.289 226.042 127.731 226.544 127.173C227.078 126.628 227.612 126.082 227.612 126.082L228.191 126.671C228.191 126.671 227.678 127.2 227.167 127.73C226.67 128.292 226.172 128.852 226.172 128.852L225.541 128.289Z" fill="#101417"/>
<path d="M231.478 122.812C231.478 122.812 232.094 122.384 232.709 121.957C233.357 121.552 234.005 121.146 234.005 121.146L234.399 121.807C234.399 121.807 233.778 122.202 233.157 122.596C232.544 123.028 231.931 123.459 231.931 123.459L231.478 122.812Z" fill="#101417"/>
<path d="M238.607 119.002C238.607 119.002 239.309 118.766 240.068 118.573C240.812 118.389 241.571 118.271 241.571 118.271L241.68 118.977C241.68 118.977 240.956 119.095 240.245 119.276C239.549 119.456 238.83 119.702 238.83 119.702L238.607 119.002Z" fill="#101417"/>
<path d="M246.687 118.52C246.687 118.52 247.397 118.72 248.132 119.043C248.839 119.364 249.493 119.781 249.493 119.781L249.138 120.337C249.138 120.337 248.522 119.951 247.86 119.654C247.524 119.525 247.212 119.383 246.93 119.306C246.662 119.223 246.483 119.167 246.483 119.167L246.687 118.52Z" fill="#101417"/>
<path d="M253.086 123.414C253.086 123.414 253.184 123.574 253.33 123.814C253.474 124.056 253.678 124.368 253.861 124.7C254.208 125.385 254.551 126.07 254.551 126.07L254.003 126.323C254.003 126.323 253.668 125.671 253.335 125.018C253.154 124.696 252.944 124.379 252.8 124.14C252.653 123.901 252.553 123.742 252.553 123.742L253.086 123.414Z" fill="#101417"/>
<path d="M256.016 130.931C256.016 130.931 256.104 131.676 256.192 132.42C256.223 133.186 256.255 133.951 256.255 133.951L255.697 133.954C255.697 133.954 255.664 133.222 255.631 132.488C255.539 131.744 255.446 131 255.446 131L256.016 130.931Z" fill="#101417"/>
<path d="M255.669 138.977C255.669 138.977 255.48 139.703 255.289 140.428C255.056 141.152 254.821 141.875 254.821 141.875L254.34 141.706C254.34 141.706 254.564 141.002 254.787 140.297C254.973 139.571 255.158 138.845 255.158 138.845L255.669 138.977Z" fill="#101417"/>
<path d="M252.753 146.47C252.753 146.47 252.38 147.12 252.007 147.772C251.605 148.413 251.202 149.053 251.202 149.053L250.812 148.8C250.812 148.8 251.204 148.169 251.595 147.537C251.964 146.885 252.333 146.231 252.333 146.231L252.753 146.47Z" fill="#101417"/>
<path d="M248.198 153.089L246.203 155.329L245.891 155.053L247.873 152.801L248.198 153.089Z" fill="#101417"/>
<path d="M242.575 158.812L240.264 160.725L240.027 160.44L242.326 158.514L242.575 158.812Z" fill="#101417"/>
<path d="M236.181 163.65L233.628 165.226L233.457 164.95L236.001 163.36L236.181 163.65Z" fill="#101417"/>
<path d="M229.182 167.56L226.433 168.761L226.321 168.507L229.063 167.29L229.182 167.56Z" fill="#101417"/>
<path d="M221.695 170.414C221.695 170.414 220.971 170.614 220.249 170.814C219.518 170.992 218.785 171.168 218.785 171.168L218.734 170.943C218.734 170.943 219.459 170.762 220.184 170.583C220.906 170.379 221.627 170.174 221.627 170.174L221.695 170.414Z" fill="#101417"/>
<path d="M213.84 171.984C213.84 171.984 213.092 172.046 212.345 172.108C211.593 172.14 210.841 172.172 210.841 172.172L210.836 171.988C210.836 171.988 211.582 171.952 212.328 171.915C213.075 171.849 213.822 171.782 213.822 171.782L213.84 171.984Z" fill="#101417"/>
<path d="M205.837 171.918C205.837 171.918 205.097 171.805 204.356 171.69C203.619 171.539 202.881 171.388 202.881 171.388L202.911 171.253C202.911 171.253 203.644 171.399 204.377 171.545C205.119 171.654 205.86 171.765 205.86 171.765L205.837 171.918Z" fill="#101417"/>
<path d="M198.126 169.823C198.126 169.823 197.446 169.505 196.768 169.186C196.107 168.828 195.445 168.47 195.445 168.47L195.491 168.392C195.491 168.392 196.15 168.744 196.81 169.095C197.491 169.41 198.171 169.725 198.171 169.725L198.126 169.823Z" fill="#101417"/>
<path d="M191.375 165.565C191.375 165.565 190.821 165.058 190.269 164.551C189.743 164.016 189.217 163.48 189.217 163.48L189.249 163.45C189.249 163.45 189.776 163.981 190.304 164.513C190.861 165.016 191.416 165.519 191.416 165.519L191.375 165.565Z" fill="#101417"/>
<path d="M186.127 159.552C186.127 159.552 185.783 159.016 185.44 158.479C185.116 157.93 184.792 157.381 184.792 157.381C184.792 157.381 185.119 157.928 185.446 158.475C185.793 159.009 186.138 159.544 186.138 159.544L186.127 159.552Z" fill="#101417"/>
<path d="M252.775 100.22L224.787 71.978C224.348 71.483 223.691 71.235 223.04 71.313C222.378 71.387 221.809 71.788 221.502 72.373L216.298 82.294L209.318 82.625L210.392 90.827L211.864 90.772L206.839 95.47L215.683 101.592L252.775 100.22Z" fill="#E9E9E9"/>
<path d="M215.682 102.592C215.479 102.592 215.28 102.53 215.113 102.414L206.269 96.2919C206.02 96.1199 205.863 95.8439 205.841 95.5429C205.819 95.2409 205.935 94.9459 206.155 94.7389L209.638 91.4829C209.513 91.3389 209.427 91.1579 209.4 90.9559L208.326 82.7539C208.29 82.4769 208.371 82.1969 208.551 81.9829C208.731 81.7689 208.991 81.6389 209.271 81.6259L215.679 81.3219L220.617 71.9079C221.081 71.0229 221.945 70.4289 222.93 70.3189C223.851 70.2069 224.885 70.5799 225.536 71.3139L253.487 99.5159C253.766 99.7979 253.852 100.219 253.707 100.588C253.561 100.957 253.21 101.205 252.814 101.22L215.72 102.592C215.706 102.592 215.694 102.592 215.682 102.592ZM208.427 95.3539L215.977 100.581L250.46 99.3059L224.076 72.6829C223.814 72.3899 223.493 72.2719 223.159 72.3069C222.828 72.3439 222.542 72.5419 222.388 72.8379L217.184 82.7589C217.019 83.0729 216.7 83.2769 216.346 83.2939L210.451 83.5729L211.265 89.7949L211.827 89.7739C212.248 89.7609 212.627 90.0039 212.787 90.3889C212.947 90.7739 212.851 91.2189 212.547 91.5039L208.427 95.3539Z" fill="#101417"/>
<path d="M253.576 100.272C253.663 100.098 253.643 99.885 253.514 99.743L222.139 64.893C221.68 64.386 220.992 64.135 220.306 64.221C219.609 64.302 219.006 64.719 218.679 65.325L204.07 92.358C203.744 92.963 203.744 93.686 204.062 94.282C204.381 94.886 204.987 95.292 205.674 95.361L253.092 100.524C253.287 100.546 253.479 100.44 253.576 100.272Z" fill="white"/>
<path d="M242.257 94.7979L208.402 84.3549L207.154 80.3619L213.132 75.5859L242.492 94.3779C242.604 94.4349 242.639 94.5789 242.58 94.6899C242.522 94.8069 242.377 94.8529 242.257 94.7979Z" fill="#E9E9E9"/>
<path d="M64.7258 73.7549L63.4048 72.2529C63.6608 72.0269 63.9168 71.8049 64.1738 71.5869L65.4678 73.1109C65.2198 73.3219 64.9738 73.5369 64.7258 73.7549Z" fill="#101417"/>
<path d="M52.1869 172.892L52.0969 170.894C52.7039 170.867 53.3289 170.803 53.9519 170.704L54.2649 172.68C53.5679 172.79 52.8689 172.861 52.1869 172.892ZM47.9939 172.548C47.3039 172.397 46.6199 172.195 45.9619 171.95L46.6609 170.076C47.2309 170.288 47.8239 170.463 48.4229 170.595L47.9939 172.548ZM58.2689 171.644L57.5999 169.759C58.1839 169.551 58.7789 169.315 59.3689 169.054L60.1769 170.883C59.5419 171.165 58.8999 171.42 58.2689 171.644ZM42.2519 169.934C41.6979 169.524 41.1569 169.067 40.6439 168.575L42.0289 167.132C42.4809 167.565 42.9559 167.967 43.4419 168.327L42.2519 169.934ZM63.7949 169L62.7679 167.284C63.3099 166.959 63.8519 166.615 64.3959 166.251L65.5089 167.913C64.9369 168.296 64.3649 168.659 63.7949 169ZM68.7639 165.51L67.5089 163.953C68.0059 163.553 68.5019 163.136 68.9959 162.705L70.3089 164.213C69.7949 164.662 69.2799 165.094 68.7639 165.51ZM37.9839 165.368C37.6109 164.808 37.2529 164.212 36.9179 163.597L38.6749 162.64C38.9819 163.204 39.3099 163.748 39.6499 164.259L37.9839 165.368ZM73.2509 161.466L71.8389 160.05C72.2939 159.596 72.7469 159.131 73.1979 158.653L74.6519 160.026C74.1879 160.519 73.7199 160.999 73.2509 161.466ZM35.2369 159.856C35.0079 159.23 34.7929 158.585 34.5929 157.922L36.5079 157.345C36.6959 157.97 36.8979 158.577 37.1149 159.166L35.2369 159.856ZM77.3259 157.032L75.7989 155.741C76.2159 155.248 76.6299 154.745 77.0419 154.233L78.6019 155.485C78.1779 156.011 77.7529 156.526 77.3259 157.032ZM33.6279 153.98C33.5019 153.328 33.3879 152.664 33.2869 151.987L35.2649 151.691C35.3619 152.339 35.4709 152.976 35.5919 153.6L33.6279 153.98ZM32.8459 147.979C32.7969 147.318 32.7589 146.648 32.7319 145.969L34.7299 145.889C34.7559 146.546 34.7929 147.193 34.8399 147.832L32.8459 147.979ZM34.6919 141.991L32.6919 141.952C32.7049 141.29 32.7269 140.622 32.7579 139.947L34.7559 140.039C34.7259 140.696 34.7039 141.347 34.6919 141.991ZM35.0349 136.141L33.0449 135.949C33.1079 135.29 33.1799 134.627 33.2599 133.959L35.2449 134.196C35.1669 134.849 35.0979 135.498 35.0349 136.141ZM35.7979 130.319L33.8239 129.996C33.9309 129.342 34.0459 128.685 34.1689 128.025L36.1349 128.391C36.0159 129.037 35.9029 129.68 35.7979 130.319ZM36.9279 124.552L34.9779 124.11C35.1239 123.464 35.2779 122.816 35.4389 122.165L37.3799 122.644C37.2229 123.283 37.0719 123.919 36.9279 124.552ZM38.3909 118.855L36.4679 118.304C36.6499 117.668 36.8389 117.029 37.0339 116.389L38.9469 116.974C38.7549 117.603 38.5699 118.23 38.3909 118.855ZM40.1599 113.242L38.2679 112.593C38.4829 111.966 38.7059 111.339 38.9339 110.71L40.8139 111.394C40.5899 112.01 40.3719 112.626 40.1599 113.242ZM42.2169 107.727L40.3619 106.981C40.6109 106.361 40.8649 105.746 41.1219 105.135L42.9649 105.912C42.7109 106.512 42.4619 107.118 42.2169 107.727ZM44.5499 102.322L42.7349 101.482C43.0159 100.875 43.3009 100.273 43.5889 99.6769L45.3889 100.549C45.1049 101.135 44.8259 101.726 44.5499 102.322ZM47.1609 97.0479L45.3919 96.1139C45.7049 95.5219 46.0209 94.9359 46.3419 94.3559L48.0919 95.3239C47.7789 95.8919 47.4679 96.4669 47.1609 97.0479ZM50.0539 91.9269L48.3399 90.8959C48.6869 90.3199 49.0359 89.7529 49.3899 89.1929L51.0809 90.2599C50.7359 90.8079 50.3929 91.3639 50.0539 91.9269ZM53.2369 86.9899L51.5909 85.8529C51.9729 85.2999 52.3569 84.7549 52.7449 84.2189L54.3659 85.3899C53.9879 85.9149 53.6109 86.4479 53.2369 86.9899ZM56.7289 82.2709L55.1639 81.0269C55.5839 80.4989 56.0069 79.9809 56.4319 79.4729L57.9649 80.7569C57.5509 81.2519 57.1389 81.7569 56.7289 82.2709ZM60.5499 77.8319L59.0879 76.4679C59.5499 75.9719 60.0149 75.4889 60.4809 75.0189L61.9009 76.4269C61.4499 76.8819 60.9989 77.3509 60.5499 77.8319Z" fill="#101417"/>
<path d="M81.0588 152.268L79.4448 151.087C79.6378 150.822 79.8298 150.555 80.0218 150.286L81.6518 151.444C81.4548 151.722 81.2578 151.996 81.0588 152.268Z" fill="#101417"/>
<path d="M46.1771 89.927L44.4561 88.909L44.9741 88.043L46.6851 89.078L46.1771 89.927Z" fill="#101417"/>
<path d="M36.387 110.984L34.502 110.315C34.72 109.699 34.944 109.082 35.174 108.463L37.049 109.16C36.822 109.77 36.602 110.377 36.387 110.984ZM38.457 105.548L36.605 104.792C36.854 104.182 37.106 103.576 37.363 102.974L39.203 103.758C38.95 104.35 38.702 104.947 38.457 105.548ZM40.778 100.214L38.964 99.372C39.242 98.773 39.523 98.18 39.807 97.591L41.608 98.461C41.328 99.041 41.051 99.625 40.778 100.214ZM43.351 95L41.58 94.07C41.887 93.486 42.197 92.906 42.51 92.333L44.266 93.291C43.958 93.856 43.652 94.426 43.351 95Z" fill="#101417"/>
<path d="M34.85 115.617L32.939 115.023L33.242 114.063L35.147 114.67L34.85 115.617Z" fill="#101417"/>
<path d="M60.427 85.8719L58.769 84.7549L59.331 83.9269L60.983 85.0539L60.427 85.8719Z" fill="#101417"/>
<path d="M45.3658 113.671L43.5288 112.88C43.8108 112.224 44.0958 111.572 44.3828 110.924L46.2108 111.735C45.9268 112.377 45.6448 113.022 45.3658 113.671ZM47.9688 107.896L46.1598 107.042C46.4648 106.396 46.7718 105.754 47.0818 105.116L48.8808 105.991C48.5738 106.622 48.2708 107.256 47.9688 107.896ZM50.7728 102.216L48.9958 101.299C49.3238 100.664 49.6538 100.034 49.9868 99.4068L51.7528 100.346C51.4238 100.965 51.0968 101.589 50.7728 102.216ZM53.7808 96.6438L52.0388 95.6608C52.3908 95.0388 52.7438 94.4208 53.0998 93.8078L54.8288 94.8128C54.4778 95.4178 54.1278 96.0288 53.7808 96.6438ZM56.9968 91.1918L55.2948 90.1408C55.6698 89.5328 56.0478 88.9298 56.4278 88.3308L58.1158 89.4018C57.7408 89.9938 57.3668 90.5908 56.9968 91.1918Z" fill="#101417"/>
<path d="M43.3649 118.511L41.5059 117.774L41.8809 116.838L43.7339 117.589L43.3649 118.511Z" fill="#101417"/>
<path d="M98.0657 70.3309L97.0637 73.6369L90.2417 65.3069L92.5267 63.4349L102.179 55.5289L98.0657 70.3309Z" fill="#EBF3FE"/>
<path d="M99.1511 57.2383L97.2065 56.7705L95.0413 65.7711L96.9859 66.2389L99.1511 57.2383Z" fill="#101417"/>
<path d="M57.105 78.308C57.105 78.308 65.347 54.489 73.707 64.732C82.067 74.975 57.105 78.308 57.105 78.308Z" fill="#FFE32D"/>
<path d="M57.1048 79.308C56.8068 79.308 56.5218 79.175 56.3308 78.941C56.1118 78.672 56.0468 78.309 56.1608 77.981C56.7558 76.261 62.1828 61.173 69.3258 61.173C71.1628 61.173 72.8978 62.157 74.4828 64.099C76.3388 66.373 76.8677 68.569 76.0547 70.625C73.5527 76.948 58.9018 79.077 57.2388 79.299C57.1928 79.305 57.1488 79.308 57.1048 79.308ZM69.3248 63.173C64.9848 63.173 60.5858 72.091 58.6368 77.055C63.5868 76.182 72.6368 73.826 74.1938 69.888C74.7278 68.538 74.3158 67.058 72.9318 65.364C71.7458 63.91 70.5318 63.173 69.3248 63.173Z" fill="#101417"/>
<path d="M72.4728 40.27L87.8398 39.209L78.1878 47.113L75.9018 48.986L68.9878 40.545L72.4728 40.27Z" fill="#EBF3FE"/>
<path d="M84.7852 44.1664L84.6416 42.1716L75.4087 42.8363L75.5523 44.8311L84.7852 44.1664Z" fill="#101417"/>
<path d="M92.7628 35.2596L89.5083 37.9255L103.176 54.6105L106.43 51.9446L92.7628 35.2596Z" fill="#FFE32D"/>
<path d="M103.172 54.6189L84.854 69.6229C81.292 72.5399 77.342 69.4539 77.342 69.4539L69.873 60.3359C69.873 60.3359 67.354 56.0769 71.187 52.9389L89.504 37.9349L103.172 54.6189Z" fill="#5BEDA6"/>
<path d="M90.7977 55.1389C93.1863 55.1389 95.1227 53.2025 95.1227 50.8139C95.1227 48.4253 93.1863 46.4889 90.7977 46.4889C88.409 46.4889 86.4727 48.4253 86.4727 50.8139C86.4727 53.2025 88.409 55.1389 90.7977 55.1389Z" fill="white"/>
<path d="M82.909 61.6019C85.2976 61.6019 87.234 59.6655 87.234 57.2769C87.234 54.8883 85.2976 52.9519 82.909 52.9519C80.5203 52.9519 78.584 54.8883 78.584 57.2769C78.584 59.6655 80.5203 61.6019 82.909 61.6019Z" fill="white"/>
<path d="M92.6636 35.3469C92.6986 35.3189 96.3876 35.5949 100.166 35.8869C104.578 36.2279 107.814 40.1789 107.279 44.5709C106.821 48.3339 106.365 52.0039 106.33 52.0329L106.427 51.9539L92.7606 35.2679L92.6636 35.3469Z" fill="#EBF3FE"/>
<path d="M106.331 53.0319C106.043 53.0319 105.757 52.9079 105.56 52.6689C105.447 52.5319 105.377 52.3749 105.347 52.2119L92.2946 36.2759C92.1406 36.2149 92.0006 36.1149 91.8886 35.9769C91.5416 35.5489 91.6056 34.9209 92.0316 34.5729L92.1286 34.4939C92.4406 34.2389 92.8586 34.2019 93.2006 34.3689C94.4126 34.4439 97.6256 34.6879 100.245 34.8899C102.654 35.0759 104.823 36.2079 106.354 38.0769C107.884 39.9459 108.566 42.2949 108.274 44.6919C107.957 47.2979 107.563 50.4949 107.397 51.7019C107.426 51.8149 107.436 51.9339 107.424 52.0529C107.398 52.3169 107.267 52.5599 107.062 52.7279L106.965 52.8069C106.777 52.9579 106.553 53.0319 106.331 53.0319ZM95.0646 36.5029L105.669 49.4509C105.825 48.2119 106.033 46.5239 106.286 44.4499C106.512 42.5989 105.985 40.7859 104.804 39.3439C103.622 37.9009 101.948 37.0279 100.088 36.8839C97.9856 36.7209 96.2986 36.5929 95.0646 36.5029Z" fill="#101417"/>
<path d="M94.8456 96.155C97.3266 96.155 99.3386 98.256 99.3386 100.847C99.3386 101.079 99.3216 101.308 99.2906 101.532C100.115 100.482 101.366 99.812 102.768 99.812C105.249 99.812 107.261 101.913 107.261 104.504C107.261 105.359 107.04 106.161 106.657 106.852C107.285 106.503 108.001 106.305 108.761 106.305C111.242 106.305 113.254 108.406 113.254 110.997C113.254 112.49 112.586 113.819 111.545 114.679C111.779 114.64 112.019 114.618 112.263 114.618C114.745 114.618 116.757 116.72 116.757 119.311C116.757 121.164 115.728 122.765 114.236 123.528C115.728 124.291 116.757 125.892 116.757 127.745C116.757 130.337 114.745 132.437 112.263 132.437C112.105 132.437 111.948 132.428 111.793 132.412C112.69 133.27 113.254 134.504 113.254 135.875C113.254 138.467 111.242 140.567 108.761 140.567C108.04 140.567 107.359 140.388 106.755 140.073C107.077 140.719 107.26 141.454 107.26 142.234C107.26 144.826 105.248 146.926 102.767 146.926C101.39 146.926 100.159 146.279 99.3326 145.26C99.2436 147.769 97.2696 149.774 94.8446 149.774C92.5306 149.774 90.6246 147.946 90.3786 145.596L90.3516 145.588V100.846C90.3526 98.256 92.3636 96.155 94.8456 96.155Z" fill="#FFE32D"/>
<path d="M94.8109 150.592C92.3789 150.592 90.2099 148.557 89.8729 145.959C89.8409 145.859 89.8369 145.81 89.8369 145.705V142.539C89.8369 142.3 89.9219 142.069 90.0779 141.888C89.9259 141.71 89.8369 141.481 89.8369 141.237V127.484C89.8369 127.308 89.8829 127.137 89.9679 126.989C89.8839 126.841 89.8369 126.671 89.8369 126.494V116.181C89.8369 115.998 89.8869 115.821 89.9779 115.669C89.8869 115.517 89.8369 115.34 89.8369 115.157V101.513C89.8369 98.423 91.2869 96.287 93.8149 95.652C94.1739 95.561 94.5199 95.545 94.8419 95.535C96.3189 95.574 97.6059 96.172 98.5239 97.22C99.2509 98.049 99.7059 99.105 99.8419 100.236C101.467 99.028 103.7 98.92 105.467 100.033C107.539 101.335 108.113 103.833 107.59 105.906C109.629 105.411 111.823 106.332 113.001 108.195C114.136 109.988 113.998 112.372 112.766 114.148C114.698 114.374 116.37 115.761 117.028 117.741C117.732 119.861 116.966 122.235 115.202 123.624C117.09 125.097 117.496 127.459 117.011 129.298C116.461 131.381 114.883 132.804 112.89 133.083C114.006 134.805 114.078 136.974 113.026 138.833C111.986 140.668 109.747 141.643 107.643 141.17C108.103 143.154 107.449 145.241 105.862 146.612C105.029 147.332 104.003 147.713 102.895 147.713C101.771 147.713 100.648 147.313 99.7319 146.61C99.1779 148.818 97.4019 150.391 95.1949 150.575C95.0659 150.586 94.9379 150.592 94.8109 150.592ZM91.8379 145.583C91.8469 145.629 91.8549 145.676 91.8589 145.723C92.0479 147.185 93.3029 148.728 95.0289 148.583C96.3719 148.471 97.4579 147.486 97.7979 146.101C96.7649 143.254 97.0929 139.448 100.258 137.514C101.05 137.028 102.136 137.482 102.388 138.377C102.564 139.004 102.308 139.653 101.752 139.993C100.165 140.964 99.9589 142.846 100.313 144.407C100.353 144.445 100.391 144.485 100.428 144.528C101.487 145.773 103.404 146.093 104.555 145.099C105.717 144.095 106.095 142.558 105.547 141.137C104.8 140.441 104.171 139.487 103.8 138.482C103.496 137.658 103.37 136.804 103.423 135.937C102.117 134.874 100.459 134.728 99.1899 135.653C98.4309 136.208 97.3219 135.82 97.0289 134.92C96.8259 134.297 97.0339 133.648 97.5589 133.265C99.4849 131.857 102.119 131.79 104.271 133.022C104.5 132.585 104.772 132.156 105.085 131.738C105.147 131.656 105.216 131.581 105.291 131.515C104.788 131.081 104.339 130.6 103.956 130.079C103.895 130.217 103.832 130.353 103.768 130.489C103.533 130.983 103.057 131.289 102.526 131.289C102.025 131.289 101.544 131.019 101.27 130.584C101.002 130.16 100.973 129.633 101.191 129.176C101.835 127.827 102.255 126.55 102.441 125.38C102.446 125.314 102.456 125.25 102.469 125.186C102.655 123.836 102.516 122.634 102.059 121.611C101.996 121.514 101.945 121.41 101.909 121.301C101.533 120.577 101.001 119.894 100.597 119.621C100.062 119.26 99.8299 118.601 100.02 117.981C100.295 117.081 101.388 116.664 102.168 117.191C102.576 117.466 102.95 117.778 103.286 118.125C104.342 117.027 105.784 116.426 107.302 116.454C107.521 115.971 107.817 115.528 108.188 115.131C108.903 114.364 109.811 113.772 110.768 113.445C111.875 112.292 112.116 110.53 111.314 109.263C110.445 107.889 108.754 107.388 107.341 108.121C105.437 109.15 105.218 111.261 105.853 112.893C106.024 113.333 105.975 113.799 105.72 114.172C105.454 114.561 105 114.793 104.505 114.793C103.889 114.793 103.348 114.424 103.127 113.854C102.805 113.028 102.638 112.156 102.633 111.29C100.868 110.756 99.5609 109.515 99.1299 107.907C99.0129 107.469 99.0989 107.018 99.3679 106.669C99.6449 106.308 100.087 106.093 100.551 106.093C101.203 106.093 101.755 106.518 101.925 107.151C102.099 107.8 102.653 108.219 103.243 108.449C103.741 107.385 104.525 106.485 105.52 105.841C106.047 104.472 105.792 102.596 104.406 101.725C103.19 100.96 101.723 101.138 100.691 102.136C100.138 105.788 96.6929 107.502 93.6349 107.546C92.8199 107.546 92.1939 106.918 92.1879 106.115C92.1819 105.305 92.8059 104.662 93.6069 104.652C94.8569 104.634 96.5169 104.324 97.3259 102.949C97.6179 102.454 97.8379 101.831 97.8629 101.434C97.9789 100.316 97.6709 99.276 97.0239 98.537C96.4699 97.904 95.7169 97.557 94.8469 97.533C94.6749 97.54 94.4719 97.549 94.3069 97.59C92.2679 98.102 91.8399 100.006 91.8399 101.512V113.769C92.6289 113.61 93.4739 113.604 94.3419 113.752C94.4009 113.564 94.4169 113.282 94.2719 112.815C94.1349 112.376 94.2079 111.919 94.4719 111.56C94.7449 111.189 95.1909 110.968 95.6659 110.968C96.3099 110.968 96.8509 111.366 97.0439 111.982C97.3359 112.92 97.3369 113.875 97.0679 114.703C97.6849 115.029 98.2769 115.422 98.8159 115.864C99.2769 116.242 99.4499 116.841 99.2539 117.389C98.9329 118.29 97.6759 118.664 96.9159 118.043C95.3209 116.735 93.2799 116.203 91.8399 116.789V125.85C92.4639 126.1 93.1409 126.262 93.8399 126.328C94.0679 125.725 93.9139 124.862 93.6119 124.171C93.4109 123.713 93.4539 123.19 93.7269 122.772C94.0039 122.348 94.4799 122.084 94.9699 122.084C95.5129 122.084 95.9909 122.403 96.2159 122.917C96.4699 123.498 96.9089 124.715 96.8259 126.04C97.2499 125.915 97.6589 125.756 98.0409 125.565C98.8669 125.152 99.9179 125.668 100.128 126.56C100.279 127.2 99.9809 127.83 99.3849 128.127C97.0939 129.271 94.2969 129.559 91.8389 128.895V139.341C91.9479 139.286 92.0589 139.234 92.1699 139.185C92.8829 137.426 94.3419 136.062 96.0709 135.572C96.9089 135.334 97.7619 135.906 97.8829 136.775C97.9829 137.495 97.5499 138.161 96.8539 138.358C96.5389 138.447 96.2369 138.602 95.9619 138.809C96.0549 138.831 96.1479 138.856 96.2399 138.883C96.9319 139.084 97.3619 139.752 97.2599 140.471C97.1369 141.337 96.2809 141.909 95.4439 141.666C94.5009 141.392 93.5519 141.578 92.6769 142.2C92.3599 142.426 92.0779 142.667 91.8399 142.917V145.583H91.8379ZM107.553 139.049C107.931 139.209 108.343 139.293 108.752 139.293C109.826 139.293 110.774 138.752 111.287 137.846C112.003 136.583 111.911 135.098 111.072 133.969C109.851 133.823 108.7 133.497 107.66 133.022C107.612 133.15 107.544 133.275 107.457 133.391C106.643 134.475 105.832 136.098 106.591 137.673C106.866 138.244 107.189 138.706 107.553 139.049ZM111.744 131.116C111.767 131.116 111.821 131.118 111.844 131.119C111.963 131.129 112.065 131.133 112.166 131.133C113.856 131.133 114.778 129.921 115.078 128.787C115.413 127.516 115.094 125.861 113.64 124.971C111.945 124.539 110.296 125.454 109.624 127.16C109.4 127.727 108.859 128.094 108.245 128.094C107.749 128.094 107.294 127.861 107.028 127.47C106.773 127.095 106.726 126.628 106.899 126.189C108.065 123.234 110.984 121.514 113.939 122.072C115.072 121.2 115.571 119.701 115.129 118.37C114.639 116.895 113.299 115.957 111.843 116.136C111.333 116.281 110.812 116.586 110.441 116.959C109.584 117.822 109.505 119.097 110.209 120.748C110.405 121.206 110.357 121.729 110.083 122.144C109.805 122.565 109.33 122.827 108.844 122.827C108.297 122.827 107.819 122.504 107.597 121.983C107.208 121.071 106.969 120.194 106.882 119.364C106.053 119.459 105.328 119.974 104.894 120.774C105.342 122.074 105.477 123.563 105.298 125.207C105.317 125.298 105.327 125.392 105.328 125.487C105.357 127.57 106.483 129.248 108.497 130.209C109.502 130.688 110.699 131.037 111.619 131.12C111.619 131.12 111.62 131.12 111.621 131.12C111.662 131.118 111.703 131.116 111.744 131.116Z" fill="#101417"/>
<path d="M83.4579 96.155C80.9769 96.155 78.9649 98.256 78.9649 100.847C78.9649 101.079 78.9819 101.308 79.0129 101.532C78.1889 100.482 76.9379 99.812 75.5359 99.812C73.0549 99.812 71.0429 101.913 71.0429 104.504C71.0429 105.359 71.2639 106.161 71.6469 106.852C71.0189 106.503 70.3029 106.305 69.5429 106.305C67.0619 106.305 65.0499 108.406 65.0499 110.997C65.0499 112.49 65.7179 113.819 66.7589 114.679C66.5249 114.64 66.2849 114.618 66.0399 114.618C63.5589 114.618 61.5469 116.72 61.5469 119.311C61.5469 121.164 62.5749 122.765 64.0679 123.528C62.5749 124.291 61.5469 125.892 61.5469 127.745C61.5469 130.337 63.5589 132.437 66.0399 132.437C66.1989 132.437 66.3559 132.428 66.5109 132.412C65.6139 133.27 65.0499 134.504 65.0499 135.875C65.0499 138.467 67.0619 140.567 69.5429 140.567C70.2639 140.567 70.9449 140.388 71.5489 140.073C71.2279 140.719 71.0439 141.454 71.0439 142.234C71.0439 144.826 73.0559 146.926 75.5369 146.926C76.9139 146.926 78.1449 146.279 78.9699 145.26C79.0599 147.769 81.0339 149.774 83.4589 149.774C85.7729 149.774 87.6789 147.946 87.9249 145.596L87.9519 145.588V100.846C87.9509 98.256 85.9389 96.155 83.4579 96.155Z" fill="#FFE32D"/>
<path d="M83.4396 150.581L83.2916 150.579C80.8906 150.511 79.2226 148.598 78.7026 146.615C77.0526 147.897 74.7596 148.032 72.9626 146.902C71.1336 145.753 70.2846 143.384 70.7886 141.177C70.4276 141.26 70.0596 141.302 69.6876 141.302C68.0556 141.302 66.5576 140.504 65.5796 139.112C64.3366 137.344 64.3566 134.938 65.5436 133.086C63.5496 132.809 61.9686 131.384 61.4186 129.3C60.9336 127.462 61.3396 125.101 63.2266 123.627C61.5046 122.277 60.7686 120.012 61.3886 117.79C61.9386 115.815 63.6516 114.385 65.6636 114.152C64.4616 112.427 64.3266 110.139 65.4036 108.238C66.4526 106.388 68.7246 105.419 70.8306 105.912C70.2956 103.881 70.9316 101.738 72.5676 100.323C73.4016 99.603 74.4266 99.222 75.5326 99.222C76.6036 99.222 77.6856 99.592 78.5836 100.243C78.7176 99.121 79.1726 98.057 79.9036 97.223C80.8216 96.175 82.1106 95.576 83.5306 95.536C86.3676 95.613 88.5196 97.869 88.5916 100.786C88.5956 100.921 88.5946 101.058 88.5926 101.195L88.5916 105.423V115.157C88.5916 115.341 88.5416 115.517 88.4496 115.67C88.5406 115.823 88.5916 115.999 88.5916 116.183V126.496C88.5916 126.673 88.5446 126.843 88.4606 126.991C88.5456 127.139 88.5916 127.31 88.5916 127.486V141.239C88.5916 141.484 88.5026 141.715 88.3476 141.893C88.4796 142.076 88.5916 142.331 88.5916 142.539V145.706C88.5916 145.801 88.5776 145.895 88.5516 145.987C88.2096 148.637 86.0576 150.581 83.4396 150.581ZM80.6336 146.1C80.9516 147.342 81.9416 148.54 83.3476 148.58L83.4396 148.581C85.0396 148.581 86.3576 147.371 86.5736 145.702C86.5786 145.662 86.5856 145.624 86.5926 145.586V142.916C86.3806 142.7 86.0926 142.424 85.7806 142.216C84.8126 141.57 83.9256 141.393 82.9906 141.665C82.1426 141.913 81.2956 141.337 81.1726 140.471C81.0706 139.752 81.5006 139.084 82.1936 138.883C82.2846 138.856 82.3766 138.832 82.4696 138.81C82.1946 138.603 81.8916 138.449 81.5766 138.359C80.8806 138.161 80.4486 137.495 80.5486 136.776C80.6706 135.908 81.5216 135.336 82.3616 135.573C84.0896 136.063 85.5486 137.427 86.2616 139.186C86.3726 139.234 86.4826 139.286 86.5916 139.341V128.895C84.1336 129.559 81.3356 129.271 79.0456 128.127C78.4506 127.83 78.1516 127.201 78.3026 126.561C78.5126 125.668 79.5636 125.153 80.3906 125.566C80.7726 125.756 81.1816 125.916 81.6056 126.041C81.5226 124.717 81.9616 123.499 82.2156 122.919C82.4406 122.405 82.9176 122.086 83.4606 122.086C83.9496 122.086 84.4266 122.35 84.7036 122.774C84.9766 123.191 85.0206 123.714 84.8206 124.173C84.5176 124.864 84.3636 125.728 84.5916 126.331C85.2926 126.265 85.9686 126.103 86.5916 125.853V116.792C85.1506 116.205 83.1086 116.739 81.5166 118.045C80.7566 118.669 79.5006 118.293 79.1786 117.392C78.9826 116.844 79.1546 116.245 79.6156 115.866C80.1556 115.424 80.7476 115.031 81.3646 114.705C81.0946 113.876 81.0956 112.922 81.3886 111.985C81.5816 111.368 82.1226 110.97 82.7666 110.97C83.2416 110.97 83.6876 111.192 83.9606 111.562C84.2246 111.92 84.2966 112.378 84.1606 112.817C84.0086 113.305 84.0326 113.591 84.0836 113.755C84.9536 113.605 85.8016 113.611 86.5916 113.77L86.5926 101.176C86.5936 101.062 86.5946 100.948 86.5926 100.835C86.5476 99 85.2316 97.581 83.5316 97.534C82.7166 97.558 81.9626 97.906 81.4076 98.539C80.7606 99.278 80.4536 100.317 80.5666 101.392C80.5956 101.851 80.8196 102.492 81.0926 102.927C81.7936 104.047 83.0496 104.627 84.8266 104.653C85.6266 104.664 86.2496 105.307 86.2446 106.117C86.2396 106.919 85.6136 107.548 84.8196 107.548C81.7386 107.504 78.2936 105.79 77.7426 102.136C76.6476 101.107 74.9326 100.921 73.8736 101.836C72.6946 102.855 72.3306 104.401 72.9076 105.84C73.9066 106.484 74.6916 107.385 75.1896 108.451C75.7806 108.221 76.3346 107.803 76.5086 107.154C76.6786 106.521 77.2306 106.095 77.8826 106.095C78.3456 106.095 78.7886 106.31 79.0646 106.671C79.3336 107.021 79.4196 107.472 79.3026 107.909C78.8716 109.517 77.5646 110.759 75.7996 111.292C75.7936 112.158 75.6266 113.031 75.3056 113.857C75.0836 114.427 74.5416 114.795 73.9266 114.795C73.4316 114.795 72.9776 114.563 72.7116 114.173C72.4566 113.799 72.4086 113.333 72.5796 112.893C73.2136 111.262 72.9946 109.151 71.0766 108.115C70.6546 107.896 70.1646 107.776 69.6746 107.776C68.6026 107.776 67.6556 108.317 67.1426 109.223C66.3436 110.632 66.5576 112.303 67.6626 113.446C68.7226 113.805 69.7236 114.481 70.3786 115.286C70.6746 115.65 70.9176 116.042 71.1056 116.456C72.6356 116.415 74.0846 117.023 75.1466 118.125C75.4826 117.779 75.8566 117.467 76.2656 117.191C77.0426 116.668 78.1376 117.082 78.4126 117.983C78.6016 118.602 78.3706 119.261 77.8356 119.622C77.4256 119.899 76.8886 120.58 76.5356 121.268C76.4996 121.384 76.4486 121.495 76.3826 121.598C75.5286 123.68 75.8266 126.209 77.2426 129.178C77.4606 129.635 77.4306 130.161 77.1626 130.585C76.8886 131.02 76.4076 131.29 75.9066 131.29C75.3756 131.29 74.8996 130.983 74.6646 130.49C74.6006 130.355 74.5376 130.218 74.4756 130.08C74.0926 130.601 73.6446 131.082 73.1406 131.516C73.2156 131.582 73.2856 131.657 73.3476 131.74C73.6606 132.157 73.9316 132.586 74.1616 133.023C76.3146 131.794 78.9456 131.859 80.8736 133.267C81.3976 133.649 81.6056 134.299 81.4026 134.922C81.1106 135.82 80.0026 136.21 79.2426 135.655C77.9796 134.732 76.3296 134.874 75.0256 135.925C75.0886 136.826 74.9526 137.695 74.6196 138.514C74.1886 139.574 73.5926 140.475 72.8866 141.136C72.3856 142.477 72.6616 144.351 74.0276 145.21C75.3506 146.042 76.9646 145.753 78.0036 144.53C78.0406 144.487 78.0786 144.446 78.1186 144.408C78.4716 142.846 78.2646 140.965 76.6776 139.994C76.1216 139.655 75.8656 139.005 76.0416 138.379C76.2926 137.484 77.3756 137.029 78.1716 137.515C81.3376 139.449 81.6666 143.252 80.6336 146.1ZM67.3616 133.969C66.4726 135.172 66.3976 136.797 67.2156 137.96C68.0636 139.165 69.5606 139.615 70.8796 139.05C71.2646 138.69 71.5976 138.217 71.8266 137.702C72.4156 136.378 72.1286 134.929 70.9746 133.392C70.8866 133.275 70.8186 133.15 70.7706 133.021C69.7316 133.495 68.5826 133.82 67.3616 133.969ZM64.7906 124.972C63.3376 125.863 63.0166 127.518 63.3526 128.788C63.6696 129.99 64.7006 131.278 66.5736 131.121C66.6416 131.115 66.7426 131.115 66.8106 131.122C66.8116 131.122 66.8136 131.122 66.8156 131.122C67.7656 131.036 68.9846 130.681 69.9196 130.217C71.3516 129.507 73.0656 128.111 73.1036 125.488C73.1046 125.393 73.1146 125.301 73.1326 125.211C72.9536 123.564 73.0896 122.075 73.5366 120.776C73.1026 119.976 72.3756 119.46 71.5456 119.366C71.4626 120.194 71.2246 121.071 70.8336 121.987C70.6126 122.507 70.1346 122.83 69.5866 122.83C69.1006 122.83 68.6256 122.568 68.3476 122.147C68.0726 121.731 68.0256 121.209 68.2216 120.751C68.7266 119.566 69.0866 117.938 67.9366 116.914C67.5216 116.543 67.0446 116.27 66.5856 116.139C65.1166 115.963 63.7006 116.938 63.3146 118.326C62.9076 119.788 63.3666 121.22 64.4876 122.075C67.4466 121.515 70.3656 123.237 71.5296 126.192C71.7026 126.632 71.6556 127.099 71.4006 127.474C71.1346 127.864 70.6806 128.097 70.1846 128.097C69.5706 128.097 69.0296 127.73 68.8066 127.163C68.1346 125.455 66.4866 124.54 64.7906 124.972Z" fill="#101417"/>
<path d="M60.5927 126.602C58.9767 130.362 58.0757 134.501 58.0757 138.854C58.0757 152.303 66.6607 163.756 78.5407 168.101V173.61H99.7547V168.168C111.634 163.878 120.356 152.376 120.356 138.855C120.356 134.502 119.454 130.363 117.835 126.603H60.5927V126.602Z" fill="white"/>
<path d="M76.0775 126.602C73.0725 129.813 71.2275 134.121 71.2275 138.854C71.2275 146.372 75.9815 153.161 83.0565 155.749L88.7455 163.887H89.6055L95.2855 155.797C102.413 153.223 107.202 146.414 107.202 138.855C107.202 134.122 105.355 129.814 102.347 126.603H76.0775V126.602Z" fill="#E9E9E9"/>
<path d="M102.458 170.868H75.7295V184.878H102.458V170.868Z" fill="#5BEDA6"/>
<path d="M104.605 173.675H73.9956V175.675H104.605V173.675Z" fill="#101417"/>
<path d="M104.605 177.501H73.9956V179.501H104.605V177.501Z" fill="#101417"/>
<path d="M95.0059 154H93.0059V171H95.0059V154Z" fill="#101417"/>
<path d="M85.0059 154H83.0059V171H85.0059V154Z" fill="#101417"/>
<path d="M51.1807 55.6119H50.1807V57.6119H51.1807V55.6119Z" fill="#101417"/>
<path d="M46.1018 57.6119H44.0618V55.6119H46.1018V57.6119ZM39.9818 57.6119H37.9418V55.6119H39.9818V57.6119ZM33.8628 57.6119H31.8228V55.6119H33.8628V57.6119Z" fill="#101417"/>
<path d="M27.7437 55.6119H26.7437V57.6119H27.7437V55.6119Z" fill="#101417"/>
<path d="M24.7378 138.271H23.7378V140.271H24.7378V138.271Z" fill="#101417"/>
<path d="M19.6579 140.271H17.6179V138.271H19.6579V140.271ZM13.5389 140.271H11.4989V138.271H13.5389V140.271ZM7.4189 140.271H5.37891V138.271H7.4189V140.271Z" fill="#101417"/>
<path d="M1.30078 138.271H0.300781V140.271H1.30078V138.271Z" fill="#101417"/>
<path d="M195.03 114.407H194.03V116.407H195.03V114.407Z" fill="#101417"/>
<path d="M189.951 116.407H187.911V114.407H189.951V116.407ZM183.832 116.407H181.792V114.407H183.832V116.407ZM177.712 116.407H175.672V114.407H177.712V116.407Z" fill="#101417"/>
<path d="M171.594 114.407H170.594V116.407H171.594V114.407Z" fill="#101417"/>
<path d="M109.608 86.9729C107.294 86.9729 105.412 85.0909 105.412 82.7769C105.412 80.4629 107.294 78.5809 109.608 78.5809C111.922 78.5809 113.804 80.4629 113.804 82.7769C113.804 85.0909 111.922 86.9729 109.608 86.9729ZM109.608 80.5799C108.397 80.5799 107.412 81.5649 107.412 82.7759C107.412 83.9869 108.397 84.9719 109.608 84.9719C110.819 84.9719 111.804 83.9869 111.804 82.7759C111.804 81.5649 110.819 80.5799 109.608 80.5799Z" fill="#101417"/>
<path d="M101.301 27.8319C98.987 27.8319 97.105 25.9489 97.105 23.6349C97.105 21.3219 98.987 19.4399 101.301 19.4399C103.615 19.4399 105.497 21.3219 105.497 23.6349C105.497 25.9489 103.615 27.8319 101.301 27.8319ZM101.301 21.4389C100.09 21.4389 99.105 22.4239 99.105 23.6339C99.105 24.8449 100.09 25.8309 101.301 25.8309C102.512 25.8309 103.497 24.8449 103.497 23.6339C103.497 22.4239 102.512 21.4389 101.301 21.4389Z" fill="#101417"/>
<path d="M30.301 74.4369C27.987 74.4369 26.105 72.5549 26.105 70.2409C26.105 67.9269 27.987 66.0449 30.301 66.0449C32.615 66.0449 34.497 67.9269 34.497 70.2409C34.497 72.5549 32.615 74.4369 30.301 74.4369ZM30.301 68.0439C29.09 68.0439 28.105 69.0289 28.105 70.2399C28.105 71.4509 29.09 72.4359 30.301 72.4359C31.512 72.4359 32.497 71.4509 32.497 70.2399C32.497 69.0289 31.512 68.0439 30.301 68.0439Z" fill="#101417"/>
<path d="M271.771 150.145C269.457 150.145 267.575 148.263 267.575 145.949C267.575 143.635 269.457 141.753 271.771 141.753C274.085 141.753 275.967 143.635 275.967 145.949C275.967 148.263 274.085 150.145 271.771 150.145ZM271.771 143.752C270.56 143.752 269.575 144.737 269.575 145.948C269.575 147.159 270.56 148.144 271.771 148.144C272.982 148.144 273.967 147.159 273.967 145.948C273.967 144.737 272.982 143.752 271.771 143.752Z" fill="#101417"/>
<path d="M201.92 60.038C199.606 60.038 197.724 58.156 197.724 55.842C197.724 53.528 199.606 51.646 201.92 51.646C204.234 51.646 206.116 53.528 206.116 55.842C206.116 58.156 204.234 60.038 201.92 60.038ZM201.92 53.646C200.709 53.646 199.724 54.631 199.724 55.842C199.724 57.053 200.709 58.038 201.92 58.038C203.131 58.038 204.116 57.053 204.116 55.842C204.116 54.631 203.131 53.646 201.92 53.646Z" fill="#101417"/>
<path d="M231.301 39.407H227.363C225.38 39.407 224.558 37.273 223.832 35.391C223.387 34.237 222.777 32.656 222.168 32.656C221.547 32.656 220.965 34.092 220.498 35.246C219.769 37.045 218.944 39.084 216.976 39.084C215.008 39.084 214.178 37.061 213.446 35.276C212.977 34.132 212.393 32.71 211.767 32.71C211.151 32.71 210.533 34.28 210.081 35.426C209.346 37.292 208.512 39.407 206.536 39.407H201.302V37.407H206.536C207.151 37.407 207.769 35.838 208.221 34.692C208.957 32.825 209.791 30.71 211.768 30.71C213.735 30.71 214.565 32.732 215.297 34.517C215.766 35.661 216.35 37.084 216.977 37.084C217.598 37.084 218.179 35.648 218.646 34.495C219.375 32.696 220.201 30.656 222.169 30.656C224.151 30.656 224.974 32.789 225.699 34.671C226.144 35.826 226.754 37.407 227.364 37.407H231.302V39.407H231.301Z" fill="#101417"/>
<path d="M298.301 123.407H294.363C292.38 123.407 291.558 121.273 290.832 119.391C290.387 118.237 289.777 116.656 289.168 116.656C288.547 116.656 287.965 118.092 287.498 119.246C286.769 121.045 285.944 123.084 283.976 123.084C282.008 123.084 281.178 121.061 280.446 119.276C279.977 118.132 279.393 116.71 278.767 116.71C278.151 116.71 277.533 118.28 277.081 119.426C276.346 121.292 275.512 123.407 273.536 123.407H268.302V121.407H273.536C274.151 121.407 274.769 119.838 275.221 118.692C275.957 116.825 276.791 114.71 278.768 114.71C280.735 114.71 281.565 116.732 282.297 118.517C282.766 119.661 283.35 121.084 283.977 121.084C284.598 121.084 285.179 119.648 285.646 118.495C286.375 116.696 287.201 114.656 289.169 114.656C291.151 114.656 291.974 116.789 292.699 118.671C293.144 119.826 293.754 121.407 294.364 121.407H298.302V123.407H298.301Z" fill="#101417"/>
<path d="M30.3008 173.407H26.3628C24.3798 173.407 23.5578 171.273 22.8318 169.391C22.3868 168.237 21.7768 166.656 21.1678 166.656C20.5468 166.656 19.9648 168.092 19.4978 169.246C18.7688 171.045 17.9438 173.084 15.9758 173.084C14.0078 173.084 13.1778 171.061 12.4458 169.276C11.9768 168.132 11.3928 166.71 10.7668 166.71C10.1508 166.71 9.53276 168.28 9.08076 169.426C8.34576 171.292 7.51176 173.407 5.53576 173.407H0.301758V171.407H5.53576C6.15076 171.407 6.76876 169.838 7.22076 168.692C7.95676 166.825 8.79076 164.71 10.7678 164.71C12.7348 164.71 13.5648 166.732 14.2968 168.517C14.7658 169.661 15.3498 171.084 15.9768 171.084C16.5978 171.084 17.1788 169.648 17.6458 168.495C18.3748 166.696 19.2008 164.656 21.1688 164.656C23.1508 164.656 23.9738 166.789 24.6988 168.671C25.1438 169.826 25.7538 171.407 26.3638 171.407H30.3018V173.407H30.3008Z" fill="#101417"/>
<path d="M283.301 176.407H279.363C277.38 176.407 276.558 174.273 275.832 172.391C275.387 171.237 274.777 169.656 274.168 169.656C273.547 169.656 272.965 171.092 272.498 172.246C271.769 174.045 270.944 176.084 268.976 176.084C267.008 176.084 266.178 174.061 265.446 172.276C264.977 171.132 264.393 169.71 263.767 169.71C263.151 169.71 262.533 171.28 262.081 172.426C261.346 174.292 260.512 176.407 258.536 176.407H253.302V174.407H258.536C259.151 174.407 259.769 172.838 260.221 171.692C260.957 169.825 261.791 167.71 263.768 167.71C265.735 167.71 266.565 169.732 267.297 171.517C267.766 172.661 268.35 174.084 268.977 174.084C269.598 174.084 270.179 172.648 270.646 171.495C271.375 169.696 272.201 167.656 274.169 167.656C276.151 167.656 276.974 169.789 277.699 171.671C278.144 172.826 278.754 174.407 279.364 174.407H283.302V176.407H283.301Z" fill="#101417"/>
<path d="M197.727 79.5888L193.745 75.6064L192.331 77.0206L196.313 81.003L197.727 79.5888Z" fill="#101417"/>
<path d="M197.728 77.0206L196.313 75.6064L192.331 79.5888L193.745 81.003L197.728 77.0206Z" fill="#101417"/>
<path d="M14.6694 153.27L10.687 149.288L9.27281 150.702L13.2552 154.684L14.6694 153.27Z" fill="#101417"/>
<path d="M14.6696 150.702L13.2554 149.288L9.27298 153.27L10.6872 154.684L14.6696 150.702Z" fill="#101417"/>
<path d="M23.3422 103.223L19.3599 99.241L17.9457 100.655L21.928 104.638L23.3422 103.223Z" fill="#101417"/>
<path d="M23.3429 100.654L21.9287 99.2402L17.9463 103.223L19.3605 104.637L23.3429 100.654Z" fill="#101417"/>
<path d="M201.227 126.375L197.244 122.392L195.83 123.806L199.812 127.789L201.227 126.375Z" fill="#101417"/>
<path d="M201.232 123.806L199.818 122.391L195.835 126.375L197.249 127.789L201.232 123.806Z" fill="#101417"/>
<path d="M83.1002 84.3703L79.1177 80.3866L77.7033 81.8006L81.6858 85.7843L83.1002 84.3703Z" fill="#101417"/>
<path d="M83.1037 81.8017L81.6895 80.3875L77.7064 84.3705L79.1206 85.7847L83.1037 81.8017Z" fill="#101417"/>
<path d="M63.0966 32.9382L59.1143 28.9558L57.7001 30.37L61.6824 34.3524L63.0966 32.9382Z" fill="#101417"/>
<path d="M63.0973 30.3707L61.6831 28.9565L57.7007 32.9389L59.1149 34.3531L63.0973 30.3707Z" fill="#101417"/>
<path d="M216.908 158.284L212.925 154.301L211.511 155.715L215.493 159.698L216.908 158.284Z" fill="#101417"/>
<path d="M216.908 155.715L215.494 154.301L211.511 158.284L212.925 159.698L216.908 155.715Z" fill="#101417"/>
<path d="M241.249 153.131C243.562 149.57 244.789 145.941 244.791 141.937C244.798 130.098 235.207 120.495 223.367 120.488C211.528 120.481 201.927 130.074 201.92 141.913C201.918 145.917 203.032 149.651 204.941 152.857H204.859C213.644 166.487 212.728 172.731 212.728 172.731L223.337 172.737L233.946 172.743C233.947 172.742 234.034 164.239 241.249 153.131Z" fill="white"/>
<path d="M223.355 152.26C230.183 152.26 235.719 146.724 235.719 139.896C235.719 133.068 230.183 127.532 223.355 127.532C216.526 127.532 210.991 133.068 210.991 139.896C210.991 146.724 216.526 152.26 223.355 152.26Z" fill="#FFE32D"/>
<path d="M212.738 170.75L212.734 177.127L216.639 184.16L230.165 184.168L234.076 177.14L234.08 170.762L212.738 170.75Z" fill="#5BEDA6"/>
<path d="M224.746 125.76C224.602 126.431 224.41 127.075 224.223 127.722C224.007 128.355 223.821 129.002 223.58 129.621C223.344 130.241 223.131 130.875 222.873 131.484C222.63 132.101 222.365 132.707 222.102 133.313L220.981 131.429C222.855 131.28 224.73 131.207 226.605 131.205C227.432 131.204 228.103 131.874 228.105 132.701C228.105 132.972 228.034 133.224 227.91 133.443L227.903 133.454C226.77 135.429 225.542 137.349 224.213 139.21C223.554 140.143 222.837 141.044 222.121 141.944C221.372 142.826 220.633 143.714 219.773 144.531C220.051 143.378 220.451 142.294 220.84 141.205C221.263 140.135 221.686 139.064 222.164 138.026C223.113 135.945 224.162 133.922 225.307 131.954L226.605 134.203C224.73 134.201 222.855 134.129 220.981 133.979L220.769 133.962C220.106 133.909 219.611 133.328 219.664 132.665C219.68 132.456 219.752 132.259 219.86 132.095C220.224 131.544 220.588 130.992 220.971 130.451C221.341 129.903 221.756 129.379 222.147 128.842C222.535 128.304 222.976 127.794 223.388 127.269C223.828 126.76 224.264 126.247 224.746 125.76Z" fill="#101417"/>
<path fill-rule="evenodd" clip-rule="evenodd" d="M228.667 170.221V153.508L217.091 153.543L217.097 170.221H228.667Z" fill="#FFE32D"/>
<path d="M224.867 171.221H220.892C220.34 171.221 219.892 170.773 219.892 170.221L219.891 153.175C219.891 152.91 219.996 152.655 220.184 152.468C220.372 152.281 220.626 152.175 220.891 152.175H224.867C225.419 152.175 225.867 152.623 225.867 153.175V170.221C225.867 170.773 225.419 171.221 224.867 171.221ZM221.893 169.221H223.868V154.175H221.892L221.893 169.221Z" fill="#101417"/>
<path fill-rule="evenodd" clip-rule="evenodd" d="M228.79 153.175C228.603 152.703 222.921 143.785 222.921 143.785C222.921 143.785 217.481 152.437 217.125 153.175H228.79Z" fill="white"/>
<path d="M228.79 154.175H217.125C216.781 154.175 216.461 153.998 216.278 153.707C216.095 153.416 216.074 153.051 216.224 152.741C216.586 151.991 221.161 144.706 222.074 143.253C222.257 142.962 222.564 142.8 222.921 142.785C223.263 142.785 223.581 142.959 223.764 143.247C226.38 147.352 229.536 152.343 229.72 152.807C229.842 153.115 229.803 153.463 229.617 153.737C229.431 154.011 229.121 154.175 228.79 154.175ZM218.876 152.175H227.03C226.031 150.561 224.342 147.887 222.926 145.657C221.53 147.884 219.867 150.554 218.876 152.175Z" fill="#101417"/>
<path d="M235.199 169.75H211.534V171.75H235.199V169.75Z" fill="#101417"/>
<path d="M235.197 173.875H211.532V175.875H235.197V173.875Z" fill="#101417"/>
<path d="M235.195 178H211.53V180H235.195V178Z" fill="#101417"/>
<path d="M242.579 95.688C242.486 95.688 242.391 95.675 242.298 95.648L229.159 91.804L229.721 89.884L236.324 91.816L215.756 78.452L216.846 76.775L243.124 93.849C243.54 94.119 243.695 94.654 243.488 95.105C243.321 95.468 242.961 95.688 242.579 95.688Z" fill="#101417"/>
</svg>
