<svg width="287" height="158" viewBox="0 0 287 158" fill="none" xmlns="http://www.w3.org/2000/svg">
<path d="M110.67 116.531C110.67 115.113 110.128 113.693 109.046 112.61C107.963 111.527 106.544 110.986 105.125 110.986H41.9049C40.4849 110.986 39.0659 111.528 37.9829 112.611C36.8999 113.693 36.3589 115.113 36.3589 116.531V150.914C36.3589 152.334 36.9009 153.754 37.9829 154.836C39.0659 155.918 40.4839 156.46 41.9039 156.46H105.124C106.544 156.46 107.963 155.918 109.046 154.836C110.128 153.754 110.67 152.334 110.669 150.914L110.67 116.531Z" fill="#FFE32D"/>
<path d="M99.1011 115.624H103.562C104.007 115.624 104.454 115.793 104.792 116.134C105.133 116.473 105.302 116.919 105.302 117.364V121.825H99.1011V115.624Z" fill="white"/>
<path d="M105.406 115.517C105.9 116.01 106.173 116.665 106.173 117.365V121.826C106.173 122.307 105.782 122.696 105.302 122.696H99.101C98.621 122.696 98.231 122.307 98.231 121.826V115.625C98.231 115.395 98.3229 115.173 98.4859 115.01C98.6489 114.847 98.871 114.755 99.101 114.755H103.562C104.26 114.754 104.916 115.025 105.406 115.517ZM99.972 120.955H104.432V117.364C104.432 117.132 104.342 116.914 104.176 116.748C104.013 116.585 103.795 116.495 103.562 116.495H99.9709L99.972 120.955Z" fill="#C7B431"/>
<path d="M104.793 127.518C104.452 127.858 104.007 128.028 103.561 128.028H99.1001L99.1011 121.826H105.302V126.288C105.303 126.732 105.133 127.178 104.793 127.518Z" fill="white"/>
<path d="M106.173 121.825V126.285C106.174 126.984 105.902 127.639 105.407 128.133C104.914 128.626 104.258 128.898 103.56 128.898H99.1C98.87 128.898 98.649 128.806 98.485 128.643C98.322 128.48 98.23 128.258 98.23 128.028L98.231 121.826C98.231 121.346 98.621 120.956 99.101 120.956H105.302C105.782 120.955 106.173 121.345 106.173 121.825ZM99.971 127.157H103.561C103.794 127.157 104.013 127.066 104.178 126.9C104.342 126.737 104.432 126.519 104.432 126.287V122.695H99.972L99.971 127.157Z" fill="#C7B431"/>
<path d="M92.8979 121.825V117.365C92.8989 116.919 93.068 116.473 93.409 116.134C93.748 115.793 94.194 115.623 94.639 115.623L99.1 115.624V121.825H92.8979Z" fill="white"/>
<path d="M99.1008 114.754C99.5808 114.754 99.9708 115.144 99.9708 115.624L99.9718 121.825C99.9718 122.056 99.8798 122.277 99.7168 122.441C99.5528 122.604 99.3318 122.695 99.1008 122.695H92.8988C92.4188 122.695 92.0288 122.306 92.0288 121.825V117.363C92.0298 116.665 92.3018 116.009 92.7938 115.519C93.2858 115.025 93.9418 114.752 94.6408 114.752L99.1008 114.754ZM98.2298 120.955V116.495L94.6388 116.494C94.4068 116.494 94.1888 116.584 94.0228 116.75C93.8588 116.914 93.7688 117.133 93.7678 117.365V120.955H98.2298Z" fill="#C7B431"/>
<path d="M93.408 127.518C93.068 127.178 92.8979 126.732 92.8979 126.287V121.826H99.1L99.099 128.028H94.639C94.194 128.027 93.749 127.856 93.408 127.518Z" fill="white"/>
<path d="M99.7168 121.21C99.8798 121.373 99.9718 121.595 99.9718 121.825L99.9708 128.027C99.9708 128.507 99.5808 128.897 99.0998 128.897H94.6398C93.9448 128.897 93.2888 128.626 92.7928 128.132C92.2998 127.64 92.0278 126.985 92.0278 126.285V121.824C92.0278 121.344 92.4178 120.954 92.8978 120.954H99.0998C99.3318 120.955 99.5528 121.047 99.7168 121.21ZM93.7688 126.285C93.7698 126.519 93.8598 126.738 94.0218 126.9C94.1888 127.066 94.4078 127.157 94.6398 127.157H98.2298L98.2308 122.695H93.7688V126.285Z" fill="#C7B431"/>
<path d="M110.671 134.701H36.3589V145.581H110.671V134.701Z" fill="#C7B431"/>
<path d="M54.7948 116.101H40.3838V118.101H54.7948V116.101Z" fill="#101417"/>
<path d="M86.9437 116.101H72.5317V118.101H86.9437V116.101Z" fill="#101417"/>
<path d="M66.9888 116.101H61.4458V118.101H66.9888V116.101Z" fill="#101417"/>
<path d="M47.0348 120.535H40.3838V122.535H47.0348V120.535Z" fill="#101417"/>
<path d="M86.9439 120.535H75.8579V122.535H86.9439V120.535Z" fill="#101417"/>
<path d="M72.533 120.535H53.687V122.535H72.533V120.535Z" fill="#101417"/>
<path d="M82.51 124.969H43.709V126.969H82.51V124.969Z" fill="#101417"/>
<path d="M59.23 150.467H43.709V152.467H59.23V150.467Z" fill="#101417"/>
<path d="M98.0288 150.467H66.9888V152.467H98.0288V150.467Z" fill="#101417"/>
<path d="M186.91 69.173L186.71 68.98L186.464 69.109L185.532 67.34L187.056 66.537L188.297 67.731L186.91 69.173Z" fill="#101417"/>
<path d="M153.47 86.507L152.537 84.7369L154.37 83.7709L155.303 85.541L153.47 86.507ZM158.969 83.6069L158.036 81.8369L159.869 80.8709L160.802 82.6409L158.969 83.6069ZM164.468 80.7079L163.535 78.9379L165.368 77.9709L166.301 79.741L164.468 80.7079ZM169.967 77.809L169.034 76.0389L170.867 75.072L171.8 76.8419L169.967 77.809ZM175.466 74.9089L174.533 73.1389L176.366 72.1719L177.299 73.942L175.466 74.9089ZM180.965 72.0099L180.032 70.2399L181.865 69.2729L182.798 71.043L180.965 72.0099Z" fill="#101417"/>
<path d="M148.311 89.228L147.042 88.113L148.361 86.609L148.596 86.815L148.871 86.67L149.805 88.439L148.311 89.228Z" fill="#101417"/>
<path d="M143.942 85.394L142.392 84.034L143.711 82.53L145.261 83.89L143.942 85.394ZM139.292 81.313L137.742 79.953L139.061 78.449L140.611 79.809L139.292 81.313ZM134.642 77.232L133.092 75.872L134.411 74.368L135.961 75.728L134.642 77.232ZM129.993 73.151L128.443 71.791L129.762 70.287L131.312 71.647L129.993 73.151ZM125.343 69.07L123.793 67.71L125.112 66.206L126.662 67.566L125.343 69.07ZM120.693 64.989L119.143 63.629L120.462 62.125L122.012 63.485L120.693 64.989ZM116.043 60.909L114.493 59.549L115.812 58.045L117.362 59.405L116.043 60.909ZM111.394 56.828L109.844 55.468L111.163 53.964L112.713 55.324L111.394 56.828Z" fill="#101417"/>
<path d="M106.62 52.75L105.237 51.305L106.623 49.979L108.063 51.244L106.744 52.748L106.68 52.692L106.62 52.75Z" fill="#101417"/>
<path d="M99.0866 59.946L97.7046 58.501L98.9596 57.302L100.342 58.747L99.0866 59.946ZM102.854 56.348L101.472 54.903L102.727 53.704L104.109 55.149L102.854 56.348Z" fill="#101417"/>
<path d="M94.4579 64.37L94.0249 61.472L94.7009 61.371L95.1939 60.9L95.5259 61.248L96.0039 61.177L96.1039 61.854L96.5759 62.346L94.4579 64.37Z" fill="#101417"/>
<path d="M93.42 57.4061L93.117 55.373L95.096 55.0781L95.399 57.1111L93.42 57.4061ZM92.511 51.308L92.208 49.2751L94.187 48.98L94.49 51.0131L92.511 51.308ZM91.603 45.209L91.3 43.1761L93.279 42.881L93.582 44.9141L91.603 45.209ZM90.694 39.11L90.391 37.0771L92.37 36.782L92.673 38.8151L90.694 39.11ZM89.786 33.0121L89.483 30.9791L91.462 30.6841L91.765 32.717L89.786 33.0121ZM88.877 26.9131L88.574 24.8801L90.553 24.5851L90.856 26.618L88.877 26.9131ZM87.969 20.8141L87.666 18.7811L89.645 18.4861L89.948 20.519L87.969 20.8141Z" fill="#101417"/>
<path d="M87.0608 14.716L86.7168 12.407L89.0278 12.724L88.9118 13.571L89.0388 14.421L88.7908 14.458L88.7568 14.706L87.9088 14.589L87.0608 14.716Z" fill="#101417"/>
<path d="M134.061 20.938L132.173 20.678L132.445 18.698L134.333 18.958L134.061 20.938ZM128.398 20.158L126.51 19.898L126.782 17.918L128.67 18.178L128.398 20.158ZM122.735 19.38L120.847 19.12L121.119 17.14L123.007 17.4L122.735 19.38ZM117.072 18.601L115.184 18.341L115.456 16.361L117.344 16.621L117.072 18.601ZM111.409 17.821L109.521 17.561L109.793 15.581L111.681 15.841L111.409 17.821ZM105.746 17.042L103.858 16.782L104.13 14.802L106.018 15.062L105.746 17.042ZM100.083 16.264L98.1948 16.004L98.4668 14.024L100.355 14.284L100.083 16.264ZM94.4188 15.484L92.5308 15.224L92.8027 13.244L94.6908 13.504L94.4188 15.484Z" fill="#101417"/>
<path d="M138.931 22.0181L138.481 21.5471L137.836 21.457L137.907 20.944L137.55 20.5701L138.02 20.1221L138.109 19.4771L141.154 19.8961L138.931 22.0181Z" fill="#101417"/>
<path d="M131.714 28.911L130.333 27.464L131.536 26.316L132.917 27.763L131.714 28.911ZM135.323 25.464L133.941 24.019L135.144 22.87L136.526 24.315L135.323 25.464Z" fill="#101417"/>
<path d="M127.977 32.5889L126.42 31.2029L127.926 29.7639L128.584 30.452L129.307 31.0949L129.254 31.153L129.308 31.2089L128.616 31.8699L127.977 32.5889Z" fill="#101417"/>
<path d="M148.594 50.9559L147.219 49.7319L148.549 48.2379L149.924 49.4619L148.594 50.9559ZM144.47 47.283L143.095 46.0579L144.425 44.564L145.8 45.7889L144.47 47.283ZM140.347 43.6089L138.972 42.3839L140.302 40.89L141.677 42.1149L140.347 43.6089ZM136.224 39.937L134.849 38.7119L136.179 37.218L137.554 38.4429L136.224 39.937ZM132.1 36.2629L130.725 35.038L132.055 33.5439L133.43 34.7689L132.1 36.2629Z" fill="#101417"/>
<path d="M152.604 54.528L151.342 53.405L152.672 51.911L152.904 52.118L153.181 51.975L154.103 53.75L152.604 54.528Z" fill="#101417"/>
<path d="M157.53 51.97L156.607 50.1951L158.32 49.3041L159.243 51.079L157.53 51.97ZM162.67 49.2991L161.747 47.524L163.46 46.6331L164.383 48.4081L162.67 49.2991ZM167.81 46.6281L166.887 44.8531L168.6 43.962L169.523 45.7371L167.81 46.6281ZM172.95 43.957L172.027 42.1821L173.74 41.2911L174.663 43.066L172.95 43.957ZM178.09 41.2861L177.168 39.511L178.881 38.621L179.803 40.3961L178.09 41.2861ZM183.23 38.6151L182.308 36.8401L184.021 35.9501L184.943 37.725L183.23 38.6151ZM188.37 35.944L187.448 34.1691L189.161 33.2791L190.083 35.0541L188.37 35.944Z" fill="#101417"/>
<path d="M193.935 33.339L193.747 33.15L193.51 33.273L192.587 31.5L194.126 30.699L195.351 31.927L193.935 33.339Z" fill="#101417"/>
<path d="M270.75 110.414L269.327 108.987L270.743 107.575L272.166 109.002L270.75 110.414ZM266.482 106.133L265.059 104.705L266.476 103.293L267.899 104.721L266.482 106.133ZM262.215 101.851L260.792 100.423L262.209 99.011L263.632 100.439L262.215 101.851ZM257.948 97.568L256.525 96.141L257.941 94.729L259.364 96.156L257.948 97.568ZM253.68 93.287L252.257 91.859L253.674 90.447L255.097 91.875L253.68 93.287ZM249.412 89.005L247.99 87.577L249.407 86.165L250.829 87.593L249.412 89.005ZM245.145 84.723L243.723 83.296L245.139 81.884L246.561 83.311L245.145 84.723ZM240.877 80.441L239.455 79.013L240.872 77.601L242.294 79.029L240.877 80.441ZM236.609 76.159L235.187 74.731L236.604 73.319L238.026 74.747L236.609 76.159ZM232.342 71.877L230.92 70.45L232.336 69.038L233.758 70.465L232.342 71.877ZM228.075 67.595L226.653 66.168L228.069 64.756L229.491 66.183L228.075 67.595ZM223.807 63.313L222.385 61.885L223.802 60.473L225.224 61.901L223.807 63.313ZM219.539 59.031L218.117 57.603L219.534 56.191L220.956 57.619L219.539 59.031ZM215.272 54.749L213.85 53.322L215.266 51.91L216.688 53.337L215.272 54.749ZM211.004 50.468L209.582 49.04L210.999 47.628L212.421 49.056L211.004 50.468ZM206.736 46.186L205.314 44.758L206.731 43.346L208.153 44.774L206.736 46.186ZM202.469 41.903L201.047 40.476L202.463 39.064L203.885 40.491L202.469 41.903ZM198.201 37.622L196.779 36.194L198.196 34.782L199.618 36.21L198.201 37.622Z" fill="#101417"/>
<path d="M274.01 114.272L274.009 113.686L273.595 113.27L274.008 112.857V112.272L274.595 112.271L275.011 111.857L277.416 114.27L274.01 114.272Z" fill="#101417"/>
<path d="M234.581 114.317H233.824L232.368 112.917L233.755 111.476L234.921 112.597L234.582 112.95V114.317H234.581ZM238.524 114.313L238.522 112.313L240.493 112.311L240.495 114.311L238.524 114.313ZM244.438 114.306L244.436 112.306L246.408 112.304L246.41 114.304L244.438 114.306ZM250.354 114.3L250.351 112.3L252.322 112.297L252.325 114.297L250.354 114.3ZM256.267 114.293L256.265 112.293L258.237 112.291L258.239 114.291L256.267 114.293ZM262.182 114.286L262.18 112.286L264.151 112.284L264.153 114.284L262.182 114.286ZM268.096 114.279L268.094 112.279L270.066 112.277L270.068 114.277L268.096 114.279ZM229.526 110.183L228.106 108.816L229.493 107.375L230.913 108.742L229.526 110.183ZM225.265 106.082L223.844 104.715L225.231 103.274L226.652 104.641L225.265 106.082ZM221.004 101.98L219.583 100.614L220.969 99.173L222.39 100.539L221.004 101.98ZM216.742 97.8801L215.322 96.5131L216.709 95.0721L218.129 96.4391L216.742 97.8801ZM212.48 93.7791L211.06 92.412L212.447 90.9711L213.867 92.3381L212.48 93.7791ZM208.218 89.678L206.798 88.3121L208.185 86.871L209.605 88.2371L208.218 89.678ZM203.957 85.5771L202.537 84.2101L203.924 82.769L205.344 84.136L203.957 85.5771ZM199.695 81.4771L198.275 80.11L199.662 78.6691L201.082 80.0361L199.695 81.4771ZM195.433 77.3751L194.013 76.009L195.4 74.5681L196.82 75.9341L195.433 77.3751ZM191.172 73.274L189.751 71.907L191.138 70.4661L192.559 71.8331L191.172 73.274Z" fill="#101417"/>
<path d="M93.8311 19.4409L128.018 24.145L120.521 31.3049L152 59.348L192.985 38.054L262.98 108.285L236.239 108.315L187.746 61.65L149.165 81.994L106.508 44.5579L98.6861 52.0309L93.8311 19.4409Z" fill="#FFE32D"/>
<path d="M229.192 25.3831H225.254C223.272 25.3831 222.449 23.2491 221.723 21.3671C221.278 20.2131 220.669 18.6321 220.058 18.6321C219.436 18.6321 218.855 20.0691 218.388 21.2231C217.659 23.0221 216.834 25.061 214.866 25.061C212.898 25.061 212.068 23.0381 211.335 21.2521C210.866 20.1081 210.282 18.686 209.657 18.686C209.041 18.686 208.423 20.255 207.971 21.402C207.236 23.268 206.402 25.3831 204.426 25.3831H199.192V23.3831H204.426C205.041 23.3831 205.659 21.8141 206.111 20.6681C206.847 18.8021 207.681 16.686 209.658 16.686C211.624 16.686 212.454 18.708 213.186 20.493C213.656 21.638 214.24 23.061 214.867 23.061C215.487 23.061 216.068 21.625 216.535 20.472C217.264 18.672 218.09 16.6321 220.059 16.6321C222.041 16.6321 222.864 18.7661 223.59 20.6481C224.035 21.8021 224.644 23.3831 225.255 23.3831H229.193V25.3831H229.192Z" fill="#101417"/>
<path d="M126.668 12.235H122.73C120.747 12.235 119.925 10.101 119.199 8.21802C118.754 7.06502 118.144 5.48401 117.535 5.48401C116.913 5.48401 116.332 6.92097 115.865 8.07397C115.136 9.87297 114.311 11.912 112.343 11.912C110.375 11.912 109.545 9.88903 108.812 8.10303C108.343 6.96003 107.759 5.53802 107.134 5.53802C106.518 5.53802 105.9 7.10703 105.448 8.25403C104.713 10.12 103.879 12.235 101.903 12.235H96.6689V10.235H101.903C102.518 10.235 103.136 8.66602 103.588 7.52002C104.324 5.65402 105.158 3.53802 107.135 3.53802C109.101 3.53802 109.931 5.55997 110.663 7.34497C111.133 8.48897 111.717 9.91199 112.344 9.91199C112.964 9.91199 113.545 8.47597 114.012 7.32397C114.741 5.52397 115.567 3.48401 117.536 3.48401C119.518 3.48401 120.341 5.617 121.066 7.5C121.511 8.654 122.121 10.235 122.731 10.235H126.669V12.235H126.668Z" fill="#101417"/>
<path d="M70.313 77.375H66.375C64.393 77.375 63.57 75.242 62.845 73.36C62.4 72.206 61.79 70.625 61.18 70.625C60.559 70.625 59.978 72.061 59.511 73.214C58.782 75.014 57.957 77.053 55.988 77.053C54.021 77.053 53.191 75.03 52.458 73.245C51.989 72.101 51.405 70.678 50.779 70.678C50.164 70.678 49.546 72.247 49.094 73.393C48.358 75.259 47.524 77.375 45.547 77.375H40.314V75.375H45.547C46.163 75.375 46.781 73.806 47.233 72.659C47.968 70.793 48.802 68.678 50.778 68.678C52.745 68.678 53.575 70.701 54.308 72.486C54.777 73.63 55.361 75.053 55.987 75.053C56.608 75.053 57.189 73.617 57.656 72.464C58.385 70.664 59.21 68.625 61.179 68.625C63.161 68.625 63.984 70.759 64.71 72.641C65.155 73.795 65.764 75.375 66.374 75.375H70.312V77.375H70.313Z" fill="#101417"/>
<path d="M241.565 148.729V67.375C241.565 62.85 238.005 59.182 233.613 59.182H109.826C105.433 59.182 101.874 62.85 101.874 67.375V148.729H241.565Z" fill="#5BEDA6"/>
<path d="M228.465 107.733H266.755C270.702 107.733 273.901 110.933 273.901 114.879C273.901 118.826 270.702 122.026 266.755 122.026H228.465C224.518 122.026 221.318 118.826 221.318 114.879C221.317 110.934 224.518 107.733 228.465 107.733Z" fill="#5BEDA6"/>
<path d="M231.992 79.676H252.812C256.759 79.676 259.958 82.876 259.958 86.823C259.958 90.77 256.759 93.969 252.812 93.969H231.992C228.046 93.969 224.846 90.77 224.846 86.823C224.846 82.876 228.046 79.676 231.992 79.676Z" fill="#5BEDA6"/>
<path d="M219.242 134.758H275.976C278.535 134.758 280.608 137.097 280.608 139.983C280.608 142.869 278.535 145.208 275.976 145.208H219.242C216.684 145.208 214.61 142.869 214.61 139.983C214.61 137.097 216.685 134.758 219.242 134.758Z" fill="#5BEDA6"/>
<path d="M260.619 66.396H281.147C283.705 66.396 285.779 68.469 285.779 71.028C285.779 73.587 283.705 75.661 281.147 75.661H260.619C258.06 75.661 255.987 73.587 255.987 71.028C255.987 68.469 258.061 66.396 260.619 66.396Z" fill="#5BEDA6"/>
<path d="M234.188 121.361H261.743C259.708 121.361 257.856 122.201 256.523 123.474C255.184 124.752 254.357 126.263 254.357 128.212C254.357 132.104 257.666 135.007 261.743 135.007H234.188C236.223 135.007 238.068 134.49 239.407 133.224C240.741 131.951 241.568 130.272 241.568 128.324C241.567 124.426 238.264 121.361 234.188 121.361Z" fill="#5BEDA6"/>
<path d="M235.382 66.521H108.058V142.404H235.382V66.521Z" fill="white"/>
<path d="M230.145 70.7991H216.441V92.3441H230.145V70.7991Z" fill="#E9E9E9"/>
<path d="M212.113 70.7991H113.294V92.3441H212.113V70.7991Z" fill="#FFE32D"/>
<path d="M212.113 93.3441H113.294C112.742 93.3441 112.294 92.8971 112.294 92.3441V70.7991C112.294 70.2461 112.742 69.7991 113.294 69.7991H212.113C212.665 69.7991 213.113 70.2461 213.113 70.7991V92.3441C213.113 92.8961 212.666 93.3441 212.113 93.3441ZM114.294 91.3441H211.113V71.7991H114.294V91.3441V91.3441Z" fill="#101417"/>
<path d="M140.703 99.0762H113.294V120.621H140.703V99.0762Z" fill="#E9E9E9"/>
<path d="M230.146 111.57H145.753V120.621H230.146V111.57Z" fill="#E9E9E9"/>
<path d="M230.146 99.0762H145.753V108.127H230.146V99.0762Z" fill="#E9E9E9"/>
<path d="M230.146 124.831H113.294V138.127H230.146V124.831Z" fill="#E9E9E9"/>
<path d="M235.382 143.404H108.058C107.506 143.404 107.058 142.957 107.058 142.404V66.521C107.058 65.968 107.506 65.521 108.058 65.521H235.382C235.934 65.521 236.382 65.968 236.382 66.521V142.404C236.382 142.957 235.934 143.404 235.382 143.404ZM109.058 141.404H234.382V67.521H109.058V141.404Z" fill="#101417"/>
<path d="M93.8311 148.729V152.594C93.8311 154.729 95.5211 156.459 97.6071 156.459H245.832C247.918 156.459 249.608 154.729 249.608 152.594V148.729H93.8311Z" fill="white"/>
<path d="M245.832 157.46H97.6071C94.9731 157.46 92.8311 155.277 92.8311 152.595V148.73C92.8311 148.177 93.2791 147.73 93.8311 147.73H249.608C250.16 147.73 250.608 148.177 250.608 148.73V152.595C250.608 155.277 248.466 157.46 245.832 157.46ZM94.8311 149.729V152.594C94.8311 154.174 96.0771 155.459 97.6071 155.459H245.832C247.363 155.459 248.608 154.174 248.608 152.594V149.729H94.8311Z" fill="#101417"/>
<path d="M282.792 97.615H261.282V99.615H282.792V97.615Z" fill="#101417"/>
<path d="M286.377 124.502H279.207V126.502H286.377V124.502Z" fill="#101417"/>
<path d="M282.792 86.012H275.622V88.012H282.792V86.012Z" fill="#101417"/>
<path d="M211.776 102.571L200.741 91.5352L195.084 97.192L206.12 108.228L211.776 102.571Z" fill="#101417"/>
<path d="M193.12 103.12L188.167 84.6271L206.658 89.5811L193.12 103.12Z" fill="#101417"/>
<path d="M201.446 78.0286L198.618 75.2002L191.851 81.9671L194.679 84.7955L201.446 78.0286Z" fill="#101417"/>
<path d="M187.912 91.5634L185.083 88.735L178.317 95.5019L181.145 98.3303L187.912 91.5634Z" fill="#101417"/>
<path d="M187.891 82.0083L181.124 75.2413L178.295 78.0701L185.063 84.8371L187.891 82.0083Z" fill="#101417"/>
<path d="M141.386 85.667H68.127V99.291H141.386V85.667Z" fill="white"/>
<path d="M141.386 100.291H68.127C67.575 100.291 67.127 99.844 67.127 99.291V85.667C67.127 85.114 67.575 84.667 68.127 84.667H141.386C141.938 84.667 142.386 85.114 142.386 85.667V99.291C142.386 99.844 141.938 100.291 141.386 100.291ZM69.127 98.291H140.386V86.667H69.127V98.291Z" fill="#101417"/>
<path d="M157.426 84.332H141.386V100.625H157.426V84.332Z" fill="#5BEDA6"/>
<path d="M78.8541 96.9011C80.0421 96.9011 81.0051 95.9381 81.0051 94.7501C81.0051 93.5622 80.0421 92.5991 78.8541 92.5991C77.6662 92.5991 76.7031 93.5622 76.7031 94.7501C76.7031 95.9381 77.6662 96.9011 78.8541 96.9011Z" fill="#5BEDA6"/>
<path d="M89.5182 96.9011C90.7062 96.9011 91.6692 95.9381 91.6692 94.7501C91.6692 93.5622 90.7062 92.5991 89.5182 92.5991C88.3302 92.5991 87.3672 93.5622 87.3672 94.7501C87.3672 95.9381 88.3302 96.9011 89.5182 96.9011Z" fill="#5BEDA6"/>
<path d="M100.18 96.9011C101.368 96.9011 102.331 95.9381 102.331 94.7501C102.331 93.5622 101.368 92.5991 100.18 92.5991C98.9918 92.5991 98.0288 93.5622 98.0288 94.7501C98.0288 95.9381 98.9918 96.9011 100.18 96.9011Z" fill="#5BEDA6"/>
<path d="M110.843 96.9011C112.031 96.9011 112.994 95.9381 112.994 94.7501C112.994 93.5622 112.031 92.5991 110.843 92.5991C109.655 92.5991 108.692 93.5622 108.692 94.7501C108.692 95.9381 109.655 96.9011 110.843 96.9011Z" fill="#5BEDA6"/>
<path d="M154.699 95.9958L150.817 92.1133L149.403 93.5273L153.284 97.4098L154.699 95.9958Z" fill="#101417"/>
<path d="M148.343 94.8301C146.004 94.8301 144.101 92.9271 144.101 90.5881C144.101 88.2491 146.004 86.3461 148.343 86.3461C150.682 86.3461 152.585 88.2491 152.585 90.5881C152.585 92.9271 150.682 94.8301 148.343 94.8301ZM148.343 88.3461C147.107 88.3461 146.101 89.3521 146.101 90.5881C146.101 91.8241 147.107 92.8301 148.343 92.8301C149.579 92.8301 150.585 91.8241 150.585 90.5881C150.585 89.3521 149.579 88.3461 148.343 88.3461Z" fill="#101417"/>
<path d="M155.339 38.2231C153.025 38.2231 151.143 36.34 151.143 34.027C151.143 31.714 153.025 29.8311 155.339 29.8311C157.653 29.8311 159.535 31.714 159.535 34.027C159.535 36.34 157.653 38.2231 155.339 38.2231ZM155.339 31.8301C154.128 31.8301 153.143 32.8151 153.143 34.0261C153.143 35.2371 154.128 36.222 155.339 36.222C156.55 36.222 157.535 35.2371 157.535 34.0261C157.535 32.8151 156.55 31.8301 155.339 31.8301Z" fill="#101417"/>
<path d="M78.7341 75.225C76.4201 75.225 74.5381 73.3421 74.5381 71.0281C74.5381 68.7151 76.4201 66.832 78.7341 66.832C81.0481 66.832 82.9301 68.7151 82.9301 71.0281C82.9311 73.3421 81.0481 75.225 78.7341 75.225ZM78.7341 68.8311C77.5231 68.8311 76.5381 69.816 76.5381 71.027C76.5381 72.239 77.5231 73.2241 78.7341 73.2241C79.9451 73.2241 80.9301 72.239 80.9301 71.027C80.9311 69.816 79.9451 68.8311 78.7341 68.8311Z" fill="#101417"/>
<path d="M17.3898 147.32C15.0758 147.32 13.1938 145.437 13.1938 143.124C13.1938 140.811 15.0758 138.928 17.3898 138.928C19.7038 138.928 21.5858 140.811 21.5858 143.124C21.5858 145.437 19.7038 147.32 17.3898 147.32ZM17.3898 140.928C16.1788 140.928 15.1938 141.913 15.1938 143.124C15.1938 144.335 16.1788 145.32 17.3898 145.32C18.6008 145.32 19.5858 144.335 19.5858 143.124C19.5858 141.913 18.6008 140.928 17.3898 140.928Z" fill="#101417"/>
<path d="M235.087 45.205C232.773 45.205 230.891 43.322 230.891 41.009C230.891 38.696 232.773 36.813 235.087 36.813C237.401 36.813 239.283 38.696 239.283 41.009C239.283 43.322 237.401 45.205 235.087 45.205ZM235.087 38.813C233.876 38.813 232.891 39.798 232.891 41.009C232.891 42.22 233.876 43.205 235.087 43.205C236.298 43.205 237.283 42.22 237.283 41.009C237.283 39.798 236.298 38.813 235.087 38.813Z" fill="#101417"/>
<path d="M25.597 129.184H23.597V127.184H25.597V129.184ZM19.597 129.184H17.597V127.184H19.597V129.184ZM13.597 129.184H11.597V127.184H13.597V129.184ZM7.59701 129.184H5.59701V127.184H7.59701V129.184ZM1.59701 129.184H0.208008V127.184H1.59701V129.184Z" fill="#101417"/>
<path d="M174.081 15.338H172.081V13.338H174.081V15.338ZM168.081 15.338H166.081V13.338H168.081V15.338ZM162.081 15.338H160.081V13.338H162.081V15.338ZM156.081 15.338H154.191V13.338H156.081V15.338Z" fill="#101417"/>
<path d="M266.48 58H264.48V56H266.48V58ZM260.48 58H258.48V56H260.48V58ZM254.48 58H252.48V56H254.48V58ZM248.48 58H246.48V56H248.48V58ZM242.48 58H241.091V56H242.48V58Z" fill="#101417"/>
<path d="M172.088 31.3231L168.106 27.3407L166.692 28.7549L170.674 32.7373L172.088 31.3231Z" fill="#101417"/>
<path d="M172.089 28.7549L170.674 27.3407L166.692 31.3231L168.106 32.7373L172.089 28.7549Z" fill="#101417"/>
<path d="M70.1709 50.6325L66.1885 46.6501L64.7743 48.0643L68.7567 52.0467L70.1709 50.6325Z" fill="#101417"/>
<path d="M70.171 48.0643L68.7568 46.6501L64.7744 50.6325L66.1886 52.0467L70.171 48.0643Z" fill="#101417"/>
<path d="M50.5076 99.9015L46.5239 95.9189L45.1099 97.3333L49.0936 101.316L50.5076 99.9015Z" fill="#101417"/>
<path d="M50.4977 97.3266L49.0835 95.9124L45.1004 99.8954L46.5146 101.31L50.4977 97.3266Z" fill="#101417"/>
<path d="M193.676 4.73324L189.694 0.750854L188.28 2.16505L192.262 6.14744L193.676 4.73324Z" fill="#101417"/>
<path d="M193.676 2.16505L192.262 0.750854L188.28 4.73326L189.694 6.14745L193.676 2.16505Z" fill="#101417"/>
<path d="M270.883 153.57C270.879 153.57 270.874 153.57 270.869 153.57C268.179 153.533 265.827 152.617 264.07 150.922C260.976 148.055 259.963 143.088 261.621 138.859C263.162 134.931 266.552 132.678 270.923 132.678C275.689 132.678 279.402 135.503 280.613 140.05C281.887 144.833 279.987 149.925 276.094 152.156C274.61 153.063 272.853 153.544 270.896 153.57C270.892 153.57 270.888 153.57 270.883 153.57ZM270.923 134.678C267.419 134.678 264.707 136.468 263.484 139.589C262.14 143.016 262.965 147.171 265.445 149.469C266.861 150.835 268.686 151.537 270.883 151.571C272.471 151.548 273.882 151.166 275.076 150.436C278.635 148.395 279.577 143.929 278.681 140.565C277.699 136.879 274.799 134.678 270.923 134.678Z" fill="#101417"/>
<path fill-rule="evenodd" clip-rule="evenodd" d="M270.883 130.379C263.779 130.379 258.018 136.139 258.018 143.244C258.018 150.35 263.779 156.11 270.883 156.11C277.989 156.11 283.749 150.35 283.749 143.244C283.749 136.139 277.989 130.379 270.883 130.379Z" fill="#FFE32D"/>
<path d="M270.878 153.28C265.343 153.28 260.841 148.778 260.841 143.244C260.841 137.711 265.343 133.209 270.878 133.209C276.411 133.209 280.912 137.711 280.912 143.244C280.912 148.778 276.411 153.28 270.878 153.28ZM270.878 135.209C266.446 135.209 262.841 138.813 262.841 143.244C262.841 147.675 266.446 151.28 270.878 151.28C275.308 151.28 278.912 147.675 278.912 143.244C278.912 138.813 275.308 135.209 270.878 135.209Z" fill="#101417"/>
<path fill-rule="evenodd" clip-rule="evenodd" d="M271.235 142.229C269.641 141.748 269.297 141.499 269.297 140.829C269.297 140.15 270.385 139.971 271.026 139.971C271.636 139.97 272.361 140.162 272.793 140.441C272.964 140.554 273.194 140.504 273.309 140.332L274.115 139.08C274.229 138.908 274.179 138.678 274.005 138.566C273.408 138.18 272.624 137.905 271.813 137.793V137.022C271.813 136.817 271.645 136.649 271.441 136.649H269.951C269.745 136.649 269.58 136.817 269.58 137.022V137.915C268.021 138.327 267.065 139.422 267.065 140.83C267.065 143.3 269.185 143.943 270.59 144.367C272.099 144.824 272.403 145.031 272.397 145.6C272.397 146.23 271.36 146.397 270.747 146.397C269.995 146.397 269.148 146.058 268.688 145.572C268.62 145.501 268.528 145.459 268.43 145.456C268.329 145.454 268.233 145.49 268.161 145.559L267.08 146.582C266.93 146.725 266.924 146.958 267.064 147.109C267.696 147.774 268.597 148.269 269.579 148.495V149.346C269.579 149.551 269.744 149.718 269.95 149.718H271.44C271.644 149.718 271.812 149.551 271.812 149.346V148.536C273.537 148.213 274.63 147.091 274.63 145.609C274.649 143.264 272.594 142.64 271.235 142.229Z" fill="white"/>
<path d="M240.34 150.375C240.335 150.375 240.331 150.375 240.326 150.375C238.469 150.349 236.843 149.713 235.623 148.537C233.493 146.563 232.792 143.145 233.932 140.237C234.983 137.556 237.388 135.956 240.365 135.956C243.66 135.956 246.228 137.91 247.066 141.057C247.943 144.349 246.626 147.858 243.935 149.4C242.916 150.023 241.703 150.356 240.354 150.376C240.35 150.375 240.345 150.375 240.34 150.375ZM240.365 137.956C237.415 137.956 236.235 139.843 235.794 140.967C234.961 143.093 235.466 145.666 236.997 147.084C237.867 147.923 238.987 148.353 240.34 148.375C241.32 148.358 242.187 148.125 242.916 147.679C245.114 146.419 245.688 143.657 245.133 141.572C244.531 139.308 242.748 137.956 240.365 137.956Z" fill="#101417"/>
<path fill-rule="evenodd" clip-rule="evenodd" d="M240.339 134.787C235.669 134.787 231.883 138.574 231.883 143.244C231.883 147.916 235.669 151.701 240.339 151.701C245.01 151.701 248.797 147.916 248.797 143.244C248.797 138.574 245.01 134.787 240.339 134.787Z" fill="#FFE32D"/>
<path d="M240.336 150.184C236.509 150.184 233.396 147.071 233.396 143.245C233.396 139.419 236.509 136.307 240.336 136.307C244.162 136.307 247.274 139.419 247.274 143.245C247.274 147.071 244.162 150.184 240.336 150.184ZM240.336 138.306C237.612 138.306 235.396 140.522 235.396 143.244C235.396 145.968 237.612 148.183 240.336 148.183C243.059 148.183 245.274 145.967 245.274 143.244C245.274 140.521 243.059 138.306 240.336 138.306Z" fill="#101417"/>
<path fill-rule="evenodd" clip-rule="evenodd" d="M240.571 142.576C239.523 142.26 239.297 142.097 239.297 141.656C239.297 141.21 240.012 141.092 240.433 141.092C240.834 141.092 241.311 141.218 241.594 141.401C241.707 141.475 241.858 141.442 241.933 141.329L242.463 140.507C242.537 140.394 242.505 140.242 242.391 140.169C241.998 139.915 241.483 139.734 240.95 139.661V139.154C240.95 139.019 240.839 138.909 240.705 138.909H239.726C239.591 138.909 239.482 139.019 239.482 139.154V139.741C238.459 140.012 237.83 140.731 237.83 141.657C237.83 143.28 239.224 143.703 240.147 143.982C241.138 144.282 241.338 144.419 241.334 144.792C241.334 145.207 240.653 145.316 240.25 145.316C239.756 145.316 239.199 145.094 238.897 144.774C238.851 144.727 238.791 144.7 238.726 144.698C238.661 144.696 238.597 144.719 238.55 144.764L237.839 145.438C237.741 145.531 237.736 145.684 237.829 145.784C238.244 146.222 238.837 146.548 239.481 146.695V147.255C239.481 147.39 239.59 147.499 239.725 147.499H240.704C240.838 147.499 240.949 147.39 240.949 147.255V146.723C242.082 146.511 242.802 145.773 242.802 144.798C242.814 143.257 241.464 142.848 240.571 142.576Z" fill="white"/>
<path d="M230.146 129.157C230.142 129.157 230.137 129.157 230.132 129.157C228.276 129.132 226.65 128.497 225.43 127.32C223.3 125.346 222.599 121.927 223.739 119.019C224.79 116.339 227.195 114.739 230.172 114.739C233.467 114.739 236.035 116.693 236.873 119.839C237.75 123.131 236.433 126.64 233.742 128.183C232.722 128.807 231.509 129.139 230.159 129.158C230.154 129.157 230.15 129.157 230.146 129.157ZM230.172 116.739C227.222 116.739 226.042 118.626 225.601 119.75C224.768 121.876 225.273 124.448 226.804 125.867C227.675 126.706 228.794 127.136 230.146 127.157C231.126 127.141 231.994 126.908 232.723 126.462C234.921 125.201 235.496 122.439 234.94 120.354C234.337 118.091 232.555 116.739 230.172 116.739Z" fill="#101417"/>
<path fill-rule="evenodd" clip-rule="evenodd" d="M230.146 113.57C225.476 113.57 221.689 117.356 221.689 122.027C221.689 126.698 225.476 130.484 230.146 130.484C234.817 130.484 238.603 126.698 238.603 122.027C238.603 117.356 234.816 113.57 230.146 113.57Z" fill="#FFE32D"/>
<path d="M230.142 128.967C226.315 128.967 223.203 125.854 223.203 122.028C223.203 118.202 226.316 115.089 230.142 115.089C233.968 115.089 237.081 118.202 237.081 122.028C237.081 125.854 233.968 128.967 230.142 128.967ZM230.142 117.088C227.418 117.088 225.203 119.304 225.203 122.027C225.203 124.75 227.419 126.966 230.142 126.966C232.865 126.966 235.081 124.75 235.081 122.027C235.081 119.304 232.865 117.088 230.142 117.088Z" fill="#101417"/>
<path fill-rule="evenodd" clip-rule="evenodd" d="M230.377 121.359C229.329 121.043 229.103 120.88 229.103 120.439C229.103 119.992 229.819 119.875 230.24 119.875C230.641 119.874 231.118 120.001 231.401 120.184C231.513 120.258 231.665 120.225 231.74 120.112L232.27 119.29C232.344 119.177 232.312 119.025 232.197 118.952C231.805 118.698 231.29 118.517 230.756 118.443V117.936C230.756 117.802 230.646 117.692 230.512 117.692H229.533C229.398 117.692 229.289 117.802 229.289 117.936V118.524C228.265 118.795 227.637 119.514 227.637 120.44C227.637 122.063 229.031 122.486 229.953 122.765C230.945 123.065 231.144 123.202 231.141 123.575C231.141 123.989 230.46 124.099 230.057 124.099C229.563 124.099 229.005 123.876 228.703 123.557C228.658 123.51 228.598 123.482 228.533 123.48C228.468 123.479 228.404 123.502 228.357 123.547L227.646 124.22C227.547 124.314 227.543 124.467 227.636 124.567C228.051 125.005 228.644 125.33 229.288 125.478V126.037C229.288 126.173 229.397 126.282 229.532 126.282H230.511C230.645 126.282 230.755 126.173 230.755 126.037V125.505C231.889 125.293 232.608 124.556 232.608 123.581C232.621 122.04 231.271 121.63 230.377 121.359Z" fill="white"/>
<path d="M252.133 131.03C252.129 131.03 252.124 131.03 252.119 131.03C249.774 130.997 247.723 130.198 246.188 128.717C243.493 126.219 242.609 121.894 244.053 118.211C245.397 114.783 248.354 112.817 252.166 112.817C256.324 112.817 259.562 115.282 260.619 119.249C261.729 123.414 260.07 127.851 256.675 129.797C255.385 130.586 253.854 131.005 252.147 131.029C252.142 131.03 252.138 131.03 252.133 131.03ZM252.166 114.818C249.221 114.818 246.942 116.321 245.915 118.942C244.782 121.83 245.475 125.33 247.561 127.264C248.751 128.411 250.285 129.001 252.132 129.03C253.47 129.009 254.655 128.688 255.655 128.077C258.65 126.359 259.44 122.598 258.685 119.764C257.862 116.667 255.424 114.818 252.166 114.818Z" fill="#101417"/>
<path fill-rule="evenodd" clip-rule="evenodd" d="M252.132 110.986C246.035 110.986 241.092 115.929 241.092 122.027C241.092 128.125 246.035 133.068 252.132 133.068C258.231 133.068 263.174 128.125 263.174 122.027C263.174 115.929 258.23 110.986 252.132 110.986Z" fill="#FFE32D"/>
<path d="M252.128 130.781C247.301 130.781 243.374 126.854 243.374 122.027C243.374 117.2 247.301 113.273 252.128 113.273C256.954 113.273 260.881 117.2 260.881 122.027C260.881 126.854 256.954 130.781 252.128 130.781ZM252.128 115.273C248.404 115.273 245.374 118.303 245.374 122.027C245.374 125.751 248.404 128.781 252.128 128.781C255.852 128.781 258.881 125.751 258.881 122.027C258.881 118.303 255.852 115.273 252.128 115.273Z" fill="#101417"/>
<path fill-rule="evenodd" clip-rule="evenodd" d="M252.435 121.155C251.068 120.742 250.772 120.529 250.772 119.954C250.772 119.371 251.706 119.217 252.255 119.217C252.778 119.217 253.401 119.382 253.771 119.62C253.918 119.717 254.116 119.674 254.213 119.525L254.904 118.452C255.002 118.305 254.96 118.107 254.81 118.012C254.297 117.68 253.624 117.444 252.928 117.348V116.687C252.928 116.511 252.783 116.367 252.609 116.367H251.33C251.154 116.367 251.012 116.512 251.012 116.687V117.454C249.675 117.808 248.855 118.746 248.855 119.955C248.855 122.074 250.674 122.626 251.879 122.99C253.174 123.383 253.435 123.559 253.43 124.048C253.43 124.589 252.54 124.733 252.014 124.733C251.368 124.733 250.642 124.442 250.247 124.025C250.188 123.963 250.109 123.927 250.025 123.925C249.939 123.923 249.856 123.954 249.795 124.012L248.867 124.891C248.739 125.013 248.733 125.214 248.854 125.343C249.396 125.914 250.169 126.339 251.011 126.532V127.261C251.011 127.438 251.154 127.58 251.329 127.58H252.608C252.783 127.58 252.927 127.437 252.927 127.261V126.567C254.406 126.29 255.346 125.327 255.346 124.055C255.364 122.043 253.601 121.508 252.435 121.155Z" fill="white"/>
</svg>
